<?xml version="1.0" encoding="utf-8"?>
<!-- Generator: Adobe Illustrator 15.0.0, SVG Export Plug-In . SVG Version: 6.00 Build 0)  -->
<!DOCTYPE svg PUBLIC "-//W3C//DTD SVG 1.1//EN" "http://www.w3.org/Graphics/SVG/1.1/DTD/svg11.dtd">
<svg version="1.1" id="Capa_1" xmlns="http://www.w3.org/2000/svg" xmlns:xlink="http://www.w3.org/1999/xlink" x="0px" y="0px"
	 width="88.333px" height="119.334px" viewBox="-14.688 9.562 88.333 119.334"
	 enable-background="new -14.688 9.562 88.333 119.334" xml:space="preserve">
<g>
	<path d="M-10.532,120.907h5.45c0.869,0.274,2.088,0.762,3.283,1.31c1.548,0.711,3.543,1.603,5.781,2.543
		c3.845,1.618,8.89,2.528,12.452,1.581c1.972-0.525,2.796-2.066,2.35-2.377c-0.445-0.31-1.54-0.212-2.511-0.145
		c-0.65,0.043-1.269-0.099-1.395-0.757c-0.289-1.494,2.22-1.31,3.926,0.068c1.704,1.371,3.06,2.159,5.375,1.278
		c1.658-0.627,3.277-2.589,2.862-9.011l-0.287-11.177c0,0,0.263-6.104-6.077-5.859c0,0-9.777-0.165-16.083,1.329
		c-6.31,1.502-8.346,3.544-10.683,3.603c-0.192,0.005-0.445,0.013-0.745,0.019h-3.701c-2.041,0-3.694,1.655-3.694,3.695v10.206
		C-14.224,119.253-12.573,120.907-10.532,120.907z M-9.483,112.543h2.234v6.467h-2.234V112.543z"/>
	<path d="M65.226,103.294c-2.338-0.059-4.373-2.101-10.684-3.603c-6.305-1.494-16.085-1.329-16.085-1.329
		c-6.338-0.245-6.077,5.859-6.077,5.859l-0.287,11.18c-0.415,6.419,1.204,8.381,2.864,9.008c2.312,0.881,3.672,0.096,5.373-1.278
		c1.708-1.378,4.217-1.562,3.928-0.068c-0.129,0.658-0.745,0.807-1.396,0.757c-0.969-0.067-2.063-0.165-2.509,0.147
		c-0.446,0.308,0.377,1.853,2.35,2.374c3.562,0.953,8.608,0.041,12.449-1.577c2.245-0.944,4.238-1.836,5.784-2.544
		c1.197-0.547,2.415-1.036,3.283-1.309h5.448c2.042,0,3.697-1.655,3.697-3.697v-10.205c0-2.039-1.655-3.694-3.697-3.694h-3.699
		C65.669,103.307,65.416,103.299,65.226,103.294z M66.389,112.543h2.232v6.467h-2.232V112.543z"/>
	<path d="M15.913,88.192c-0.745-0.448-1.713-0.208-2.16,0.54c-0.446,0.745-0.207,1.712,0.541,2.16l8.857,5.314
		c0.252,0.152,0.532,0.225,0.809,0.225c0.535,0,1.056-0.273,1.352-0.764c0.446-0.747,0.206-1.714-0.542-2.161L15.913,88.192z"/>
	<path d="M42.625,88.192l-8.857,5.312c-0.747,0.447-0.987,1.414-0.542,2.161c0.298,0.491,0.818,0.765,1.35,0.765
		c0.277,0,0.558-0.073,0.812-0.226l8.857-5.313c0.744-0.448,0.983-1.416,0.538-2.16C44.338,87.984,43.372,87.744,42.625,88.192z"/>
	<path d="M29.668,96.431c0.869,0,1.574-0.705,1.574-1.575V80.16c0-0.87-0.705-1.575-1.574-1.575c-0.869,0-1.575,0.705-1.575,1.575
		v14.695C28.093,95.726,28.799,96.431,29.668,96.431z"/>
</g>
<g>
	<path fill="#FFFFFF" d="M-10.532,51.884h5.45c0.869,0.274,2.088,0.762,3.283,1.309c1.548,0.711,3.543,1.603,5.781,2.544
		c3.845,1.618,8.89,2.528,12.452,1.582c1.972-0.526,2.796-2.067,2.35-2.377c-0.445-0.311-1.54-0.212-2.511-0.146
		c-0.65,0.044-1.269-0.099-1.395-0.756c-0.289-1.495,2.22-1.311,3.926,0.068c1.704,1.371,3.06,2.159,5.375,1.279
		c1.658-0.628,3.277-2.59,2.862-9.012l-0.287-11.177c0,0,0.263-6.105-6.077-5.86c0,0-9.777-0.166-16.083,1.331
		c-6.31,1.501-8.346,3.543-10.683,3.602c-0.192,0.004-0.445,0.012-0.745,0.019h-3.701c-2.041,0-3.694,1.654-3.694,3.695V48.19
		C-14.224,50.23-12.573,51.884-10.532,51.884z M-9.483,43.52h2.234v6.467h-2.234V43.52z"/>
	<path fill="#FFFFFF" d="M65.226,34.271c-2.338-0.059-4.373-2.1-10.684-3.602c-6.305-1.496-16.085-1.331-16.085-1.331
		c-6.338-0.245-6.077,5.86-6.077,5.86l-0.287,11.18c-0.415,6.418,1.204,8.38,2.864,9.008c2.312,0.879,3.672,0.095,5.373-1.279
		c1.708-1.379,4.217-1.563,3.928-0.068c-0.129,0.657-0.745,0.806-1.396,0.756c-0.969-0.067-2.063-0.166-2.509,0.148
		c-0.446,0.308,0.377,1.851,2.35,2.375c3.562,0.953,8.608,0.04,12.449-1.579c2.245-0.944,4.238-1.835,5.784-2.543
		c1.197-0.547,2.415-1.037,3.283-1.309h5.448c2.042,0,3.697-1.655,3.697-3.697V37.986c0-2.04-1.655-3.694-3.697-3.694h-3.699
		C65.669,34.283,65.416,34.275,65.226,34.271z M66.389,43.52h2.232v6.467h-2.232V43.52z"/>
	<path fill="#FFFFFF" d="M15.913,19.169c-0.745-0.448-1.713-0.207-2.16,0.54c-0.446,0.746-0.207,1.712,0.541,2.16l8.857,5.315
		c0.252,0.152,0.532,0.224,0.809,0.224c0.535,0,1.056-0.272,1.352-0.764c0.446-0.747,0.206-1.713-0.542-2.161L15.913,19.169z"/>
	<path fill="#FFFFFF" d="M42.625,19.169l-8.857,5.313c-0.747,0.447-0.987,1.415-0.542,2.161c0.298,0.493,0.818,0.764,1.35,0.764
		c0.277,0,0.558-0.072,0.812-0.225l8.857-5.314c0.744-0.448,0.983-1.415,0.538-2.16C44.338,18.962,43.372,18.721,42.625,19.169z"/>
	<path fill="#FFFFFF" d="M29.668,27.407c0.869,0,1.574-0.704,1.574-1.574V11.136c0-0.87-0.705-1.574-1.574-1.574
		c-0.869,0-1.575,0.704-1.575,1.574v14.697C28.093,26.703,28.799,27.407,29.668,27.407z"/>
</g>
</svg>
