<?xml version="1.0" encoding="utf-8"?>
<!-- Generator: Adobe Illustrator 15.0.0, SVG Export Plug-In . SVG Version: 6.00 Build 0)  -->
<!DOCTYPE svg PUBLIC "-//W3C//DTD SVG 1.1//EN" "http://www.w3.org/Graphics/SVG/1.1/DTD/svg11.dtd">
<svg version="1.1" id="Capa_1" xmlns="http://www.w3.org/2000/svg" xmlns:xlink="http://www.w3.org/1999/xlink" x="0px" y="0px"
	 width="60.312px" height="118.562px" viewBox="0 0 60.312 118.562" enable-background="new 0 0 60.312 118.562"
	 xml:space="preserve">
<path fill="#FFFFFF" d="M1.181,36.784c0,2.727,2.208,4.936,4.935,4.936h7.404v7.614c0,1.37,1.111,2.467,2.468,2.467
	c0.692,0,1.319-0.284,1.764-0.74l9.341-9.341h27.146c2.727,0,4.935-2.208,4.935-4.936V5.936C59.174,3.208,56.966,1,54.239,1H6.116
	C3.389,1,1.181,3.208,1.181,5.936V36.784L1.181,36.784z M15.987,22.594c0-1.703,1.382-3.085,3.085-3.085s3.084,1.382,3.084,3.085
	s-1.382,3.084-3.084,3.084S15.987,24.296,15.987,22.594z M27.093,22.594c0-1.703,1.382-3.085,3.084-3.085
	c1.703,0,3.085,1.382,3.085,3.085s-1.382,3.084-3.085,3.084C28.475,25.678,27.093,24.296,27.093,22.594z M38.198,22.594
	c0-1.703,1.382-3.085,3.085-3.085c1.703,0,3.084,1.382,3.084,3.085s-1.382,3.084-3.084,3.084
	C39.58,25.678,38.198,24.296,38.198,22.594z"/>
<path fill="#010101" d="M1.181,93.783c0,2.727,2.208,4.936,4.935,4.936h7.404v7.614c0,1.37,1.111,2.468,2.468,2.468
	c0.692,0,1.319-0.285,1.764-0.74l9.341-9.342h27.146c2.727,0,4.935-2.208,4.935-4.936V62.936c0-2.727-2.208-4.936-4.935-4.936H6.116
	c-2.727,0-4.935,2.208-4.935,4.936V93.783L1.181,93.783z M15.987,79.594c0-1.703,1.382-3.085,3.085-3.085s3.084,1.382,3.084,3.085
	s-1.382,3.084-3.084,3.084S15.987,81.297,15.987,79.594z M27.093,79.594c0-1.703,1.382-3.085,3.084-3.085
	c1.703,0,3.085,1.382,3.085,3.085s-1.382,3.084-3.085,3.084C28.475,82.678,27.093,81.297,27.093,79.594z M38.198,79.594
	c0-1.703,1.382-3.085,3.085-3.085c1.703,0,3.084,1.382,3.084,3.085s-1.382,3.084-3.084,3.084
	C39.58,82.678,38.198,81.297,38.198,79.594z"/>
</svg>
