<?xml version="1.0" encoding="utf-8"?>
<!-- Generator: Adobe Illustrator 15.0.0, SVG Export Plug-In . SVG Version: 6.00 Build 0)  -->
<!DOCTYPE svg PUBLIC "-//W3C//DTD SVG 1.1//EN" "http://www.w3.org/Graphics/SVG/1.1/DTD/svg11.dtd">
<svg version="1.1" id="Capa_1" xmlns="http://www.w3.org/2000/svg" xmlns:xlink="http://www.w3.org/1999/xlink" x="0px" y="0px"
	 width="71.312px" height="126.062px" viewBox="0 0 71.312 126.062" enable-background="new 0 0 71.312 126.062"
	 xml:space="preserve">
<path fill="#010002" d="M60.372,84.89c-1.939,0-3.513,1.574-3.513,3.505c0,1.932,1.573,3.505,3.513,3.505
	c1.932,0,3.505-1.573,3.505-3.505C63.877,86.465,62.303,84.89,60.372,84.89z M9.979,84.89c-1.939,0-3.513,1.574-3.513,3.505
	c0,1.932,1.573,3.505,3.513,3.505c1.935,0,3.508-1.573,3.508-3.505C13.488,86.465,11.914,84.89,9.979,84.89z M49.943,78.515
	c-2.878,0-5.212,2.337-5.212,5.22c0,2.871,2.334,5.209,5.212,5.209c2.879,0,5.217-2.338,5.217-5.209
	C55.16,80.856,52.814,78.515,49.943,78.515z M66.129,110.237h-5.943v-10.94c0-1.879-0.556-3.623-1.438-5.146
	c0.521-0.152,1.054-0.26,1.625-0.26c3.168,0,5.757,2.587,5.757,5.764V110.237z M20.403,78.515c-2.882,0-5.22,2.337-5.22,5.22
	c0,2.871,2.338,5.209,5.22,5.209c2.871,0,5.208-2.338,5.208-5.209C25.612,80.856,23.274,78.515,20.403,78.515z M9.979,93.891
	c0.566,0,1.095,0.107,1.622,0.26c-0.898,1.522-1.439,3.267-1.439,5.146v10.94H4.215V99.655C4.215,96.478,6.806,93.891,9.979,93.891z
	 M35.164,68.091c-4.247,0-7.71,3.46-7.71,7.71c0,4.254,3.46,7.719,7.71,7.719c4.258,0,7.718-3.465,7.718-7.719
	C42.885,71.551,39.422,68.091,35.164,68.091z M58.277,114.307h-9.109V97.664c0-2.289-0.601-4.417-1.58-6.326
	c0.744-0.221,1.528-0.377,2.348-0.377c4.595,0,8.342,3.735,8.342,8.336V114.307z M21.16,97.664v16.644h-9.089V99.297
	c0-4.593,3.735-8.336,8.337-8.336c0.82,0,1.595,0.156,2.341,0.377C21.771,93.247,21.16,95.375,21.16,97.664z M23.069,119.125H47.26
	V97.664c0-6.67-5.43-12.095-12.096-12.095c-6.674,0-12.095,5.425-12.095,12.095V119.125z"/>
<path fill="#FFFFFF" d="M60.372,24.556c-1.939,0-3.513,1.574-3.513,3.505c0,1.932,1.573,3.505,3.513,3.505
	c1.932,0,3.505-1.573,3.505-3.505C63.877,26.131,62.303,24.556,60.372,24.556z M9.979,24.556c-1.939,0-3.513,1.574-3.513,3.505
	c0,1.932,1.573,3.505,3.513,3.505c1.935,0,3.508-1.573,3.508-3.505C13.488,26.131,11.914,24.556,9.979,24.556z M49.943,18.181
	c-2.878,0-5.212,2.337-5.212,5.22c0,2.871,2.334,5.209,5.212,5.209c2.879,0,5.217-2.338,5.217-5.209
	C55.16,20.522,52.814,18.181,49.943,18.181z M66.129,49.903h-5.943v-10.94c0-1.879-0.556-3.623-1.438-5.146
	c0.521-0.152,1.054-0.26,1.625-0.26c3.168,0,5.757,2.587,5.757,5.764V49.903z M20.403,18.181c-2.882,0-5.22,2.337-5.22,5.22
	c0,2.871,2.338,5.209,5.22,5.209c2.871,0,5.208-2.338,5.208-5.209C25.612,20.522,23.274,18.181,20.403,18.181z M9.979,33.557
	c0.566,0,1.095,0.107,1.622,0.26c-0.898,1.522-1.439,3.267-1.439,5.146v10.94H4.215V39.321C4.215,36.144,6.806,33.557,9.979,33.557z
	 M35.164,7.757c-4.247,0-7.71,3.46-7.71,7.71c0,4.254,3.46,7.719,7.71,7.719c4.258,0,7.718-3.465,7.718-7.719
	C42.885,11.217,39.422,7.757,35.164,7.757z M58.277,53.973h-9.109V37.33c0-2.289-0.601-4.417-1.58-6.326
	c0.744-0.221,1.528-0.377,2.348-0.377c4.595,0,8.342,3.735,8.342,8.336V53.973z M21.16,37.33v16.644h-9.089V38.963
	c0-4.593,3.735-8.336,8.337-8.336c0.82,0,1.595,0.156,2.341,0.377C21.771,32.913,21.16,35.041,21.16,37.33z M23.069,58.791H47.26
	V37.33c0-6.67-5.43-12.095-12.096-12.095c-6.674,0-12.095,5.425-12.095,12.095V58.791z"/>
</svg>
