<?xml version="1.0" encoding="utf-8"?>
<!-- Generator: Adobe Illustrator 15.0.0, SVG Export Plug-In . SVG Version: 6.00 Build 0)  -->
<!DOCTYPE svg PUBLIC "-//W3C//DTD SVG 1.1//EN" "http://www.w3.org/Graphics/SVG/1.1/DTD/svg11.dtd">
<svg version="1.1" id="Capa_1" xmlns="http://www.w3.org/2000/svg" xmlns:xlink="http://www.w3.org/1999/xlink" x="0px" y="0px"
	 width="60.312px" height="118.562px" viewBox="0 0 60.312 118.562" enable-background="new 0 0 60.312 118.562"
	 xml:space="preserve">
<g id="layer1" transform="translate(0,-952.362)">
	<path id="rect7805-5" d="M20.954,1016.602c-1.689,0-3.378,1.689-3.378,3.379v3.378h23.648v-3.378c0-1.689-1.689-3.379-3.379-3.379
		H20.954z M17.576,1026.737v1.689c0,6.53,5.293,11.823,11.824,11.823c6.531,0,11.824-5.293,11.824-11.823v-1.689H17.576z
		 M14.197,1042.818c-5.067,0-6.756,2.77-6.756,7.837v20.27h9.079l23.014-28.106H14.197z M44.602,1042.818l-23.014,28.106h29.771
		v-20.27C51.358,1045.588,49.669,1042.818,44.602,1042.818z"/>
</g>
<g id="layer1_1_" transform="translate(0,-952.362)">
	<path id="rect7805-5_1_" fill="#FFFFFF" d="M20.954,956.089c-1.689,0-3.378,1.689-3.378,3.378v3.378h23.648v-3.378
		c0-1.689-1.689-3.378-3.379-3.378H20.954z M17.576,966.224v1.689c0,6.53,5.293,11.823,11.824,11.823
		c6.531,0,11.824-5.293,11.824-11.823v-1.689H17.576z M14.197,982.305c-5.067,0-6.756,2.77-6.756,7.837v20.269h9.079l23.014-28.106
		H14.197z M44.602,982.305l-23.014,28.106h29.771v-20.269C51.358,985.074,49.669,982.305,44.602,982.305z"/>
</g>
</svg>
