<?xml version="1.0" encoding="utf-8"?>
<!-- Generator: Adobe Illustrator 15.0.0, SVG Export Plug-In . SVG Version: 6.00 Build 0)  -->
<!DOCTYPE svg PUBLIC "-//W3C//DTD SVG 1.1//EN" "http://www.w3.org/Graphics/SVG/1.1/DTD/svg11.dtd">
<svg version="1.1" id="Capa_1" xmlns="http://www.w3.org/2000/svg" xmlns:xlink="http://www.w3.org/1999/xlink" x="0px" y="0px"
	 width="60.312px" height="118.562px" viewBox="0 0 60.312 118.562" enable-background="new 0 0 60.312 118.562"
	 xml:space="preserve">
<path d="M30.156,63.062c-15.302,0-27.75,12.448-27.75,27.75s12.448,27.75,27.75,27.75s27.75-12.448,27.75-27.75
	S45.458,63.062,30.156,63.062z M5.547,90.812c0-13.569,11.04-24.609,24.609-24.609v49.218
	C16.587,115.421,5.547,104.382,5.547,90.812z"/>
<path fill="#FFFFFF" d="M30.156-0.094c-15.302,0-27.75,12.448-27.75,27.75s12.448,27.75,27.75,27.75s27.75-12.448,27.75-27.75
	S45.458-0.094,30.156-0.094z M5.547,27.656c0-13.569,11.04-24.609,24.609-24.609v49.217C16.587,52.265,5.547,41.226,5.547,27.656z"
	/>
</svg>
