<?xml version="1.0" encoding="utf-8"?>
<!-- Generator: Adobe Illustrator 15.0.0, SVG Export Plug-In . SVG Version: 6.00 Build 0)  -->
<!DOCTYPE svg PUBLIC "-//W3C//DTD SVG 1.1//EN" "http://www.w3.org/Graphics/SVG/1.1/DTD/svg11.dtd">
<svg version="1.1" id="Capa_1" xmlns="http://www.w3.org/2000/svg" xmlns:xlink="http://www.w3.org/1999/xlink" x="0px" y="0px"
	 width="227.312px" height="145.062px" viewBox="0 0 227.312 145.062" enable-background="new 0 0 227.312 145.062"
	 xml:space="preserve">
<path d="M141.625,112.631c0-1.256-0.282-2.454-0.794-3.55c-0.054-0.279-0.114-0.558-0.189-0.839l-5.54-13.733l-0.037-0.123
	c-1.938-5.771-4.697-11.116-11.692-11.116H96.627c-7.168,0-9.701,5.476-11.682,11.084l-5.797,13.765
	c-0.838,1.342-1.314,2.879-1.314,4.511v4.273c0,0.66,0.078,1.308,0.227,1.931c-0.145,0.374-0.227,0.781-0.227,1.208v12.709
	c0,1.864,1.512,3.375,3.374,3.375h7.003c1.863,0,3.374-1.511,3.374-3.375v-6.355h36.688v6.355c0,1.864,1.512,3.375,3.375,3.375
	h6.602c1.863,0,3.375-1.511,3.375-3.375v-12.709c0-0.426-0.083-0.834-0.228-1.209c0.149-0.622,0.228-1.269,0.228-1.93V112.631
	L141.625,112.631z M89.057,95.731c2.207-6.225,3.981-8.125,7.57-8.125h26.743c3.562,0,5.545,2.119,7.561,8.098l4.044,8.195
	c-1.322-0.489-2.775-0.761-4.301-0.761H88.786c-1.374,0-2.688,0.223-3.9,0.622L89.057,95.731z M92.53,118.525h-7.388
	c-1.33,0-2.409-1.079-2.409-2.409s1.079-2.408,2.409-2.408h7.388c1.331,0,2.41,1.078,2.41,2.408S93.861,118.525,92.53,118.525z
	 M118.632,118.044h-17.187c-0.842,0-1.525-0.682-1.525-1.526c0-0.843,0.684-1.524,1.525-1.524h17.187
	c0.843,0,1.525,0.682,1.525,1.524C120.157,117.362,119.475,118.044,118.632,118.044z M134.132,118.525h-7.388
	c-1.333,0-2.409-1.079-2.409-2.409s1.079-2.408,2.409-2.408h7.388c1.332,0,2.409,1.078,2.409,2.408S135.462,118.525,134.132,118.525
	z"/>
<path fill="#FFFFFF" d="M141.625,48.797c0-1.255-0.282-2.453-0.794-3.549c-0.054-0.278-0.114-0.558-0.189-0.839l-5.54-13.733
	l-0.037-0.123c-1.938-5.772-4.697-11.116-11.692-11.116H96.627c-7.168,0-9.701,5.476-11.682,11.083l-5.797,13.765
	c-0.838,1.342-1.314,2.879-1.314,4.511v4.273c0,0.66,0.078,1.306,0.227,1.93c-0.145,0.375-0.227,0.781-0.227,1.208v12.709
	c0,1.864,1.512,3.375,3.374,3.375h7.003c1.863,0,3.374-1.511,3.374-3.375v-6.355h36.688v6.355c0,1.864,1.512,3.375,3.375,3.375
	h6.602c1.863,0,3.375-1.511,3.375-3.375V56.208c0-0.425-0.083-0.833-0.228-1.208c0.149-0.622,0.228-1.269,0.228-1.929V48.797
	L141.625,48.797z M89.057,31.899c2.207-6.226,3.981-8.125,7.57-8.125h26.743c3.562,0,5.545,2.119,7.561,8.098l4.044,8.195
	c-1.322-0.489-2.775-0.76-4.301-0.76H88.786c-1.374,0-2.688,0.221-3.9,0.621L89.057,31.899z M92.53,54.693h-7.388
	c-1.33,0-2.409-1.08-2.409-2.41s1.079-2.408,2.409-2.408h7.388c1.331,0,2.41,1.079,2.41,2.408
	C94.94,53.613,93.861,54.693,92.53,54.693z M118.632,54.211h-17.187c-0.842,0-1.525-0.683-1.525-1.526
	c0-0.843,0.684-1.525,1.525-1.525h17.187c0.843,0,1.525,0.683,1.525,1.525C120.157,53.529,119.475,54.211,118.632,54.211z
	 M134.132,54.693h-7.388c-1.333,0-2.409-1.08-2.409-2.41s1.079-2.408,2.409-2.408h7.388c1.332,0,2.409,1.079,2.409,2.408
	C136.541,53.613,135.462,54.693,134.132,54.693z"/>
</svg>
