<?xml version="1.0" encoding="utf-8"?>
<!-- Generator: Adobe Illustrator 15.0.0, SVG Export Plug-In . SVG Version: 6.00 Build 0)  -->
<!DOCTYPE svg PUBLIC "-//W3C//DTD SVG 1.1//EN" "http://www.w3.org/Graphics/SVG/1.1/DTD/svg11.dtd">
<svg version="1.1" id="Capa_1" xmlns="http://www.w3.org/2000/svg" xmlns:xlink="http://www.w3.org/1999/xlink" x="0px" y="0px"
	 width="71.312px" height="126.062px" viewBox="0 0 71.312 126.062" enable-background="new 0 0 71.312 126.062"
	 xml:space="preserve">
<path d="M66.834,95.631c0-1.256-0.282-2.454-0.794-3.55c-0.054-0.279-0.114-0.558-0.189-0.839l-5.54-13.733l-0.037-0.123
	c-1.938-5.771-4.697-11.116-11.692-11.116H21.836c-7.168,0-9.701,5.476-11.682,11.084L4.357,91.118
	c-0.838,1.342-1.314,2.879-1.314,4.511v4.273c0,0.66,0.078,1.308,0.227,1.931c-0.145,0.374-0.227,0.781-0.227,1.208v12.709
	c0,1.864,1.512,3.375,3.374,3.375h7.003c1.863,0,3.374-1.511,3.374-3.375v-6.355h36.688v6.355c0,1.864,1.512,3.375,3.375,3.375
	h6.602c1.863,0,3.375-1.511,3.375-3.375v-12.709c0-0.426-0.083-0.834-0.228-1.209c0.149-0.622,0.228-1.269,0.228-1.93V95.631
	L66.834,95.631z M14.266,78.731c2.207-6.225,3.981-8.125,7.57-8.125h26.743c3.562,0,5.545,2.119,7.561,8.098l4.044,8.195
	c-1.322-0.489-2.775-0.761-4.301-0.761H13.995c-1.374,0-2.688,0.223-3.9,0.622L14.266,78.731z M17.739,101.525h-7.388
	c-1.33,0-2.409-1.079-2.409-2.409s1.079-2.408,2.409-2.408h7.388c1.331,0,2.41,1.078,2.41,2.408S19.07,101.525,17.739,101.525z
	 M43.841,101.044H26.654c-0.842,0-1.525-0.682-1.525-1.526c0-0.843,0.684-1.524,1.525-1.524h17.187c0.843,0,1.525,0.682,1.525,1.524
	C45.366,100.362,44.684,101.044,43.841,101.044z M59.341,101.525h-7.388c-1.333,0-2.409-1.079-2.409-2.409s1.079-2.408,2.409-2.408
	h7.388c1.332,0,2.409,1.078,2.409,2.408S60.671,101.525,59.341,101.525z"/>
<path fill="#FFFFFF" d="M66.834,31.797c0-1.255-0.282-2.453-0.794-3.549c-0.054-0.278-0.114-0.558-0.189-0.839l-5.54-13.733
	l-0.037-0.123C58.335,7.781,55.576,2.437,48.581,2.437H21.836c-7.168,0-9.701,5.476-11.682,11.083L4.357,27.286
	c-0.838,1.342-1.314,2.879-1.314,4.511v4.273c0,0.66,0.078,1.306,0.227,1.93c-0.145,0.375-0.227,0.781-0.227,1.208v12.709
	c0,1.864,1.512,3.375,3.374,3.375h7.003c1.863,0,3.374-1.511,3.374-3.375v-6.355h36.688v6.355c0,1.864,1.512,3.375,3.375,3.375
	h6.602c1.863,0,3.375-1.511,3.375-3.375V39.208c0-0.425-0.083-0.833-0.228-1.208c0.149-0.622,0.228-1.269,0.228-1.929V31.797
	L66.834,31.797z M14.266,14.899c2.207-6.226,3.981-8.125,7.57-8.125h26.743c3.562,0,5.545,2.119,7.561,8.098l4.044,8.195
	c-1.322-0.489-2.775-0.76-4.301-0.76H13.995c-1.374,0-2.688,0.221-3.9,0.621L14.266,14.899z M17.739,37.693h-7.388
	c-1.33,0-2.409-1.08-2.409-2.41s1.079-2.408,2.409-2.408h7.388c1.331,0,2.41,1.079,2.41,2.408
	C20.149,36.613,19.07,37.693,17.739,37.693z M43.841,37.211H26.654c-0.842,0-1.525-0.683-1.525-1.526
	c0-0.843,0.684-1.525,1.525-1.525h17.187c0.843,0,1.525,0.683,1.525,1.525C45.366,36.529,44.684,37.211,43.841,37.211z
	 M59.341,37.693h-7.388c-1.333,0-2.409-1.08-2.409-2.41s1.079-2.408,2.409-2.408h7.388c1.332,0,2.409,1.079,2.409,2.408
	C61.75,36.613,60.671,37.693,59.341,37.693z"/>
</svg>
