<?xml version="1.0" encoding="utf-8"?>
<!-- Generator: Adobe Illustrator 15.0.0, SVG Export Plug-In . SVG Version: 6.00 Build 0)  -->
<!DOCTYPE svg PUBLIC "-//W3C//DTD SVG 1.1//EN" "http://www.w3.org/Graphics/SVG/1.1/DTD/svg11.dtd">
<svg version="1.1" id="Capa_1" xmlns="http://www.w3.org/2000/svg" xmlns:xlink="http://www.w3.org/1999/xlink" x="0px" y="0px"
	 width="88.333px" height="119.334px" viewBox="0 0 88.333 119.334" enable-background="new 0 0 88.333 119.334"
	 xml:space="preserve">
<path id="_x3C_Compound_Path_x3E__4_" d="M54.44,71.245c-2.186-6.428-5.586-10.578-9.421-10.578c-3.884,0-7.328,4.265-9.504,10.83
	c-2.047-0.419-3.987-0.657-5.724-0.657c-4.01,0-7.046,1.136-8.395,3.478c-1.963,3.401,0.08,8.587,4.793,13.812
	c-1.685,1.945-20.15,24.575,9.411,16.487c2.178,6.426,5.583,10.576,9.417,10.576c3.881,0,7.324-4.259,9.5-10.828
	c2.047,0.423,3.987,0.661,5.726,0.661c4.007,0,7.041-1.134,8.396-3.481c1.958-3.4-0.084-8.585-4.793-13.811
	C74.349,77.234,72.701,67.853,54.44,71.245z M24.346,76.021c0.642-1.112,2.675-1.774,5.444-1.778c1.462,0,3.08,0.193,4.781,0.529
	c-0.495,2.059-0.871,4.279-1.123,6.621c-1.815,1.383-3.48,2.811-4.949,4.255C24.755,81.441,23.353,77.743,24.346,76.021z
	 M33.133,90.062c-0.8-0.66-1.56-1.318-2.253-1.971c0.696-0.686,1.443-1.378,2.251-2.069c-0.021,0.634-0.042,1.263-0.042,1.906
	C33.089,88.649,33.11,89.356,33.133,90.062z M28.556,90.558c1.461,1.382,3.116,2.737,4.909,4.051c0.263,2.38,0.657,4.64,1.173,6.726
	C14.597,108.162,26.228,92.883,28.556,90.558z M52.792,78.699c-0.599-0.371-1.202-0.747-1.821-1.105
	c-0.673-0.387-1.346-0.738-2.018-1.094c1.074-0.417,2.13-0.792,3.164-1.114C52.375,76.43,52.602,77.535,52.792,78.699z
	 M45.019,64.07c1.944,0,4.38,2.919,6.153,8.036c-2.037,0.63-4.145,1.429-6.297,2.418c-2.079-0.902-4.114-1.636-6.078-2.21
	C40.572,67.07,43.048,64.07,45.019,64.07z M37.861,75.596c0.979,0.287,1.975,0.615,2.986,0.988
	c-0.669,0.369-1.336,0.734-2.005,1.135c-0.553,0.339-1.077,0.693-1.61,1.042C37.417,77.651,37.623,76.595,37.861,75.596z
	 M37.241,97.162c0.598,0.372,1.196,0.747,1.819,1.106c0.672,0.387,1.344,0.737,2.018,1.095c-1.074,0.419-2.126,0.795-3.162,1.111
	C37.658,99.433,37.437,98.328,37.241,97.162z M45.019,111.787c-1.946,0-4.381-2.915-6.151-8.035c2.032-0.626,4.14-1.425,6.291-2.412
	c2.078,0.904,4.113,1.635,6.077,2.211C49.459,108.79,46.988,111.787,45.019,111.787z M52.17,100.267
	c-0.98-0.286-1.972-0.612-2.982-0.99c0.664-0.371,1.335-0.734,2.002-1.137c0.555-0.339,1.076-0.696,1.615-1.044
	C52.624,98.206,52.409,99.266,52.17,100.267z M53.347,92.63c-1.247,0.897-2.554,1.762-3.921,2.593
	c-1.429,0.863-2.869,1.638-4.307,2.345c-1.459-0.68-2.914-1.422-4.354-2.253c-1.453-0.834-2.806-1.697-4.073-2.571
	c-0.121-1.532-0.197-3.13-0.197-4.813c0-1.633,0.07-3.189,0.191-4.685c1.225-0.88,2.514-1.757,3.919-2.603
	c1.424-0.866,2.867-1.641,4.307-2.348c1.457,0.683,2.917,1.42,4.354,2.251c1.459,0.842,2.806,1.703,4.072,2.575
	c0.124,1.532,0.2,3.132,0.2,4.808C53.54,89.569,53.466,91.13,53.347,92.63z M61.461,85.291c-1.459-1.372-3.105-2.726-4.895-4.033
	c-0.258-2.386-0.652-4.644-1.172-6.726C56.721,74.251,76.026,70.726,61.461,85.291z M56.897,85.803
	c0.804,0.658,1.561,1.321,2.26,1.972c-0.709,0.695-1.463,1.383-2.252,2.059c0.018-0.631,0.041-1.262,0.041-1.904
	C56.948,87.211,56.922,86.508,56.897,85.803z M65.683,99.844c-0.634,1.11-2.673,1.771-5.439,1.771c-1.468,0-3.081-0.191-4.782-0.528
	c0.498-2.06,0.872-4.289,1.125-6.633c1.812-1.382,3.464-2.811,4.932-4.254C65.272,94.413,66.681,98.119,65.683,99.844z"/>
<path id="_x3C_Compound_Path_x3E__1_" fill="#FFFFFF" d="M54.44,13.167c-2.186-6.428-5.586-10.578-9.421-10.578
	c-3.884,0-7.328,4.265-9.504,10.83c-2.047-0.419-3.987-0.657-5.724-0.657c-4.01,0-7.046,1.136-8.395,3.478
	c-1.963,3.401,0.08,8.587,4.793,13.812c-1.685,1.945-20.15,24.575,9.411,16.487c2.178,6.426,5.583,10.576,9.417,10.576
	c3.881,0,7.324-4.259,9.5-10.828c2.047,0.423,3.987,0.661,5.726,0.661c4.007,0,7.041-1.134,8.396-3.481
	c1.958-3.4-0.084-8.585-4.793-13.811C74.349,19.156,72.701,9.774,54.44,13.167z M24.346,17.943c0.642-1.112,2.675-1.774,5.444-1.778
	c1.462,0,3.08,0.193,4.781,0.529c-0.495,2.059-0.871,4.279-1.123,6.621c-1.815,1.383-3.48,2.811-4.949,4.255
	C24.755,23.363,23.353,19.665,24.346,17.943z M33.133,31.984c-0.8-0.66-1.56-1.318-2.253-1.971c0.696-0.686,1.443-1.378,2.251-2.069
	c-0.021,0.634-0.042,1.263-0.042,1.906C33.089,30.571,33.11,31.278,33.133,31.984z M28.556,32.479
	c1.461,1.382,3.116,2.737,4.909,4.051c0.263,2.38,0.657,4.64,1.173,6.726C14.597,50.084,26.228,34.805,28.556,32.479z
	 M52.792,20.621c-0.599-0.371-1.202-0.747-1.821-1.105c-0.673-0.387-1.346-0.738-2.018-1.094c1.074-0.417,2.13-0.792,3.164-1.114
	C52.375,18.352,52.602,19.457,52.792,20.621z M45.019,5.992c1.944,0,4.38,2.919,6.153,8.036c-2.037,0.63-4.145,1.429-6.297,2.418
	c-2.079-0.902-4.114-1.636-6.078-2.21C40.572,8.992,43.048,5.992,45.019,5.992z M37.861,17.518c0.979,0.287,1.975,0.615,2.986,0.988
	c-0.669,0.369-1.336,0.734-2.005,1.135c-0.553,0.339-1.077,0.693-1.61,1.042C37.417,19.573,37.623,18.517,37.861,17.518z
	 M37.241,39.084c0.598,0.372,1.196,0.747,1.819,1.106c0.672,0.387,1.344,0.737,2.018,1.095c-1.074,0.419-2.126,0.795-3.162,1.111
	C37.658,41.354,37.437,40.25,37.241,39.084z M45.019,53.709c-1.946,0-4.381-2.915-6.151-8.035c2.032-0.626,4.14-1.425,6.291-2.412
	c2.078,0.904,4.113,1.635,6.077,2.211C49.459,50.712,46.988,53.709,45.019,53.709z M52.17,42.188
	c-0.98-0.286-1.972-0.612-2.982-0.99c0.664-0.371,1.335-0.734,2.002-1.137c0.555-0.339,1.076-0.696,1.615-1.044
	C52.624,40.128,52.409,41.188,52.17,42.188z M53.347,34.552c-1.247,0.897-2.554,1.762-3.921,2.593
	c-1.429,0.863-2.869,1.638-4.307,2.345c-1.459-0.68-2.914-1.422-4.354-2.253c-1.453-0.834-2.806-1.697-4.073-2.571
	c-0.121-1.532-0.197-3.13-0.197-4.813c0-1.633,0.07-3.189,0.191-4.685c1.225-0.88,2.514-1.757,3.919-2.603
	c1.424-0.866,2.867-1.641,4.307-2.348c1.457,0.683,2.917,1.42,4.354,2.251c1.459,0.842,2.806,1.703,4.072,2.575
	c0.124,1.532,0.2,3.132,0.2,4.808C53.54,31.491,53.466,33.052,53.347,34.552z M61.461,27.213c-1.459-1.372-3.105-2.726-4.895-4.033
	c-0.258-2.386-0.652-4.644-1.172-6.726C56.721,16.173,76.026,12.647,61.461,27.213z M56.897,27.725
	c0.804,0.658,1.561,1.321,2.26,1.972c-0.709,0.695-1.463,1.383-2.252,2.059c0.018-0.631,0.041-1.262,0.041-1.904
	C56.948,29.133,56.922,28.43,56.897,27.725z M65.683,41.766c-0.634,1.11-2.673,1.771-5.439,1.771c-1.468,0-3.081-0.191-4.782-0.528
	c0.498-2.06,0.872-4.289,1.125-6.633c1.812-1.382,3.464-2.811,4.932-4.254C65.272,36.335,66.681,40.041,65.683,41.766z"/>
</svg>
