<?xml version="1.0" encoding="utf-8"?>
<!-- Generator: Adobe Illustrator 15.0.0, SVG Export Plug-In . SVG Version: 6.00 Build 0)  -->
<!DOCTYPE svg PUBLIC "-//W3C//DTD SVG 1.1//EN" "http://www.w3.org/Graphics/SVG/1.1/DTD/svg11.dtd">
<svg version="1.1" id="Capa_1" xmlns="http://www.w3.org/2000/svg" xmlns:xlink="http://www.w3.org/1999/xlink" x="0px" y="0px"
	 width="88.333px" height="119.334px" viewBox="-14.688 9.562 88.333 119.334"
	 enable-background="new -14.688 9.562 88.333 119.334" xml:space="preserve">
<path d="M66.892,77.864v22.249c0,0-4.765,0.938-5.742,1.06c-0.977,0.122-4.049,1.115-6.279-1.026
	c-3.434-3.291-15.638-15.425-15.638-15.425s-2.103-2.065-5.482-0.282c-3.101,1.638-7.699,4.03-9.617,4.964
	c-0.685,0.475-1.513,0.756-2.408,0.756c-2.335,0-4.226-1.888-4.226-4.224c0-1.811,1.146-3.343,2.745-3.944
	c4.378-2.652,13.606-7.831,17.448-9.874c2.335-1.242,4.022-1.35,7.227,1.35c3.95,3.324,7.464,6.353,7.464,6.353
	s1.656,0.839,2.973,0.574C59.637,79.532,66.892,77.864,66.892,77.864z M18.324,115.56c0.591-1.518,0.394-3.218-0.74-4.38
	c-1.019-1.047-2.502-1.322-3.921-0.997c0.396-1.402,0.178-2.898-0.848-3.952c-1.021-1.044-2.502-1.32-3.921-0.994
	c0.393-1.402,0.175-2.896-0.848-3.953c-1.602-1.645-4.379-1.573-6.198,0.166c-1.815,1.739-2.977,4.889-1.358,6.74
	c1.617,1.845,3.471,0.727,4.887,0.4c-0.392,1.402-1.574,2.708-0.122,4.547c1.451,1.838,3.471,0.726,4.887,0.4
	c-0.395,1.401-1.524,2.837-0.124,4.54c1.408,1.709,3.717,0.801,5.24,0.326c-0.588,1.513-1.845,3.141-0.229,4.974
	c1.615,1.839,5.348,0.985,7.171-0.756c1.818-1.739,1.993-4.494,0.391-6.145C21.49,115.345,19.842,115.085,18.324,115.56z
	 M51.591,103.983c-13.178-13.179-6.979-6.979-14.07-14.084c0,0-2.136-2.122-4.946-0.889c-1.968,0.864-4.509,2.043-6.421,2.942
	c-2.103,1.099-3.94,1.436-4.318,1.436c-4.059,0-7.35-3.287-7.35-7.343c0-2.633,1.397-4.921,3.477-6.219
	c2.929-2.028,9.669-5.614,9.669-5.614s-2.052-2.604-6.552-2.604S7.188,77.771,7.188,77.771s-2.665,1.703-6.464,0.166L-6.6,75.386
	v25.456c0,0,2.089,0.607,3.968,1.372c0.428-1.206,1.108-2.327,2.061-3.249c3.118-2.971,8.283-3.001,11.12-0.083
	c0.854,0.886,1.451,1.949,1.756,3.116c1.144,0.354,2.176,0.98,3.01,1.836c0.857,0.878,1.451,1.943,1.758,3.111
	c1.145,0.353,2.174,0.979,3.008,1.835c0.941,0.969,1.566,2.143,1.86,3.412c1.192,0.348,2.274,0.991,3.143,1.883
	c1.702,1.75,2.306,4.124,1.939,6.418c0.003,0.002,0.008,0.002,0.011,0.008c0.029,0.033,1.057,1.185,1.699,1.827
	c1.257,1.259,3.307,1.259,4.565,0c1.253-1.259,1.259-3.307,0-4.565c-0.044-0.044-0.102-0.055-0.149-0.097
	c0.005-0.011,0.017-0.024,0.017-0.041c-4.239-4.24-4.458-4.547-4.04-4.969c0.418-0.42,1.04,0.508,5.79,5.253
	c0.033,0.036,0.094,0.053,0.16,0.074c0.088,0.116,0.127,0.263,0.234,0.37c1.256,1.259,3.307,1.259,4.563,0s1.259-3.307,0-4.565
	c-0.055-0.056-0.132-0.083-0.19-0.133c-0.075-0.091-0.127-0.177-0.221-0.271c-4.326-4.325-4.823-5.148-4.491-5.479
	c0.375-0.378,2.396,1.836,6.702,6.142c0.014,0,0.03-0.008,0.044-0.008c1.264,1.143,3.213,1.132,4.433-0.086
	c1.184-1.187,1.212-3.059,0.16-4.322c-0.022-0.069-0.014-0.154-0.061-0.204c-5.455-5.455-5.223-5.537-4.892-5.869
	c0.334-0.331,0.354-0.353,5.698,4.991h0.005c0.011,0.011,0.011,0.027,0.022,0.038c1.253,1.259,3.307,1.259,4.565,0
	c1.253-1.259,1.256-3.307,0-4.565C51.632,104.005,51.607,104,51.591,103.983z"/>
<path fill="#FFFFFF" d="M66.892,19.197v22.249c0,0-4.765,0.938-5.742,1.06c-0.977,0.122-4.049,1.115-6.279-1.026
	c-3.434-3.291-15.638-15.425-15.638-15.425s-2.103-2.065-5.482-0.282c-3.101,1.638-7.699,4.03-9.617,4.964
	c-0.685,0.475-1.513,0.756-2.408,0.756c-2.335,0-4.226-1.888-4.226-4.224c0-1.811,1.146-3.343,2.745-3.944
	c4.378-2.652,13.606-7.831,17.448-9.874c2.335-1.242,4.022-1.35,7.227,1.35c3.95,3.324,7.464,6.353,7.464,6.353
	s1.656,0.839,2.973,0.574C59.637,20.865,66.892,19.197,66.892,19.197z M18.324,56.893c0.591-1.518,0.394-3.218-0.74-4.38
	c-1.019-1.047-2.502-1.322-3.921-0.997c0.396-1.402,0.178-2.898-0.848-3.952c-1.021-1.044-2.502-1.32-3.921-0.994
	c0.393-1.402,0.175-2.896-0.848-3.953c-1.602-1.645-4.379-1.573-6.198,0.166c-1.815,1.739-2.977,4.889-1.358,6.74
	c1.617,1.845,3.471,0.727,4.887,0.4c-0.392,1.402-1.574,2.708-0.122,4.547c1.451,1.838,3.471,0.726,4.887,0.4
	c-0.395,1.401-1.524,2.837-0.124,4.54c1.408,1.709,3.717,0.801,5.24,0.326c-0.588,1.513-1.845,3.141-0.229,4.974
	c1.615,1.839,5.348,0.985,7.171-0.756c1.818-1.739,1.993-4.494,0.391-6.145C21.49,56.678,19.842,56.418,18.324,56.893z
	 M51.591,45.316c-13.178-13.179-6.979-6.979-14.07-14.084c0,0-2.136-2.122-4.946-0.889c-1.968,0.864-4.509,2.043-6.421,2.942
	c-2.103,1.099-3.94,1.436-4.318,1.436c-4.059,0-7.35-3.287-7.35-7.343c0-2.633,1.397-4.921,3.477-6.219
	c2.929-2.028,9.669-5.614,9.669-5.614s-2.052-2.604-6.552-2.604S7.188,19.104,7.188,19.104s-2.665,1.703-6.464,0.166L-6.6,16.719
	v25.456c0,0,2.089,0.607,3.968,1.372c0.428-1.206,1.108-2.327,2.061-3.249c3.118-2.971,8.283-3.001,11.12-0.083
	c0.854,0.886,1.451,1.949,1.756,3.116c1.144,0.354,2.176,0.98,3.01,1.836c0.857,0.878,1.451,1.943,1.758,3.111
	c1.145,0.353,2.174,0.979,3.008,1.835c0.941,0.969,1.566,2.143,1.86,3.412c1.192,0.348,2.274,0.991,3.143,1.883
	c1.702,1.75,2.306,4.124,1.939,6.418c0.003,0.002,0.008,0.002,0.011,0.008c0.029,0.033,1.057,1.185,1.699,1.827
	c1.257,1.259,3.307,1.259,4.565,0c1.253-1.259,1.259-3.307,0-4.565c-0.044-0.044-0.102-0.055-0.149-0.097
	c0.005-0.011,0.017-0.024,0.017-0.041c-4.239-4.24-4.458-4.547-4.04-4.969c0.418-0.42,1.04,0.508,5.79,5.253
	c0.033,0.036,0.094,0.053,0.16,0.074c0.088,0.116,0.127,0.263,0.234,0.37c1.256,1.259,3.307,1.259,4.563,0s1.259-3.307,0-4.565
	c-0.055-0.056-0.132-0.083-0.19-0.133c-0.075-0.091-0.127-0.177-0.221-0.271c-4.326-4.325-4.823-5.148-4.491-5.479
	c0.375-0.378,2.396,1.836,6.702,6.142c0.014,0,0.03-0.008,0.044-0.008c1.264,1.143,3.213,1.132,4.433-0.086
	c1.184-1.187,1.212-3.059,0.16-4.322c-0.022-0.069-0.014-0.154-0.061-0.204c-5.455-5.455-5.223-5.537-4.892-5.869
	c0.334-0.331,0.354-0.353,5.698,4.991h0.005c0.011,0.011,0.011,0.027,0.022,0.038c1.253,1.259,3.307,1.259,4.565,0
	c1.253-1.259,1.256-3.307,0-4.565C51.632,45.338,51.607,45.333,51.591,45.316z"/>
</svg>
