<?xml version="1.0" encoding="utf-8"?>
<!-- Generator: Adobe Illustrator 15.0.0, SVG Export Plug-In . SVG Version: 6.00 Build 0)  -->
<!DOCTYPE svg PUBLIC "-//W3C//DTD SVG 1.1//EN" "http://www.w3.org/Graphics/SVG/1.1/DTD/svg11.dtd">
<svg version="1.1" id="Capa_1" xmlns="http://www.w3.org/2000/svg" xmlns:xlink="http://www.w3.org/1999/xlink" x="0px" y="0px"
	 width="60.312px" height="118.562px" viewBox="0 0 60.312 118.562" enable-background="new 0 0 60.312 118.562"
	 xml:space="preserve">
<path d="M50.38,74.115c1.491,26.113-20.132,38.496-20.141,38.501v0.149c0,0-21.631-12.382-20.139-38.501
	c11.372-2.276,20.136-8.894,20.139-8.896l0.234-0.15C30.474,65.22,39.005,71.839,50.38,74.115z M30.857,117.652
	c-0.031,0.023-0.063,0.045-0.096,0.065c-0.165,0.095-0.35,0.144-0.534,0.144c-0.174,0-0.346-0.046-0.502-0.135
	c-0.266-0.152-6.568-3.804-12.731-11.312C11.298,99.477,4.703,87.821,5.625,71.69c0.027-0.472,0.368-0.866,0.832-0.959
	c12.842-2.571,22.745-9.916,23.161-10.227c0.016-0.012,0.033-0.024,0.049-0.037l0.252-0.17c0.371-0.25,0.861-0.235,1.215,0.039
	c0.099,0.075,9.981,7.635,22.892,10.22c0.461,0.093,0.804,0.486,0.83,0.957C56.604,102.108,32.91,116.474,30.857,117.652z
	 M52.824,72.426c-11.293-2.448-19.985-8.289-22.34-9.988c-1.872,1.34-11.095,7.62-22.828,10.163
	c-1.112,26.623,19.048,40.744,22.578,43.005C33.622,113.501,53.979,99.683,52.824,72.426z"/>
<path fill="#FFFFFF" d="M50.38,14.406C51.872,40.52,30.248,52.902,30.24,52.907v0.15c0,0-21.631-12.383-20.139-38.501
	C21.473,12.279,30.236,5.663,30.24,5.66l0.234-0.15C30.474,5.511,39.005,12.13,50.38,14.406z M30.857,57.943
	c-0.031,0.024-0.063,0.046-0.096,0.066c-0.165,0.094-0.35,0.144-0.534,0.144c-0.174,0-0.346-0.046-0.502-0.135
	c-0.266-0.151-6.568-3.804-12.731-11.312C11.298,39.768,4.703,28.112,5.625,11.982c0.027-0.472,0.368-0.866,0.832-0.958
	C19.298,8.452,29.201,1.107,29.617,0.796c0.016-0.012,0.033-0.024,0.049-0.036l0.252-0.17c0.371-0.25,0.861-0.235,1.215,0.04
	c0.099,0.075,9.981,7.635,22.892,10.22c0.461,0.093,0.804,0.486,0.83,0.957C56.604,42.4,32.91,56.765,30.857,57.943z M52.824,12.717
	c-11.293-2.448-19.985-8.289-22.34-9.988c-1.872,1.341-11.095,7.62-22.828,10.163C6.544,39.515,26.705,53.636,30.234,55.896
	C33.622,53.792,53.979,39.974,52.824,12.717z"/>
</svg>
