<?xml version="1.0" encoding="utf-8"?>
<!-- Generator: Adobe Illustrator 15.0.0, SVG Export Plug-In . SVG Version: 6.00 Build 0)  -->
<!DOCTYPE svg PUBLIC "-//W3C//DTD SVG 1.1//EN" "http://www.w3.org/Graphics/SVG/1.1/DTD/svg11.dtd">
<svg version="1.1" id="Capa_1" xmlns="http://www.w3.org/2000/svg" xmlns:xlink="http://www.w3.org/1999/xlink" x="0px" y="0px"
	 width="60.312px" height="118.562px" viewBox="0 0 60.312 118.562" enable-background="new 0 0 60.312 118.562"
	 xml:space="preserve">
<g>
	<path d="M28.07,88.299V61.223c-0.002,0-0.004,0-0.006,0C13.114,61.223,1,73.341,1,88.288c0,7.491,3.04,14.27,7.955,19.169
		l19.159-19.158H28.07z"/>
	<path d="M11.236,110.687c4.898,4.882,11.652,7.903,19.112,7.903c14.944,0,27.062-12.114,27.066-27.061H30.397L11.236,110.687z"/>
	<path d="M31.685,61.223v27.076h27.062v-0.011C58.747,73.346,46.629,61.229,31.685,61.223z"/>
</g>
<g>
	<path fill="#FFFFFF" d="M28.07,28.049V0.973c-0.002,0-0.004,0-0.006,0C13.114,0.973,1,13.091,1,28.038
		c0,7.491,3.04,14.27,7.955,19.169l19.159-19.158H28.07z"/>
	<path fill="#FFFFFF" d="M11.236,50.437c4.898,4.882,11.652,7.903,19.112,7.903c14.944,0,27.062-12.114,27.066-27.061H30.397
		L11.236,50.437z"/>
	<path fill="#FFFFFF" d="M31.685,0.973v27.076h27.062v-0.011C58.747,13.096,46.629,0.979,31.685,0.973z"/>
</g>
</svg>
