<?xml version="1.0" encoding="utf-8"?>
<!-- Generator: Adobe Illustrator 15.0.0, SVG Export Plug-In . SVG Version: 6.00 Build 0)  -->
<!DOCTYPE svg PUBLIC "-//W3C//DTD SVG 1.1//EN" "http://www.w3.org/Graphics/SVG/1.1/DTD/svg11.dtd">
<svg version="1.1" id="Capa_1" xmlns="http://www.w3.org/2000/svg" xmlns:xlink="http://www.w3.org/1999/xlink" x="0px" y="0px"
	 width="60.312px" height="116.312px" viewBox="0 0 60.312 116.312" enable-background="new 0 0 60.312 116.312"
	 xml:space="preserve">
<path fill="#FFFFFF" d="M15.531,52.871c-0.231,0-0.452-0.085-0.621-0.248L4.791,42.477c-0.335-0.333-0.335-0.879,0-1.219
	L14.91,31.099c0.248-0.244,0.621-0.321,0.944-0.185c0.325,0.124,0.532,0.447,0.532,0.798v6.284h27.734
	c0.766,0,1.393-0.625,1.393-1.389v-7.072c0-0.23,0.089-0.449,0.246-0.613l6.773-6.799c0.246-0.246,0.623-0.325,0.944-0.189
	c0.325,0.137,0.536,0.457,0.536,0.802v15.372c0,5.49-2.9,8.39-8.388,8.39H16.39v5.516c0,0.345-0.208,0.66-0.533,0.788
	C15.753,52.847,15.634,52.871,15.531,52.871z"/>
<path fill="#FFFFFF" d="M6.974,34.771c-0.114,0-0.224-0.026-0.33-0.069c-0.325-0.132-0.537-0.442-0.537-0.796V18.535
	c0-5.493,2.895-8.387,8.388-8.387h29.25V4.618c0-0.343,0.209-0.659,0.532-0.8c0.329-0.127,0.695-0.065,0.946,0.191l10.114,10.139
	c0.337,0.337,0.337,0.887,0,1.223L45.224,25.523c-0.248,0.252-0.617,0.329-0.946,0.19c-0.321-0.131-0.532-0.45-0.532-0.803v-6.268
	H15.994c-0.763,0-1.381,0.624-1.381,1.392v7.073c0,0.229-0.089,0.443-0.257,0.615l-6.776,6.79
	C7.419,34.678,7.204,34.771,6.974,34.771z"/>
<path d="M15.531,106.621c-0.231,0-0.452-0.086-0.621-0.248L4.791,96.227c-0.335-0.333-0.335-0.879,0-1.219L14.91,84.85
	c0.248-0.244,0.621-0.322,0.944-0.186c0.325,0.124,0.532,0.447,0.532,0.799v6.283h27.734c0.766,0,1.393-0.625,1.393-1.389v-7.072
	c0-0.23,0.089-0.449,0.246-0.613l6.773-6.799c0.246-0.246,0.623-0.325,0.944-0.189c0.325,0.138,0.536,0.457,0.536,0.803v15.371
	c0,5.49-2.9,8.391-8.388,8.391H16.39v5.516c0,0.346-0.208,0.66-0.533,0.789C15.753,106.597,15.634,106.621,15.531,106.621z"/>
<path d="M6.974,88.521c-0.114,0-0.224-0.027-0.33-0.07c-0.325-0.131-0.537-0.441-0.537-0.795V72.285
	c0-5.492,2.895-8.387,8.388-8.387h29.25v-5.531c0-0.343,0.209-0.659,0.532-0.8c0.329-0.127,0.695-0.065,0.946,0.191l10.114,10.139
	c0.337,0.337,0.337,0.888,0,1.223L45.224,79.273c-0.248,0.252-0.617,0.328-0.946,0.189c-0.321-0.131-0.532-0.45-0.532-0.803v-6.269
	H15.994c-0.763,0-1.381,0.624-1.381,1.392v7.072c0,0.229-0.089,0.443-0.257,0.615l-6.776,6.79
	C7.419,88.428,7.204,88.521,6.974,88.521z"/>
</svg>
