<?xml version="1.0" encoding="utf-8"?>
<!-- Generator: Adobe Illustrator 15.0.0, SVG Export Plug-In . SVG Version: 6.00 Build 0)  -->
<!DOCTYPE svg PUBLIC "-//W3C//DTD SVG 1.1//EN" "http://www.w3.org/Graphics/SVG/1.1/DTD/svg11.dtd">
<svg version="1.1" id="Capa_1" xmlns="http://www.w3.org/2000/svg" xmlns:xlink="http://www.w3.org/1999/xlink" x="0px" y="0px"
	 width="68.75px" height="132.584px" viewBox="-3.938 -3.688 68.75 132.584" enable-background="new -3.938 -3.688 68.75 132.584"
	 xml:space="preserve">
<path d="M22.759,95.444l-12.164,0.033c0.175-3.098,1.354-6.141,3.536-8.61L22.759,95.444z M10.596,97.188
	c0.194,3.09,1.395,6.125,3.592,8.592l8.578-8.622L10.596,97.188z M23.93,82.062c-3.09,0.194-6.124,1.393-8.587,3.592l8.62,8.573
	L23.93,82.062z M15.401,106.983c2.47,2.181,5.514,3.361,8.61,3.537l-0.033-12.164L15.401,106.983z M25.724,110.521
	c3.086-0.191,6.124-1.395,8.587-3.592l-8.623-8.575L25.724,110.521z M39.055,95.396c-0.195-3.09-1.39-6.124-3.592-8.589
	l-8.575,8.623L39.055,95.396z M25.641,82.062l0.034,12.162l8.577-8.625C31.783,83.42,28.739,82.241,25.641,82.062z M35.518,105.719
	c2.181-2.47,3.361-5.515,3.537-8.61l-12.164,0.033L35.518,105.719z M55.938,122.836l-4.392,4.416L39.01,114.788l1.098-1.104
	l-2.591-2.571c-3.534,3.037-7.979,4.704-12.689,4.704c-5.192,0-10.083-2.017-13.766-5.677c-3.695-3.678-5.743-8.576-5.755-13.789
	c-0.015-5.216,2.002-10.122,5.679-13.82c3.047-3.067,6.935-4.973,11.143-5.554c-1.74-4.812-8.046-7.074-8.116-7.099l1.014-2.945
	c0.284,0.096,5.064,1.802,8.134,5.628c0.182-1.534,0.875-5.195,3.446-6.981c3.297-2.292,8.429-0.61,8.429-0.61
	s-0.213,5.397-3.51,7.689c-2.546,1.77-6.178,1.171-7.704,0.806c0.663,0.99,1.202,2.091,1.528,3.332
	c4.998,0.132,9.684,2.115,13.243,5.654c3.698,3.675,5.744,8.573,5.753,13.788c0.017,4.691-1.627,9.124-4.635,12.661l2.588,2.576
	l1.098-1.104L55.938,122.836z M36.461,107.859c3.09-3.105,4.787-7.233,4.775-11.615c-0.015-4.381-1.733-8.498-4.839-11.586
	c-3.096-3.08-7.205-4.773-11.57-4.773c-4.399,0-8.532,1.72-11.637,4.84c-3.09,3.108-4.784,7.234-4.771,11.615
	c0.014,4.382,1.73,8.5,4.838,11.59c3.094,3.078,7.202,4.771,11.566,4.771C29.228,112.701,33.358,110.983,36.461,107.859z"/>
<path fill="#FFFFFF" d="M22.759,29.057L10.596,29.09c0.175-3.098,1.354-6.141,3.536-8.61L22.759,29.057z M10.596,30.8
	c0.194,3.09,1.395,6.125,3.592,8.592l8.578-8.622L10.596,30.8z M23.93,15.675c-3.09,0.194-6.124,1.393-8.587,3.592l8.62,8.573
	L23.93,15.675z M15.401,40.596c2.47,2.181,5.514,3.361,8.61,3.537l-0.033-12.164L15.401,40.596z M25.724,44.133
	c3.086-0.191,6.124-1.395,8.587-3.592l-8.623-8.575L25.724,44.133z M39.055,29.008c-0.195-3.09-1.39-6.124-3.592-8.589l-8.575,8.623
	L39.055,29.008z M25.641,15.675l0.034,12.162l8.577-8.625C31.783,17.032,28.739,15.854,25.641,15.675z M35.518,39.331
	c2.181-2.47,3.361-5.515,3.537-8.61l-12.164,0.033L35.518,39.331z M55.938,56.448l-4.392,4.416L39.01,48.4l1.098-1.104l-2.591-2.571
	c-3.534,3.037-7.979,4.704-12.689,4.704c-5.192,0-10.083-2.017-13.766-5.677c-3.695-3.678-5.743-8.576-5.755-13.789
	c-0.015-5.216,2.002-10.122,5.679-13.82c3.047-3.067,6.935-4.973,11.143-5.554c-1.74-4.812-8.046-7.074-8.116-7.099l1.014-2.945
	c0.284,0.096,5.064,1.802,8.134,5.628c0.182-1.534,0.875-5.195,3.446-6.981c3.297-2.292,8.429-0.61,8.429-0.61
	s-0.213,5.397-3.51,7.689c-2.546,1.77-6.178,1.171-7.704,0.806c0.663,0.99,1.202,2.091,1.528,3.332
	c4.998,0.132,9.684,2.115,13.243,5.654c3.698,3.675,5.744,8.573,5.753,13.788c0.017,4.691-1.627,9.124-4.635,12.661l2.588,2.576
	l1.098-1.104L55.938,56.448z M36.461,41.472c3.09-3.105,4.787-7.233,4.775-11.615c-0.015-4.381-1.733-8.498-4.839-11.586
	c-3.096-3.08-7.205-4.773-11.57-4.773c-4.399,0-8.532,1.72-11.637,4.84c-3.09,3.108-4.784,7.234-4.771,11.615
	c0.014,4.382,1.73,8.5,4.838,11.59c3.094,3.078,7.202,4.771,11.566,4.771C29.228,46.313,33.358,44.596,36.461,41.472z"/>
</svg>
