<?xml version="1.0" encoding="utf-8"?>
<!-- Generator: Adobe Illustrator 15.0.0, SVG Export Plug-In . SVG Version: 6.00 Build 0)  -->
<!DOCTYPE svg PUBLIC "-//W3C//DTD SVG 1.1//EN" "http://www.w3.org/Graphics/SVG/1.1/DTD/svg11.dtd">
<svg version="1.1" id="Capa_1" xmlns="http://www.w3.org/2000/svg" xmlns:xlink="http://www.w3.org/1999/xlink" x="0px" y="0px"
	 width="68.75px" height="132.584px" viewBox="0 0 68.75 132.584" enable-background="new 0 0 68.75 132.584" xml:space="preserve">
<g>
	<title>Layer 1</title>
	<g id="svg_12">
		<path id="svg_13_1_" fill="none" stroke="#000000" stroke-width="3" stroke-linejoin="round" d="M34.607,91.919l13.697-15.216
			c0.942-1.045,2.531-1.108,3.554-0.143l13.772,13.03c1.021,0.966,1.087,2.596,0.146,3.641l-29.304,32.552
			c-0.941,1.046-2.531,1.109-3.553,0.143l-7.043-6.661"/>
		<path id="svg_14" fill="none" stroke="#000000" stroke-width="3" d="M34.808,94.073l15.161,14.342"/>
	</g>
	<g id="layer1" transform="rotate(20, 286, 534)">
		<path id="rect1872" fill="none" stroke="#000000" stroke-width="3" stroke-linejoin="round" d="M-123.575,189.116l18.945-0.759
			c1.404-0.057,2.589,1.036,2.645,2.441l1.756,43.763c0.056,1.403-1.037,2.587-2.441,2.645l-18.945,0.759
			c-1.405,0.057-2.588-1.036-2.646-2.441l-1.755-43.763C-126.073,190.356-124.979,189.173-123.575,189.116z"/>
		<path id="path15666" fill="none" stroke="#000000" stroke-width="3" d="M-123.548,213.579l20.851-0.837"/>
	</g>
	<g id="layer2" transform="rotate(21.0888, 250, 579.637)">
		<circle id="circle58" cx="-138.179" cy="198.717" r="2.125"/>
		<circle id="circle60" cx="-142.878" cy="229.97" r="2.19"/>
		<circle id="circle62" cx="-136.864" cy="223.415" r="2.19"/>
		<circle id="circle64" cx="-130.851" cy="216.86" r="2.19"/>
	</g>
</g>
<g>
	<title>Layer 1</title>
	<g id="svg_12_1_">
		<path id="svg_13_2_" fill="none" stroke="#FFFFFF" stroke-width="3" stroke-linejoin="round" d="M33.95,25.731l13.698-15.217
			c0.942-1.044,2.531-1.109,3.554-0.142l13.772,13.029c1.022,0.967,1.087,2.597,0.146,3.642L35.815,59.595
			c-0.941,1.045-2.531,1.109-3.552,0.143l-7.038-6.658"/>
		<path id="svg_14_1_" fill="none" stroke="#FFFFFF" stroke-width="3" d="M34.152,27.884l15.16,14.342"/>
	</g>
	<g id="layer1_1_" transform="rotate(20, 286, 534)">
		<path id="rect1872_1_" fill="none" stroke="#FFFFFF" stroke-width="3" stroke-linejoin="round" d="M-146.828,127.144l18.944-0.76
			c1.405-0.057,2.59,1.037,2.645,2.44l1.756,43.764c0.056,1.403-1.036,2.588-2.44,2.645l-18.945,0.759
			c-1.404,0.057-2.588-1.035-2.645-2.441l-1.756-43.762C-149.325,128.384-148.232,127.2-146.828,127.144z"/>
		<path id="path15666_1_" fill="none" stroke="#FFFFFF" stroke-width="3" d="M-146.802,151.606l20.851-0.836"/>
	</g>
	<g id="layer2_1_" transform="rotate(21.0888, 250, 579.637)">
		<circle id="circle58_1_" fill="#FFFFFF" cx="-162.606" cy="137.198" r="2.125"/>
		<circle id="circle60_1_" fill="#FFFFFF" cx="-167.305" cy="168.45" r="2.191"/>
		<circle id="circle62_1_" fill="#FFFFFF" cx="-161.291" cy="161.896" r="2.19"/>
		<circle id="circle64_1_" fill="#FFFFFF" cx="-155.278" cy="155.34" r="2.19"/>
	</g>
</g>
</svg>
