<?xml version="1.0" encoding="utf-8"?>
<!-- Generator: Adobe Illustrator 15.0.0, SVG Export Plug-In . SVG Version: 6.00 Build 0)  -->
<!DOCTYPE svg PUBLIC "-//W3C//DTD SVG 1.1//EN" "http://www.w3.org/Graphics/SVG/1.1/DTD/svg11.dtd">
<svg version="1.1" id="Capa_1" xmlns="http://www.w3.org/2000/svg" xmlns:xlink="http://www.w3.org/1999/xlink" x="0px" y="0px"
	 width="103.625px" height="125.125px" viewBox="-36.459 -31.337 103.625 125.125"
	 enable-background="new -36.459 -31.337 103.625 125.125" xml:space="preserve">
<path d="M15.695,34.349c-15.703,0-28.479,12.776-28.479,28.479c0,15.705,12.776,28.481,28.479,28.481
	c15.705,0,28.48-12.775,28.48-28.481C44.178,47.126,31.4,34.349,15.695,34.349z M15.695,84.31c-11.843,0-21.479-9.637-21.479-21.481
	c0-11.844,9.637-21.479,21.479-21.479c11.846,0,21.48,9.637,21.48,21.479C37.178,74.673,27.541,84.31,15.695,84.31z"/>
<path d="M15.695,46.46c-9.024,0-16.368,7.344-16.368,16.368c0,9.026,7.344,16.369,16.368,16.369c9.027,0,16.369-7.343,16.369-16.369
	S24.723,46.46,15.695,46.46z M15.695,75.175c-6.807,0-12.345-5.537-12.345-12.347c0-6.808,5.539-12.346,12.345-12.346
	c6.81,0,12.347,5.538,12.347,12.346S22.505,75.175,15.695,75.175z"/>
<circle cx="15.695" cy="62.829" r="5.5"/>
<path fill="#FFFFFF" d="M15.695-28.942c-15.703,0-28.479,12.776-28.479,28.479c0,15.706,12.776,28.481,28.479,28.481
	c15.705,0,28.48-12.775,28.48-28.481C44.178-16.165,31.4-28.942,15.695-28.942z M15.695,21.019
	c-11.843,0-21.479-9.637-21.479-21.481c0-11.844,9.637-21.479,21.479-21.479c11.846,0,21.48,9.637,21.48,21.479
	C37.178,11.382,27.541,21.019,15.695,21.019z"/>
<path fill="#FFFFFF" d="M15.695-16.831c-9.024,0-16.368,7.344-16.368,16.368c0,9.026,7.344,16.37,16.368,16.37
	c9.027,0,16.369-7.343,16.369-16.37S24.723-16.831,15.695-16.831z M15.695,11.884C8.889,11.884,3.35,6.347,3.35-0.462
	c0-6.808,5.539-12.346,12.345-12.346c6.81,0,12.347,5.538,12.347,12.346S22.505,11.884,15.695,11.884z"/>
<circle fill="#FFFFFF" cx="15.695" cy="-0.461" r="5.5"/>
</svg>
