<?xml version="1.0" encoding="utf-8"?>
<!-- Generator: Adobe Illustrator 15.0.0, SVG Export Plug-In . SVG Version: 6.00 Build 0)  -->
<!DOCTYPE svg PUBLIC "-//W3C//DTD SVG 1.1//EN" "http://www.w3.org/Graphics/SVG/1.1/DTD/svg11.dtd">
<svg version="1.1" id="Capa_1" xmlns="http://www.w3.org/2000/svg" xmlns:xlink="http://www.w3.org/1999/xlink" x="0px" y="0px"
	 width="66.312px" height="125.125px" viewBox="0 0 66.312 125.125" enable-background="new 0 0 66.312 125.125"
	 xml:space="preserve">
<path d="M32.479,63.291C16.776,63.291,4,76.066,4,91.77c0,15.705,12.776,28.48,28.479,28.48c15.705,0,28.48-12.773,28.48-28.48
	C60.962,76.068,48.184,63.291,32.479,63.291z M32.479,113.252c-11.843,0-21.479-9.637-21.479-21.48
	c0-11.846,9.637-21.48,21.479-21.48c11.846,0,21.48,9.637,21.48,21.48C53.963,103.615,44.325,113.252,32.479,113.252z"/>
<path d="M32.479,75.402c-9.024,0-16.368,7.344-16.368,16.367c0,9.025,7.344,16.369,16.368,16.369
	c9.027,0,16.369-7.344,16.369-16.369S41.507,75.402,32.479,75.402z M32.479,104.117c-6.807,0-12.345-5.537-12.345-12.348
	c0-6.809,5.539-12.346,12.345-12.346c6.81,0,12.347,5.537,12.347,12.346S39.289,104.117,32.479,104.117z"/>
<circle cx="32.479" cy="91.771" r="5.5"/>
<path fill="#FFFFFF" d="M32.479,0C16.776,0,4,12.776,4,28.479C4,44.185,16.776,56.96,32.479,56.96
	c15.705,0,28.48-12.775,28.48-28.481C60.962,12.777,48.184,0,32.479,0z M32.479,49.961C20.636,49.961,11,40.324,11,28.48
	c0-11.844,9.637-21.479,21.479-21.479c11.846,0,21.48,9.637,21.48,21.479C53.963,40.324,44.325,49.961,32.479,49.961z"/>
<path fill="#FFFFFF" d="M32.479,12.111c-9.024,0-16.368,7.344-16.368,16.368c0,9.026,7.344,16.37,16.368,16.37
	c9.027,0,16.369-7.343,16.369-16.37C48.848,19.452,41.507,12.111,32.479,12.111z M32.479,40.826
	c-6.806,0-12.345-5.537-12.345-12.346c0-6.808,5.539-12.346,12.345-12.346c6.81,0,12.347,5.538,12.347,12.346
	S39.289,40.826,32.479,40.826z"/>
<circle fill="#FFFFFF" cx="32.479" cy="28.481" r="5.5"/>
</svg>
