<?xml version="1.0" encoding="utf-8"?>
<!-- Generator: Adobe Illustrator 15.0.0, SVG Export Plug-In . SVG Version: 6.00 Build 0)  -->
<!DOCTYPE svg PUBLIC "-//W3C//DTD SVG 1.1//EN" "http://www.w3.org/Graphics/SVG/1.1/DTD/svg11.dtd">
<svg version="1.1" id="Capa_1" xmlns="http://www.w3.org/2000/svg" xmlns:xlink="http://www.w3.org/1999/xlink" x="0px" y="0px"
	 width="103.625px" height="125.125px" viewBox="-36.459 -31.337 103.625 125.125"
	 enable-background="new -36.459 -31.337 103.625 125.125" xml:space="preserve">
<path fill="#FFFFFF" d="M57.808-30.295c-3.513,0-6.359,2.847-6.359,6.356c0,0.994,0.22,1.929,0.629,2.761
	c-0.195,1.802-1.001,2.642-1.884,3c-0.841-0.466-1.8-0.729-2.835-0.729c-2.166,0-4.065,1.188-5.049,2.964
	c-0.874,0.403-1.988,0.617-2.686-0.397c0.034-0.41,0.059-0.83,0.059-1.242c0-6.5-5.27-11.766-11.766-11.766
	c-6.488,0-11.751,5.269-11.751,11.766c0,4.026,2.025,7.578,5.113,9.703c0.95,2.37-0.32,3.997-1.5,4.923
	c-4.093,0.281-7.317,3.63-7.408,7.765c-1.463,2.541-3.472,2.397-4.96,1.769C6.059,4.321,3.604,2.812,0.787,2.812
	c-0.626,0-1.259,0.073-1.85,0.223c-0.438-0.424-0.845-1.103-0.95-2.214c0.896-1.193,1.422-2.668,1.422-4.276
	c0-2.415-1.2-4.551-3.036-5.843c-0.044-1.007,0.179-2.593,1.651-3.875c0.254,0.033,0.513,0.05,0.764,0.05
	c3.618,0,6.552-2.936,6.552-6.544c0-3.615-2.934-6.542-6.552-6.542c-3.613,0-6.533,2.928-6.533,6.542
	c0,2.115,0.997,3.997,2.561,5.193c0,1.147-0.284,2.898-1.833,3.913c-0.238-0.026-0.486-0.041-0.726-0.041
	c-3.459,0-6.341,2.456-7.01,5.718c-1.295,0.547-2.718,0.065-3.628-0.385c-1.072-2.871-3.859-4.913-7.1-4.913
	c-4.194,0-7.587,3.396-7.587,7.584c0,4.189,3.394,7.592,7.587,7.592c3.778,0,6.909-2.761,7.485-6.38
	c1.239-0.743,2.515-0.448,3.387-0.054c0.868,2.97,3.614,5.145,6.867,5.145c0.794,0,1.564-0.134,2.271-0.372
	c0.577,0.201,1.141,0.567,1.344,1.265c-1.689,1.411-2.764,3.53-2.764,5.9c0,4.24,3.447,7.686,7.676,7.686
	c4.25,0,7.691-3.445,7.691-7.686c0-0.073,0-0.155,0-0.231c1.416-1.729,3.534-1.546,5.089-1.075c1.406,2.267,3.904,3.769,6.768,3.769
	c1.061,0,2.074-0.201,2.997-0.58c1.304,0.422,2.718,1.436,3.14,3.794c-0.818,1.332-1.295,2.893-1.295,4.563
	c0,4.768,3.854,8.635,8.626,8.635c4.771,0,8.632-3.867,8.632-8.635c0-4.766-3.861-8.632-8.632-8.632
	c-0.168,0-0.336,0.006-0.495,0.018l0,0l0,0c-0.77,0.04-1.503,0.189-2.205,0.416c-1.641,0-3.58-0.825-3.284-4.82
	c0.321-0.846,0.489-1.766,0.489-2.728c0-2.438-1.103-4.623-2.838-6.082c-0.739-2.499,0.501-3.963,1.735-4.757
	c0.244,0.012,0.474,0.026,0.718,0.026c4.976,0,9.23-3.088,10.947-7.445c0.846-0.219,1.885-0.194,2.743,0.704
	c0.28,2.937,2.752,5.223,5.754,5.223c0.08,0,0.156,0,0.217-0.006c0.91,1.044,1.051,2.292,0.963,3.259
	c-1.292,1.042-2.133,2.641-2.133,4.432c0,3.14,2.557,5.693,5.69,5.693c3.141,0,5.712-2.554,5.712-5.693
	c0-3.146-2.571-5.689-5.712-5.689c-0.188,0-0.391,0.003-0.586,0.031c-1.631-0.822-1.436-2.054-0.978-2.97
	c1.582-1.042,2.621-2.823,2.621-4.838c0-0.93-0.224-1.812-0.614-2.59c0.525-1.576,2.025-2.08,3.204-2.211
	c0.642,0.222,1.332,0.347,2.064,0.347c3.491,0,6.339-2.85,6.339-6.358C64.152-27.445,61.302-30.295,57.808-30.295z M-5.919-19.67
	c0-2.608,2.111-4.727,4.71-4.727c2.621,0,4.736,2.119,4.736,4.727c0,2.605-2.115,4.724-4.736,4.724
	C-3.812-14.943-5.919-17.064-5.919-19.67z M-25.481,2.812c-2.986,0-5.408-2.424-5.408-5.411s2.422-5.408,5.408-5.408
	c2.984,0,5.405,2.424,5.405,5.408C-20.08,0.392-22.498,2.812-25.481,2.812z M-13.282-3.449c0-3.056,2.474-5.536,5.54-5.536
	c3.048,0,5.539,2.48,5.539,5.536c0,3.059-2.491,5.541-5.539,5.541C-10.808,2.092-13.282-0.39-13.282-3.449z M0.779,15.922
	c-2.986,0-5.42-2.428-5.42-5.428c0-2.996,2.435-5.434,5.42-5.434c3.01,0,5.446,2.435,5.446,5.434
	C6.226,13.494,3.79,15.922,0.779,15.922z M14.827,4.993c0-3.036,2.46-5.5,5.502-5.5c3.039,0,5.495,2.463,5.495,5.5
	s-2.456,5.504-5.495,5.504C17.287,10.497,14.827,8.026,14.827,4.993z M40.437,20.736c0,3.674-2.972,6.641-6.64,6.641
	c-3.663,0-6.641-2.967-6.641-6.641c0-3.666,2.978-6.641,6.641-6.641C37.465,14.096,40.437,17.07,40.437,20.736z M27.914-8.009
	c-5.294,0-9.576-4.286-9.576-9.571c0-5.295,4.282-9.581,9.576-9.581c5.287,0,9.581,4.286,9.581,9.581
	C37.502-12.292,33.201-8.009,27.914-8.009z M56.085,0.345c0,2.199-1.777,3.989-3.983,3.989c-2.192,0-3.974-1.79-3.974-3.989
	c0-2.2,1.781-3.985,3.974-3.985C54.308-3.64,56.085-1.855,56.085,0.345z M47.358-8.985c-2.281,0-4.127-1.851-4.127-4.137
	c0-2.285,1.846-4.145,4.127-4.145c2.294,0,4.139,1.86,4.139,4.145C51.497-10.836,49.652-8.985,47.358-8.985z M57.808-19.213
	c-2.614,0-4.729-2.114-4.729-4.725c0-2.608,2.114-4.724,4.729-4.724c2.597,0,4.716,2.115,4.716,4.724
	C62.523-21.327,60.404-19.213,57.808-19.213z"/>
<path d="M57.808,31.955c-3.513,0-6.359,2.847-6.359,6.356c0,0.994,0.22,1.929,0.629,2.762c-0.195,1.802-1.001,2.642-1.884,2.999
	c-0.841-0.466-1.8-0.729-2.835-0.729c-2.166,0-4.065,1.188-5.049,2.964c-0.874,0.404-1.988,0.617-2.686-0.396
	c0.034-0.41,0.059-0.83,0.059-1.242c0-6.5-5.27-11.766-11.766-11.766c-6.488,0-11.751,5.27-11.751,11.766
	c0,4.026,2.025,7.578,5.113,9.703c0.95,2.37-0.32,3.996-1.5,4.924c-4.093,0.281-7.317,3.63-7.408,7.765
	c-1.463,2.541-3.472,2.397-4.96,1.769c-1.352-2.258-3.806-3.767-6.624-3.767c-0.626,0-1.259,0.073-1.85,0.223
	c-0.438-0.424-0.845-1.103-0.95-2.214c0.896-1.193,1.422-2.668,1.422-4.276c0-2.415-1.2-4.552-3.036-5.843
	c-0.044-1.008,0.179-2.594,1.651-3.875c0.254,0.033,0.513,0.051,0.764,0.051c3.618,0,6.552-2.936,6.552-6.545
	c0-3.615-2.934-6.543-6.552-6.543c-3.613,0-6.533,2.928-6.533,6.543c0,2.115,0.997,3.997,2.561,5.193
	c0,1.146-0.284,2.898-1.833,3.912c-0.238-0.025-0.486-0.041-0.726-0.041c-3.459,0-6.341,2.455-7.01,5.718
	c-1.295,0.547-2.718,0.065-3.628-0.385c-1.072-2.871-3.859-4.913-7.1-4.913c-4.194,0-7.587,3.396-7.587,7.584
	c0,4.189,3.394,7.592,7.587,7.592c3.778,0,6.909-2.761,7.485-6.381c1.239-0.742,2.515-0.447,3.387-0.053
	c0.868,2.97,3.614,5.145,6.867,5.145c0.794,0,1.564-0.134,2.271-0.372c0.577,0.201,1.141,0.567,1.344,1.265
	c-1.689,1.411-2.764,3.53-2.764,5.9c0,4.24,3.447,7.686,7.676,7.686c4.25,0,7.691-3.445,7.691-7.686c0-0.073,0-0.155,0-0.231
	c1.416-1.729,3.534-1.546,5.089-1.075c1.406,2.267,3.904,3.769,6.768,3.769c1.061,0,2.074-0.201,2.997-0.58
	c1.304,0.422,2.718,1.436,3.14,3.794c-0.818,1.332-1.295,2.893-1.295,4.563c0,4.768,3.854,8.635,8.626,8.635
	c4.771,0,8.632-3.867,8.632-8.635c0-4.766-3.861-8.632-8.632-8.632c-0.168,0-0.336,0.006-0.495,0.018l0,0l0,0
	c-0.77,0.04-1.503,0.189-2.205,0.416c-1.641,0-3.58-0.825-3.284-4.82c0.321-0.846,0.489-1.766,0.489-2.728
	c0-2.438-1.103-4.623-2.838-6.081c-0.739-2.499,0.501-3.963,1.735-4.758c0.244,0.012,0.474,0.026,0.718,0.026
	c4.976,0,9.23-3.089,10.947-7.445c0.846-0.219,1.885-0.194,2.743,0.704c0.28,2.937,2.752,5.223,5.754,5.223
	c0.08,0,0.156,0,0.217-0.006c0.91,1.045,1.051,2.293,0.963,3.26c-1.292,1.041-2.133,2.641-2.133,4.432
	c0,3.14,2.557,5.693,5.69,5.693c3.141,0,5.712-2.554,5.712-5.693c0-3.146-2.571-5.689-5.712-5.689c-0.188,0-0.391,0.004-0.586,0.031
	c-1.631-0.822-1.436-2.055-0.978-2.971c1.582-1.042,2.621-2.822,2.621-4.838c0-0.931-0.224-1.812-0.614-2.591
	c0.525-1.576,2.025-2.08,3.204-2.212c0.642,0.223,1.332,0.348,2.064,0.348c3.491,0,6.339-2.85,6.339-6.358
	C64.152,34.805,61.302,31.955,57.808,31.955z M-5.919,42.58c0-2.608,2.111-4.728,4.71-4.728c2.621,0,4.736,2.119,4.736,4.728
	c0,2.605-2.115,4.724-4.736,4.724C-3.812,47.307-5.919,45.186-5.919,42.58z M-25.481,65.062c-2.986,0-5.408-2.424-5.408-5.411
	s2.422-5.408,5.408-5.408c2.984,0,5.405,2.424,5.405,5.408C-20.08,62.642-22.498,65.062-25.481,65.062z M-13.282,58.801
	c0-3.056,2.474-5.536,5.54-5.536c3.048,0,5.539,2.48,5.539,5.536c0,3.06-2.491,5.541-5.539,5.541
	C-10.808,64.342-13.282,61.86-13.282,58.801z M0.779,78.172c-2.986,0-5.42-2.428-5.42-5.428c0-2.996,2.435-5.434,5.42-5.434
	c3.01,0,5.446,2.435,5.446,5.434C6.226,75.744,3.79,78.172,0.779,78.172z M14.827,67.243c0-3.036,2.46-5.5,5.502-5.5
	c3.039,0,5.495,2.464,5.495,5.5s-2.456,5.504-5.495,5.504C17.287,72.747,14.827,70.276,14.827,67.243z M40.437,82.986
	c0,3.674-2.972,6.641-6.64,6.641c-3.663,0-6.641-2.967-6.641-6.641c0-3.666,2.978-6.641,6.641-6.641
	C37.465,76.346,40.437,79.32,40.437,82.986z M27.914,54.241c-5.294,0-9.576-4.286-9.576-9.572c0-5.295,4.282-9.58,9.576-9.58
	c5.287,0,9.581,4.285,9.581,9.58C37.502,49.958,33.201,54.241,27.914,54.241z M56.085,62.595c0,2.199-1.777,3.989-3.983,3.989
	c-2.192,0-3.974-1.79-3.974-3.989s1.781-3.984,3.974-3.984C54.308,58.61,56.085,60.396,56.085,62.595z M47.358,53.265
	c-2.281,0-4.127-1.852-4.127-4.137s1.846-4.146,4.127-4.146c2.294,0,4.139,1.86,4.139,4.146S49.652,53.265,47.358,53.265z
	 M57.808,43.036c-2.614,0-4.729-2.113-4.729-4.725c0-2.608,2.114-4.724,4.729-4.724c2.597,0,4.716,2.115,4.716,4.724
	C62.523,40.923,60.404,43.036,57.808,43.036z"/>
</svg>
