<?xml version="1.0" encoding="utf-8"?>
<!-- Generator: Adobe Illustrator 15.0.0, SVG Export Plug-In . SVG Version: 6.00 Build 0)  -->
<!DOCTYPE svg PUBLIC "-//W3C//DTD SVG 1.1//EN" "http://www.w3.org/Graphics/SVG/1.1/DTD/svg11.dtd">
<svg version="1.1" id="Capa_1" xmlns="http://www.w3.org/2000/svg" xmlns:xlink="http://www.w3.org/1999/xlink" x="0px" y="0px"
	 width="106px" height="131.031px" viewBox="14 0 106 131.031" enable-background="new 14 0 106 131.031" xml:space="preserve">
<path fill="#FFFFFF" d="M109.877,4c-3.514,0-6.359,2.848-6.359,6.356c0,0.994,0.219,1.929,0.629,2.761
	c-0.194,1.802-1.002,2.642-1.885,3c-0.84-0.466-1.799-0.729-2.834-0.729c-2.166,0-4.066,1.188-5.049,2.964
	c-0.875,0.402-1.988,0.616-2.688-0.397c0.035-0.41,0.061-0.83,0.061-1.242c0-6.5-5.271-11.766-11.768-11.766
	c-6.486,0-11.75,5.269-11.75,11.766c0,4.026,2.024,7.578,5.112,9.703c0.95,2.37-0.319,3.997-1.5,4.923
	c-4.093,0.281-7.317,3.63-7.407,7.766c-1.463,2.541-3.473,2.396-4.961,1.769c-1.352-2.257-3.807-3.766-6.623-3.766
	c-0.626,0-1.26,0.073-1.851,0.223c-0.438-0.424-0.845-1.103-0.95-2.214c0.896-1.193,1.422-2.668,1.422-4.276
	c0-2.415-1.2-4.551-3.036-5.843c-0.044-1.007,0.179-2.593,1.651-3.875c0.254,0.033,0.513,0.05,0.764,0.05
	c3.619,0,6.552-2.936,6.552-6.544c0-3.614-2.934-6.542-6.552-6.542c-3.613,0-6.533,2.929-6.533,6.542
	c0,2.115,0.997,3.997,2.561,5.193c0,1.146-0.284,2.897-1.833,3.913c-0.238-0.026-0.486-0.041-0.726-0.041
	c-3.459,0-6.341,2.456-7.01,5.718c-1.295,0.547-2.718,0.065-3.628-0.385c-1.072-2.871-3.859-4.913-7.1-4.913
	c-4.194,0-7.587,3.396-7.587,7.584s3.394,7.592,7.587,7.592c3.778,0,6.909-2.761,7.485-6.38c1.239-0.743,2.515-0.448,3.387-0.054
	C38.327,35.825,41.073,38,44.326,38c0.794,0,1.564-0.134,2.271-0.372c0.577,0.201,1.141,0.567,1.344,1.266
	c-1.689,1.411-2.764,3.529-2.764,5.899c0,4.24,3.447,7.687,7.677,7.687c4.25,0,7.69-3.445,7.69-7.687c0-0.072,0-0.154,0-0.23
	c1.416-1.729,3.534-1.546,5.089-1.075c1.406,2.267,3.904,3.769,6.768,3.769c1.062,0,2.074-0.2,2.998-0.58
	c1.303,0.423,2.717,1.437,3.141,3.795c-0.818,1.331-1.297,2.893-1.297,4.562c0,4.768,3.855,8.635,8.627,8.635
	s8.633-3.867,8.633-8.635c0-4.766-3.861-8.632-8.633-8.632c-0.168,0-0.336,0.006-0.494,0.018l0,0l0,0
	c-0.771,0.04-1.504,0.189-2.205,0.416c-1.643,0-3.58-0.825-3.285-4.819c0.322-0.847,0.49-1.767,0.49-2.729
	c0-2.438-1.104-4.623-2.84-6.082c-0.738-2.499,0.502-3.963,1.736-4.757c0.244,0.012,0.473,0.026,0.717,0.026
	c4.977,0,9.23-3.089,10.947-7.445c0.846-0.219,1.884-0.194,2.744,0.704c0.279,2.937,2.752,5.223,5.754,5.223
	c0.08,0,0.156,0,0.217-0.006c0.91,1.044,1.052,2.292,0.963,3.259c-1.293,1.042-2.133,2.642-2.133,4.433
	c0,3.14,2.558,5.692,5.689,5.692c3.141,0,5.713-2.554,5.713-5.692c0-3.146-2.572-5.689-5.713-5.689
	c-0.188,0-0.391,0.003-0.586,0.031c-1.631-0.822-1.436-2.054-0.979-2.97c1.582-1.042,2.621-2.823,2.621-4.839
	c0-0.93-0.224-1.812-0.613-2.59c0.525-1.576,2.025-2.08,3.203-2.211c0.643,0.223,1.332,0.348,2.063,0.348
	c3.492,0,6.341-2.851,6.341-6.358C116.221,6.85,113.369,4,109.877,4z M46.149,14.625c0-2.607,2.111-4.727,4.71-4.727
	c2.622,0,4.736,2.119,4.736,4.727c0,2.605-2.114,4.725-4.736,4.725C48.256,19.352,46.149,17.231,46.149,14.625z M26.587,37.107
	c-2.986,0-5.408-2.424-5.408-5.411s2.422-5.408,5.408-5.408c2.984,0,5.405,2.424,5.405,5.408
	C31.988,34.687,29.57,37.107,26.587,37.107z M38.786,30.846c0-3.057,2.474-5.536,5.54-5.536c3.048,0,5.539,2.479,5.539,5.536
	c0,3.059-2.491,5.541-5.539,5.541C41.26,36.387,38.786,33.905,38.786,30.846z M52.847,50.217c-2.986,0-5.42-2.428-5.42-5.428
	c0-2.996,2.435-5.434,5.42-5.434c3.011,0,5.446,2.435,5.446,5.434C58.294,47.789,55.857,50.217,52.847,50.217z M66.895,39.288
	c0-3.036,2.461-5.5,5.502-5.5c3.039,0,5.496,2.463,5.496,5.5s-2.457,5.504-5.496,5.504C69.355,44.792,66.895,42.321,66.895,39.288z
	 M92.506,55.031c0,3.674-2.973,6.641-6.641,6.641c-3.664,0-6.641-2.967-6.641-6.641c0-3.666,2.977-6.641,6.641-6.641
	C89.533,48.391,92.506,51.365,92.506,55.031z M79.982,26.286c-5.295,0-9.576-4.286-9.576-9.571c0-5.295,4.281-9.581,9.576-9.581
	c5.287,0,9.58,4.286,9.58,9.581C89.57,22.003,85.27,26.286,79.982,26.286z M108.152,34.64c0,2.198-1.775,3.988-3.982,3.988
	c-2.191,0-3.975-1.79-3.975-3.988c0-2.2,1.781-3.985,3.975-3.985C106.377,30.655,108.152,32.44,108.152,34.64z M99.426,25.31
	c-2.281,0-4.127-1.852-4.127-4.138c0-2.284,1.846-4.145,4.127-4.145c2.295,0,4.139,1.86,4.139,4.145
	C103.564,23.459,101.721,25.31,99.426,25.31z M109.877,15.082c-2.615,0-4.73-2.114-4.73-4.725c0-2.608,2.115-4.725,4.73-4.725
	c2.596,0,4.715,2.115,4.715,4.725C114.592,12.968,112.473,15.082,109.877,15.082z"/>
<path d="M109.877,66.25c-3.514,0-6.359,2.848-6.359,6.355c0,0.994,0.219,1.93,0.629,2.763c-0.194,1.802-1.002,2.642-1.885,2.999
	c-0.84-0.467-1.799-0.729-2.834-0.729c-2.166,0-4.066,1.188-5.049,2.964c-0.875,0.403-1.988,0.616-2.688-0.396
	c0.035-0.41,0.061-0.83,0.061-1.242c0-6.5-5.271-11.767-11.768-11.767c-6.486,0-11.75,5.271-11.75,11.767
	c0,4.026,2.024,7.578,5.112,9.703c0.95,2.37-0.319,3.996-1.5,4.924c-4.093,0.281-7.317,3.631-7.407,7.766
	c-1.463,2.541-3.473,2.396-4.961,1.77c-1.352-2.258-3.806-3.768-6.623-3.768c-0.626,0-1.26,0.073-1.851,0.224
	c-0.438-0.425-0.845-1.103-0.95-2.214c0.896-1.193,1.422-2.668,1.422-4.276c0-2.415-1.2-4.552-3.036-5.843
	c-0.044-1.008,0.179-2.594,1.651-3.875c0.254,0.033,0.513,0.051,0.764,0.051c3.619,0,6.552-2.936,6.552-6.545
	c0-3.614-2.934-6.543-6.552-6.543c-3.613,0-6.533,2.929-6.533,6.543c0,2.115,0.997,3.997,2.561,5.193
	c0,1.146-0.284,2.897-1.833,3.912c-0.238-0.025-0.486-0.041-0.726-0.041c-3.459,0-6.341,2.455-7.01,5.718
	c-1.295,0.547-2.718,0.065-3.628-0.386c-1.072-2.871-3.859-4.912-7.1-4.912c-4.194,0-7.587,3.396-7.587,7.584
	c0,4.188,3.394,7.592,7.587,7.592c3.778,0,6.909-2.762,7.485-6.381c1.239-0.742,2.515-0.447,3.387-0.053
	c0.868,2.969,3.614,5.145,6.867,5.145c0.794,0,1.564-0.135,2.271-0.372c0.577,0.201,1.141,0.567,1.344,1.266
	c-1.689,1.411-2.764,3.529-2.764,5.899c0,4.24,3.447,7.687,7.677,7.687c4.25,0,7.69-3.444,7.69-7.687c0-0.072,0-0.154,0-0.229
	c1.416-1.729,3.534-1.547,5.089-1.076c1.406,2.268,3.904,3.77,6.768,3.77c1.062,0,2.074-0.2,2.998-0.579
	c1.303,0.422,2.717,1.436,3.141,3.794c-0.818,1.332-1.297,2.894-1.297,4.562c0,4.769,3.855,8.635,8.627,8.635
	s8.633-3.866,8.633-8.635c0-4.766-3.861-8.633-8.633-8.633c-0.168,0-0.336,0.006-0.494,0.019l0,0l0,0
	c-0.771,0.04-1.504,0.188-2.205,0.416c-1.643,0-3.58-0.824-3.285-4.818c0.322-0.848,0.49-1.768,0.49-2.729
	c0-2.438-1.104-4.623-2.84-6.081c-0.738-2.499,0.502-3.963,1.736-4.759c0.244,0.013,0.473,0.027,0.717,0.027
	c4.977,0,9.23-3.091,10.947-7.445c0.846-0.219,1.885-0.194,2.745,0.703c0.278,2.938,2.752,5.224,5.754,5.224
	c0.08,0,0.155,0,0.217-0.007c0.91,1.046,1.051,2.294,0.963,3.261c-1.293,1.041-2.133,2.643-2.133,4.434
	c0,3.139,2.557,5.691,5.688,5.691c3.142,0,5.713-2.554,5.713-5.691c0-3.146-2.571-5.689-5.713-5.689
	c-0.188,0-0.392,0.004-0.586,0.031c-1.631-0.822-1.437-2.056-0.979-2.972c1.582-1.042,2.621-2.821,2.621-4.839
	c0-0.931-0.223-1.812-0.613-2.591c0.525-1.576,2.025-2.08,3.203-2.212c0.644,0.224,1.332,0.349,2.064,0.349
	c3.492,0,6.34-2.851,6.34-6.358C116.221,69.1,113.369,66.25,109.877,66.25z M46.149,76.875c0-2.606,2.111-4.729,4.71-4.729
	c2.622,0,4.736,2.119,4.736,4.729c0,2.605-2.114,4.726-4.736,4.726C48.256,81.602,46.149,79.48,46.149,76.875z M26.587,99.357
	c-2.986,0-5.408-2.424-5.408-5.412c0-2.986,2.422-5.407,5.408-5.407c2.984,0,5.405,2.424,5.405,5.407
	C31.988,96.938,29.57,99.357,26.587,99.357z M38.786,93.096c0-3.057,2.474-5.535,5.54-5.535c3.048,0,5.539,2.479,5.539,5.535
	c0,3.061-2.491,5.541-5.539,5.541C41.26,98.637,38.786,96.154,38.786,93.096z M52.847,112.467c-2.986,0-5.42-2.428-5.42-5.428
	c0-2.996,2.435-5.434,5.42-5.434c3.011,0,5.446,2.435,5.446,5.434C58.294,110.039,55.857,112.467,52.847,112.467z M66.895,101.538
	c0-3.036,2.461-5.5,5.502-5.5c3.039,0,5.496,2.464,5.496,5.5s-2.457,5.504-5.496,5.504C69.355,107.042,66.895,104.57,66.895,101.538
	z M92.506,117.281c0,3.674-2.973,6.641-6.641,6.641c-3.664,0-6.641-2.967-6.641-6.641c0-3.666,2.977-6.641,6.641-6.641
	C89.533,110.641,92.506,113.615,92.506,117.281z M79.982,88.536c-5.295,0-9.576-4.286-9.576-9.572c0-5.295,4.281-9.58,9.576-9.58
	c5.287,0,9.58,4.285,9.58,9.58C89.57,84.253,85.27,88.536,79.982,88.536z M108.152,96.891c0,2.197-1.775,3.987-3.982,3.987
	c-2.191,0-3.975-1.79-3.975-3.987c0-2.199,1.781-3.984,3.975-3.984C106.377,92.904,108.152,94.691,108.152,96.891z M99.426,87.561
	c-2.281,0-4.127-1.854-4.127-4.139c0-2.284,1.846-4.146,4.127-4.146c2.295,0,4.139,1.858,4.139,4.146S101.721,87.561,99.426,87.561z
	 M109.877,77.331c-2.615,0-4.73-2.113-4.73-4.726c0-2.607,2.115-4.725,4.73-4.725c2.596,0,4.715,2.115,4.715,4.725
	C114.592,75.218,112.473,77.331,109.877,77.331z"/>
</svg>
