<?xml version="1.0" encoding="utf-8"?>
<!-- Generator: Adobe Illustrator 15.0.0, SVG Export Plug-In . SVG Version: 6.00 Build 0)  -->
<!DOCTYPE svg PUBLIC "-//W3C//DTD SVG 1.1//EN" "http://www.w3.org/Graphics/SVG/1.1/DTD/svg11.dtd">
<svg version="1.1" id="Capa_1" xmlns="http://www.w3.org/2000/svg" xmlns:xlink="http://www.w3.org/1999/xlink" x="0px" y="0px"
	 width="54.374px" height="119.334px" viewBox="0 0 54.374 119.334" enable-background="new 0 0 54.374 119.334"
	 xml:space="preserve">
<path d="M52.505,93.271c-0.51,0.814-1.384,1.263-2.279,1.263c-0.485,0-0.979-0.131-1.421-0.408L26.457,80.171L4.109,94.126
	c-1.259,0.787-2.916,0.403-3.7-0.855c-0.787-1.258-0.405-2.913,0.854-3.7l23.771-14.845c0.868-0.545,1.976-0.545,2.845,0
	L51.653,89.57C52.908,90.357,53.291,92.012,52.505,93.271z M43.858,94.718l-15.979-9.979c-0.868-0.543-1.976-0.543-2.843,0
	L9.057,94.718c-0.785,0.488-1.26,1.351-1.26,2.275v16.627c0,1.482,1.203,2.686,2.685,2.686h8.816c1.482,0,2.685-1.203,2.685-2.686
	v-7.57c0-2.467,2.009-4.473,4.476-4.473c2.468,0,4.477,2.009,4.477,4.473v7.568c0,1.482,1.204,2.686,2.685,2.686h8.816
	c1.482,0,2.686-1.203,2.686-2.686V96.993C45.122,96.065,44.644,95.205,43.858,94.718z"/>
<path fill="#FFFFFF" d="M52.505,22.962c-0.51,0.814-1.384,1.262-2.279,1.262c-0.485,0-0.979-0.131-1.421-0.408L26.457,9.863
	L4.109,23.818c-1.259,0.787-2.916,0.403-3.7-0.856c-0.787-1.257-0.405-2.913,0.854-3.7L25.035,4.418
	c0.868-0.545,1.976-0.545,2.845,0l23.773,14.845C52.908,20.049,53.291,21.704,52.505,22.962z M43.858,24.41L27.879,14.43
	c-0.868-0.542-1.976-0.542-2.843,0L9.057,24.41c-0.785,0.488-1.26,1.351-1.26,2.276v16.626c0,1.482,1.203,2.686,2.685,2.686h8.816
	c1.482,0,2.685-1.203,2.685-2.686v-7.57c0-2.467,2.009-4.473,4.476-4.473c2.468,0,4.477,2.008,4.477,4.473v7.568
	c0,1.482,1.204,2.686,2.685,2.686h8.816c1.482,0,2.686-1.204,2.686-2.686V26.686C45.122,25.757,44.644,24.897,43.858,24.41z"/>
</svg>
