<?xml version="1.0" encoding="utf-8"?>
<!-- Generator: Adobe Illustrator 15.0.0, SVG Export Plug-In . SVG Version: 6.00 Build 0)  -->
<!DOCTYPE svg PUBLIC "-//W3C//DTD SVG 1.1//EN" "http://www.w3.org/Graphics/SVG/1.1/DTD/svg11.dtd">
<svg version="1.1" id="Capa_1" xmlns="http://www.w3.org/2000/svg" xmlns:xlink="http://www.w3.org/1999/xlink" x="0px" y="0px"
	 width="60.312px" height="118.562px" viewBox="0 0 60.312 118.562" enable-background="new 0 0 60.312 118.562"
	 xml:space="preserve">
<path d="M45.458,81.337c0.311-0.155,0.533-0.378,0.669-0.669c0.135-0.289,0.145-0.571,0.029-0.842
	c-0.116-0.271-0.339-0.455-0.668-0.553c-0.33-0.097-0.649-0.068-0.959,0.087l-2.964,1.337c-0.31,0.155-0.543,0.369-0.697,0.64
	c-0.155,0.271-0.155,0.562,0,0.872c0.116,0.271,0.329,0.455,0.639,0.553c0.31,0.096,0.62,0.067,0.93-0.088L45.458,81.337
	L45.458,81.337z M44.819,90.752c0.348,0.039,0.648-0.027,0.9-0.203c0.252-0.174,0.417-0.416,0.494-0.727
	c0.078-0.309,0-0.58-0.232-0.812c-0.232-0.232-0.503-0.367-0.813-0.406l-3.255-0.523c-0.349-0.078-0.658-0.029-0.93,0.145
	c-0.271,0.174-0.445,0.418-0.522,0.727c-0.039,0.311,0.048,0.582,0.261,0.814s0.494,0.387,0.843,0.465L44.819,90.752L44.819,90.752z
	 M40.11,74.129c0.387-0.697,0.31-1.259-0.233-1.686c-0.271-0.154-0.562-0.193-0.872-0.115c-0.31,0.077-0.562,0.271-0.756,0.58
	l-1.744,2.791c-0.194,0.31-0.271,0.61-0.232,0.9c0.038,0.291,0.174,0.533,0.406,0.727c0.271,0.194,0.562,0.242,0.873,0.146
	s0.562-0.3,0.755-0.61L40.11,74.129L40.11,74.129z M38.948,85.174c0-1.24-0.223-2.336-0.668-3.285s-1.056-1.743-1.831-2.383
	c-0.775-0.639-1.696-1.123-2.761-1.453c-1.065-0.329-2.218-0.494-3.458-0.494h-0.058c-2.48,0-4.543,0.649-6.19,1.947
	c-1.646,1.299-2.47,3.188-2.47,5.668v0.232c0,0.039,0.02,0.076,0.058,0.115c0,0.271,0.02,0.533,0.058,0.785
	c0.039,0.252,0.078,0.514,0.117,0.785c0.194,1.008,0.542,2.033,1.046,3.08c0.504,1.047,1.047,2.17,1.627,3.371
	c0.388,0.814,0.659,1.541,0.814,2.18s0.281,1.191,0.377,1.656c0.097,0.465,0.194,0.834,0.291,1.104
	c0.097,0.271,0.3,0.428,0.61,0.467h7.44c0.271-0.039,0.465-0.195,0.581-0.467c0.117-0.27,0.213-0.639,0.291-1.104
	c0.077-0.465,0.193-1.018,0.349-1.656c0.155-0.639,0.426-1.365,0.813-2.18c0.62-1.201,1.182-2.324,1.686-3.371
	c0.503-1.047,0.853-2.072,1.046-3.08c0.039-0.271,0.078-0.533,0.117-0.785c0.039-0.252,0.058-0.514,0.058-0.785v-0.115
	c0-0.039,0.01-0.078,0.029-0.117C38.938,85.25,38.948,85.211,38.948,85.174z M34.646,100.809c0-0.387-0.193-0.58-0.581-0.58h-7.673
	c-0.388,0-0.581,0.193-0.581,0.58v1.338c0,0.387,0.193,0.58,0.581,0.58h7.673c0.388,0,0.581-0.193,0.581-0.58V100.809z
	 M34.646,104.588c0-0.428-0.193-0.641-0.581-0.641h-7.673c-0.388,0-0.581,0.213-0.581,0.641v1.336c0,0.389,0.193,0.58,0.581,0.58
	h7.673c0.388,0,0.581-0.191,0.581-0.58V104.588z M20.581,72.443c-0.233,0.194-0.378,0.446-0.436,0.756
	c-0.059,0.311,0.009,0.621,0.203,0.93l1.802,2.732c0.194,0.311,0.446,0.514,0.755,0.61c0.31,0.097,0.602,0.049,0.873-0.146
	c0.232-0.193,0.368-0.436,0.406-0.727c0.039-0.29-0.038-0.591-0.232-0.9l-1.744-2.791c-0.194-0.31-0.446-0.503-0.756-0.58
	C21.142,72.25,20.852,72.289,20.581,72.443z M18.895,90.23c0.349-0.078,0.63-0.232,0.843-0.465s0.3-0.504,0.261-0.814
	c-0.077-0.309-0.251-0.553-0.522-0.727c-0.272-0.174-0.582-0.223-0.93-0.145l-3.255,0.523c-0.31,0.039-0.582,0.174-0.813,0.406
	c-0.233,0.232-0.311,0.504-0.233,0.812c0.078,0.311,0.242,0.553,0.494,0.729c0.252,0.174,0.553,0.242,0.901,0.203L18.895,90.23
	L18.895,90.23z M14.303,79.826c-0.116,0.271-0.106,0.553,0.029,0.842c0.136,0.291,0.359,0.514,0.668,0.669l3.023,1.337
	c0.31,0.155,0.62,0.184,0.93,0.088c0.31-0.098,0.523-0.281,0.639-0.553c0.155-0.311,0.155-0.601,0-0.872
	c-0.154-0.271-0.388-0.484-0.697-0.64L15.93,79.36c-0.31-0.155-0.629-0.184-0.959-0.087C14.642,79.371,14.419,79.555,14.303,79.826z
	 M29.183,74.652c0,0.349,0.106,0.649,0.319,0.901c0.213,0.252,0.475,0.378,0.785,0.378c0.31,0,0.561-0.126,0.755-0.378
	c0.193-0.252,0.29-0.553,0.29-0.901v-3.254c0-0.35-0.097-0.65-0.29-0.902c-0.194-0.252-0.446-0.377-0.755-0.377
	c-0.31,0-0.572,0.125-0.785,0.377c-0.213,0.252-0.319,0.553-0.319,0.902V74.652z M30.229,59.25c3.991,0,7.76,0.766,11.305,2.295
	c3.546,1.531,6.627,3.604,9.241,6.221c2.617,2.615,4.689,5.695,6.22,9.241s2.296,7.313,2.296,11.306c0,2.674-0.35,5.25-1.046,7.73
	c-0.698,2.479-1.675,4.795-2.937,6.945c-1.259,2.152-2.769,4.107-4.533,5.871c-1.762,1.764-3.72,3.273-5.87,4.533
	c-2.151,1.26-4.466,2.238-6.946,2.936c-2.48,0.697-5.057,1.047-7.73,1.047s-5.25-0.35-7.73-1.047
	c-2.48-0.697-4.795-1.676-6.946-2.936c-2.15-1.26-4.107-2.77-5.87-4.533s-3.275-3.719-4.534-5.871
	c-1.259-2.15-2.238-4.467-2.935-6.945c-0.698-2.48-1.046-5.057-1.046-7.73s0.349-5.251,1.046-7.73
	c0.697-2.48,1.676-4.796,2.935-6.947c1.259-2.149,2.771-4.106,4.534-5.869c1.763-1.764,3.72-3.275,5.87-4.535
	c2.151-1.259,4.466-2.237,6.946-2.935C24.979,59.598,27.556,59.25,30.229,59.25z"/>
<path fill="#FFFFFF" d="M45.458,22.087c0.311-0.155,0.533-0.378,0.669-0.669c0.135-0.289,0.145-0.571,0.029-0.842
	c-0.116-0.271-0.339-0.455-0.668-0.553c-0.33-0.097-0.649-0.068-0.959,0.087l-2.964,1.337c-0.31,0.155-0.543,0.369-0.697,0.64
	c-0.155,0.271-0.155,0.562,0,0.872c0.116,0.271,0.329,0.455,0.639,0.553c0.31,0.096,0.62,0.067,0.93-0.088L45.458,22.087
	L45.458,22.087z M44.819,31.502c0.348,0.039,0.648-0.027,0.9-0.203c0.252-0.174,0.417-0.416,0.494-0.727
	c0.078-0.309,0-0.58-0.232-0.812c-0.232-0.232-0.503-0.367-0.813-0.406l-3.255-0.523c-0.349-0.078-0.658-0.029-0.93,0.145
	c-0.271,0.174-0.445,0.418-0.522,0.727c-0.039,0.311,0.048,0.582,0.261,0.814s0.494,0.387,0.843,0.465L44.819,31.502L44.819,31.502z
	 M40.11,14.879c0.387-0.697,0.31-1.259-0.233-1.686c-0.271-0.154-0.562-0.193-0.872-0.115c-0.31,0.077-0.562,0.271-0.756,0.58
	l-1.744,2.791c-0.194,0.31-0.271,0.61-0.232,0.9c0.038,0.291,0.174,0.533,0.406,0.727c0.271,0.194,0.562,0.242,0.873,0.146
	s0.562-0.3,0.755-0.61L40.11,14.879L40.11,14.879z M38.948,25.924c0-1.24-0.223-2.336-0.668-3.285s-1.056-1.743-1.831-2.383
	c-0.775-0.639-1.696-1.123-2.761-1.453c-1.065-0.329-2.218-0.494-3.458-0.494h-0.058c-2.48,0-4.543,0.649-6.19,1.947
	c-1.646,1.299-2.47,3.188-2.47,5.668v0.232c0,0.039,0.02,0.076,0.058,0.115c0,0.271,0.02,0.533,0.058,0.785
	c0.039,0.252,0.078,0.514,0.117,0.785c0.194,1.008,0.542,2.033,1.046,3.08c0.504,1.047,1.047,2.17,1.627,3.371
	c0.388,0.814,0.659,1.541,0.814,2.18s0.281,1.191,0.377,1.656c0.097,0.465,0.194,0.834,0.291,1.104
	c0.097,0.271,0.3,0.428,0.61,0.467h7.44c0.271-0.039,0.465-0.195,0.581-0.467c0.117-0.27,0.213-0.639,0.291-1.104
	c0.077-0.465,0.193-1.018,0.349-1.656c0.155-0.639,0.426-1.365,0.813-2.18c0.62-1.201,1.182-2.324,1.686-3.371
	c0.503-1.047,0.853-2.072,1.046-3.08c0.039-0.271,0.078-0.533,0.117-0.785c0.039-0.252,0.058-0.514,0.058-0.785v-0.115
	c0-0.039,0.01-0.078,0.029-0.117C38.938,26,38.948,25.961,38.948,25.924z M34.646,41.559c0-0.387-0.193-0.58-0.581-0.58h-7.673
	c-0.388,0-0.581,0.193-0.581,0.58v1.338c0,0.387,0.193,0.58,0.581,0.58h7.673c0.388,0,0.581-0.193,0.581-0.58V41.559z
	 M34.646,45.338c0-0.428-0.193-0.641-0.581-0.641h-7.673c-0.388,0-0.581,0.213-0.581,0.641v1.336c0,0.389,0.193,0.58,0.581,0.58
	h7.673c0.388,0,0.581-0.191,0.581-0.58V45.338z M20.581,13.194c-0.233,0.194-0.378,0.446-0.436,0.756
	c-0.059,0.311,0.009,0.621,0.203,0.93l1.802,2.732c0.194,0.311,0.446,0.514,0.755,0.61c0.31,0.097,0.602,0.049,0.873-0.146
	c0.232-0.193,0.368-0.436,0.406-0.727c0.039-0.29-0.038-0.591-0.232-0.9l-1.744-2.791c-0.194-0.31-0.446-0.503-0.756-0.58
	C21.142,13,20.852,13.04,20.581,13.194z M18.895,30.981c0.349-0.078,0.63-0.232,0.843-0.465s0.3-0.504,0.261-0.814
	c-0.077-0.309-0.251-0.553-0.522-0.727c-0.272-0.174-0.582-0.223-0.93-0.145l-3.255,0.523c-0.31,0.039-0.582,0.174-0.813,0.406
	c-0.233,0.232-0.311,0.504-0.233,0.812c0.078,0.311,0.242,0.553,0.494,0.729c0.252,0.174,0.553,0.242,0.901,0.203L18.895,30.981
	L18.895,30.981z M14.303,20.577c-0.116,0.271-0.106,0.553,0.029,0.842c0.136,0.291,0.359,0.514,0.668,0.669l3.023,1.337
	c0.31,0.155,0.62,0.184,0.93,0.088c0.31-0.098,0.523-0.281,0.639-0.553c0.155-0.311,0.155-0.601,0-0.872
	c-0.154-0.271-0.388-0.484-0.697-0.64l-2.964-1.337c-0.31-0.155-0.629-0.184-0.959-0.087C14.642,20.122,14.419,20.305,14.303,20.577
	z M29.183,15.403c0,0.349,0.106,0.649,0.319,0.901c0.213,0.252,0.475,0.378,0.785,0.378c0.31,0,0.561-0.126,0.755-0.378
	c0.193-0.252,0.29-0.553,0.29-0.901v-3.254c0-0.35-0.097-0.65-0.29-0.902c-0.194-0.252-0.446-0.377-0.755-0.377
	c-0.31,0-0.572,0.125-0.785,0.377c-0.213,0.252-0.319,0.553-0.319,0.902V15.403z M30.229,0c3.991,0,7.76,0.766,11.305,2.295
	c3.546,1.531,6.627,3.604,9.241,6.221c2.617,2.615,4.689,5.695,6.22,9.241s2.296,7.313,2.296,11.306c0,2.674-0.35,5.25-1.046,7.73
	c-0.698,2.479-1.675,4.795-2.937,6.945c-1.259,2.152-2.769,4.107-4.533,5.871c-1.762,1.764-3.72,3.273-5.87,4.533
	c-2.151,1.26-4.466,2.238-6.946,2.936c-2.48,0.697-5.057,1.047-7.73,1.047s-5.25-0.35-7.73-1.047
	c-2.48-0.697-4.795-1.676-6.946-2.936c-2.15-1.26-4.107-2.77-5.87-4.533s-3.275-3.719-4.534-5.871
	c-1.259-2.15-2.238-4.467-2.935-6.945c-0.698-2.48-1.046-5.057-1.046-7.73s0.349-5.251,1.046-7.73
	c0.697-2.48,1.676-4.796,2.935-6.947c1.259-2.149,2.771-4.106,4.534-5.869c1.763-1.764,3.72-3.275,5.87-4.535
	c2.151-1.259,4.466-2.238,6.946-2.935C24.979,0.349,27.556,0,30.229,0z"/>
</svg>
