<?xml version="1.0" encoding="utf-8"?>
<!-- Generator: Adobe Illustrator 15.0.0, SVG Export Plug-In . SVG Version: 6.00 Build 0)  -->
<!DOCTYPE svg PUBLIC "-//W3C//DTD SVG 1.1//EN" "http://www.w3.org/Graphics/SVG/1.1/DTD/svg11.dtd">
<svg version="1.1" id="Capa_1" xmlns="http://www.w3.org/2000/svg" xmlns:xlink="http://www.w3.org/1999/xlink" x="0px" y="0px"
	 width="68.75px" height="125.584px" viewBox="-3.938 3.312 68.75 125.584" enable-background="new -3.938 3.312 68.75 125.584"
	 xml:space="preserve">
<rect x="11.741" y="67.312" fill="none" width="59.25" height="59.25"/>
<path d="M54.449,80.196l-10.744-2.844v4.716l9.576,2.534c1.217,0.325,1.942,1.576,1.62,2.787l-9.327,35.25
	c-0.32,1.211-1.573,1.943-2.791,1.62l-7.353-1.944c-0.28,0.026-0.552,0.084-0.841,0.084H18.433c0.369,0.174,0.752,0.33,1.16,0.437
	l22.029,5.831c3.65,0.968,7.393-1.211,8.359-4.86L59.31,88.56C60.271,84.91,58.099,81.162,54.449,80.196z"/>
<path d="M34.589,69.986H9.522c-3.774,0-6.836,3.062-6.836,6.837v36.461c0,3.774,3.062,6.837,6.836,6.837h25.067
	c3.774,0,6.836-3.062,6.836-6.837V76.823C41.426,73.049,38.364,69.986,34.589,69.986z M36.868,113.284
	c0,1.255-1.023,2.279-2.279,2.279H9.522c-1.255,0-2.279-1.024-2.279-2.279V76.823c0-1.256,1.024-2.279,2.279-2.279h25.067
	c1.255,0,2.279,1.023,2.279,2.279V113.284z M32.058,95.997c0,3.156-2.113,5.163-5.13,5.168c-1.561,0-3.141-1.056-4.036-1.93
	c0,0,0.838,3.881,2.368,6.816c0.198,0.381-6.518,0.39-6.338,0.005c1.488-3.183,2.322-6.821,2.322-6.821
	c-0.898,0.834-2.621,1.942-4.063,1.942c-3.01,0.005-5.137-1.998-5.141-5.149c-0.004-5.283,9.963-12.209,9.963-12.209h0.055
	C22.058,83.819,32.048,90.719,32.058,95.997z M32.183,77.132c-0.039-0.096-0.072-0.171-0.118-0.227
	c-0.045-0.056-0.139-0.082-0.28-0.082h-1.296c-0.139,0-0.232,0.026-0.278,0.077c-0.048,0.047-0.089,0.123-0.124,0.219l-1.983,6.273
	c-0.038,0.12-0.042,0.188-0.014,0.223c0.028,0.031,0.083,0.044,0.157,0.044h1.139c0.1,0,0.174-0.024,0.23-0.062
	c0.052-0.042,0.098-0.113,0.132-0.225l0.37-1.255h2.046l0.34,1.222c0.034,0.109,0.069,0.191,0.109,0.24
	c0.039,0.054,0.121,0.08,0.237,0.08h1.276c0.076,0,0.12-0.024,0.134-0.062c0.013-0.04,0.013-0.098-0.009-0.182L32.183,77.132z
	 M30.467,80.873l0.308-1.148l0.339-1.246h0.048l0.333,1.255l0.307,1.14H30.467z M14.62,106.448c-0.118,0-0.198,0.026-0.237,0.077
	c-0.04,0.052-0.074,0.134-0.109,0.243l-0.339,1.222h-2.048l-0.37-1.255c-0.035-0.111-0.078-0.183-0.132-0.226
	c-0.055-0.037-0.128-0.062-0.228-0.062h-1.14c-0.075,0-0.129,0.016-0.155,0.049c-0.024,0.031-0.024,0.103,0.014,0.22l1.983,6.273
	c0.034,0.096,0.075,0.17,0.123,0.219c0.046,0.049,0.139,0.075,0.276,0.075h1.294c0.144,0,0.237-0.026,0.283-0.082
	c0.045-0.052,0.079-0.132,0.118-0.228l2.065-6.282c0.024-0.084,0.024-0.143,0.011-0.183c-0.014-0.037-0.057-0.062-0.133-0.062H14.62
	z M13.267,110.373l-0.333,1.256h-0.048l-0.339-1.246l-0.308-1.148h1.335L13.267,110.373z"/>
<path d="M50.297,86.528c-0.009-0.103-0.029-0.185-0.054-0.247c-0.031-0.067-0.116-0.116-0.254-0.151l-1.251-0.339
	c-0.129-0.035-0.227-0.035-0.284,0c-0.062,0.04-0.12,0.099-0.176,0.183l-3.55,5.537c-0.071,0.106-0.089,0.169-0.071,0.211
	c0.016,0.038,0.062,0.065,0.138,0.085l1.1,0.298c0.096,0.025,0.174,0.022,0.236-0.004c0.062-0.024,0.127-0.08,0.187-0.178
	l0.686-1.117l1.977,0.534l0.009,1.271c0,0.111,0.018,0.204,0.042,0.26c0.029,0.061,0.096,0.107,0.211,0.141l1.233,0.331
	c0.071,0.021,0.12,0.012,0.145-0.028c0.022-0.031,0.036-0.089,0.036-0.176L50.297,86.528z M47.661,89.694l0.599-1.032l0.654-1.112
	l0.047,0.013l-0.009,1.3l-0.002,1.182L47.661,89.694z"/>
<path fill="#FFFFFF" d="M54.449,17.446l-10.744-2.844v4.716l9.576,2.534c1.217,0.325,1.942,1.576,1.62,2.787l-9.327,35.25
	c-0.32,1.211-1.573,1.943-2.791,1.62l-7.353-1.944c-0.28,0.026-0.552,0.084-0.841,0.084H18.433c0.369,0.174,0.752,0.33,1.16,0.437
	l22.029,5.831c3.65,0.968,7.393-1.211,8.359-4.86L59.31,25.81C60.271,22.16,58.099,18.412,54.449,17.446z"/>
<path fill="#FFFFFF" d="M34.589,7.236H9.522c-3.774,0-6.836,3.062-6.836,6.837v36.461c0,3.774,3.062,6.837,6.836,6.837h25.067
	c3.774,0,6.836-3.062,6.836-6.837V14.073C41.426,10.299,38.364,7.236,34.589,7.236z M36.868,50.534c0,1.255-1.023,2.279-2.279,2.279
	H9.522c-1.255,0-2.279-1.024-2.279-2.279V14.073c0-1.256,1.024-2.279,2.279-2.279h25.067c1.255,0,2.279,1.023,2.279,2.279V50.534z
	 M32.058,33.247c0,3.156-2.113,5.163-5.13,5.168c-1.561,0-3.141-1.056-4.036-1.93c0,0,0.838,3.881,2.368,6.816
	c0.198,0.381-6.518,0.39-6.338,0.005c1.488-3.183,2.322-6.821,2.322-6.821c-0.898,0.834-2.621,1.942-4.063,1.942
	c-3.01,0.005-5.137-1.998-5.141-5.149c-0.004-5.283,9.963-12.209,9.963-12.209h0.055C22.058,21.069,32.048,27.969,32.058,33.247z
	 M32.183,14.382c-0.039-0.096-0.072-0.171-0.118-0.227c-0.045-0.056-0.139-0.082-0.28-0.082h-1.296
	c-0.139,0-0.232,0.026-0.278,0.077c-0.048,0.047-0.089,0.123-0.124,0.219l-1.983,6.273c-0.038,0.12-0.042,0.188-0.014,0.223
	c0.028,0.031,0.083,0.044,0.157,0.044h1.139c0.1,0,0.174-0.024,0.23-0.062c0.052-0.042,0.098-0.113,0.132-0.225l0.37-1.255h2.046
	l0.34,1.222c0.034,0.109,0.069,0.191,0.109,0.24c0.039,0.054,0.121,0.08,0.237,0.08h1.276c0.076,0,0.12-0.024,0.134-0.062
	c0.013-0.04,0.013-0.098-0.009-0.182L32.183,14.382z M30.467,18.123l0.308-1.148l0.339-1.246h0.048l0.333,1.255l0.307,1.14H30.467z
	 M14.62,43.698c-0.118,0-0.198,0.026-0.237,0.077c-0.04,0.052-0.074,0.134-0.109,0.243l-0.339,1.222h-2.048l-0.37-1.255
	c-0.035-0.111-0.078-0.183-0.132-0.226c-0.055-0.037-0.128-0.062-0.228-0.062h-1.14c-0.075,0-0.129,0.016-0.155,0.049
	c-0.024,0.031-0.024,0.103,0.014,0.22l1.983,6.273c0.034,0.096,0.075,0.17,0.123,0.219c0.046,0.049,0.139,0.075,0.276,0.075h1.294
	c0.144,0,0.237-0.026,0.283-0.082c0.045-0.052,0.079-0.132,0.118-0.228l2.065-6.282c0.024-0.084,0.024-0.143,0.011-0.183
	c-0.014-0.037-0.057-0.062-0.133-0.062H14.62z M13.267,47.623l-0.333,1.256h-0.048l-0.339-1.246l-0.308-1.148h1.335L13.267,47.623z"
	/>
<path fill="#FFFFFF" d="M50.297,23.778c-0.009-0.103-0.029-0.185-0.054-0.247c-0.031-0.067-0.116-0.116-0.254-0.151l-1.251-0.339
	c-0.129-0.035-0.227-0.035-0.284,0c-0.062,0.04-0.12,0.099-0.176,0.183l-3.55,5.537c-0.071,0.106-0.089,0.169-0.071,0.211
	c0.016,0.038,0.062,0.065,0.138,0.085l1.1,0.298c0.096,0.025,0.174,0.022,0.236-0.004c0.062-0.024,0.127-0.08,0.187-0.178
	l0.686-1.117l1.977,0.534l0.009,1.271c0,0.111,0.018,0.204,0.042,0.26c0.029,0.061,0.096,0.107,0.211,0.141l1.233,0.331
	c0.071,0.021,0.12,0.012,0.145-0.028c0.022-0.031,0.036-0.089,0.036-0.176L50.297,23.778z M47.661,26.944l0.599-1.032l0.654-1.112
	l0.047,0.013l-0.009,1.3l-0.002,1.182L47.661,26.944z"/>
</svg>
