<?xml version="1.0" encoding="utf-8"?>
<!-- Generator: Adobe Illustrator 15.0.0, SVG Export Plug-In . SVG Version: 6.00 Build 0)  -->
<!DOCTYPE svg PUBLIC "-//W3C//DTD SVG 1.1//EN" "http://www.w3.org/Graphics/SVG/1.1/DTD/svg11.dtd">
<svg version="1.1" id="Layer_1" xmlns="http://www.w3.org/2000/svg" xmlns:xlink="http://www.w3.org/1999/xlink" x="0px" y="0px"
	 width="395px" height="67.336px" viewBox="0 0 395 67.336" enable-background="new 0 0 395 67.336" xml:space="preserve">
<g>
	<path fill="#FFFFFF" d="M38.91,11.543c6.573,0,9.953,3.932,9.953,10.812v1.352h-6.389v-1.782c0-3.071-1.229-4.239-3.379-4.239
		s-3.378,1.167-3.378,4.239c0,8.847,13.208,10.506,13.208,22.792c0,6.881-3.44,10.813-10.075,10.813
		c-6.635,0-10.075-3.932-10.075-10.813v-2.642h6.389v3.072c0,3.071,1.352,4.178,3.502,4.178c2.151,0,3.502-1.106,3.502-4.178
		c0-8.847-13.209-10.505-13.209-22.792C28.957,15.475,32.336,11.543,38.91,11.543z"/>
	<path fill="#FFFFFF" d="M52.24,22.355c0-6.881,3.625-10.812,10.26-10.812c6.634,0,10.259,3.932,10.259,10.812v22.362
		c0,6.881-3.625,10.813-10.259,10.813c-6.635,0-10.26-3.932-10.26-10.813V22.355z M58.999,45.148c0,3.071,1.351,4.239,3.502,4.239
		c2.149,0,3.501-1.168,3.501-4.239V21.925c0-3.071-1.352-4.239-3.501-4.239c-2.151,0-3.502,1.167-3.502,4.239V45.148z"/>
	<path fill="#FFFFFF" d="M83.879,31.141h8.724v6.143h-8.724v17.754h-6.757V12.035h17.876v6.144h-11.12V31.141z"/>
	<path fill="#FFFFFF" d="M96.289,12.035h20.888v6.144h-7.065v36.86h-6.757v-36.86h-7.065V12.035z"/>
	<path fill="#FFFFFF" d="M135.114,32.124l-2.457,22.915h-9.277l-4.792-43.004h6.574l3.624,33.912l3.256-33.912h6.513l3.378,34.157
		l3.502-34.157h5.897l-4.792,43.004h-8.969L135.114,32.124z"/>
	<path fill="#FFFFFF" d="M175.66,55.039h-6.818l-1.168-7.802h-8.294l-1.167,7.802h-6.204l6.88-43.004h9.892L175.66,55.039z
		 M160.24,41.4h6.513l-3.257-21.748L160.24,41.4z"/>
	<path fill="#FFFFFF" d="M192.923,55.039c-0.368-1.105-0.615-1.781-0.615-5.284v-6.758c0-3.992-1.351-5.467-4.422-5.467h-2.335
		v17.509h-6.758V12.035h10.197c7.005,0,10.015,3.256,10.015,9.891v3.379c0,4.423-1.413,7.311-4.424,8.724
		c3.38,1.413,4.485,4.669,4.485,9.153v6.635c0,2.089,0.062,3.625,0.737,5.222H192.923z M185.551,18.179v13.208h2.642
		c2.519,0,4.055-1.105,4.055-4.546v-4.238c0-3.072-1.045-4.423-3.439-4.423H185.551z"/>
	<path fill="#FFFFFF" d="M209.018,30.158h9.276v6.143h-9.276v12.594h11.673v6.144h-18.43V12.035h18.43v6.144h-11.673V30.158z"/>
	<path fill="#FFFFFF" d="M243.223,11.271c0.551,0,0.825,0.079,0.825,0.235l-1.272,6.552c-0.534,0.252-1.03,0.377-1.485,0.377h-0.612
		c-0.347,0-0.621-1.264-0.825-3.794c-2.593,0.487-4.636,1.053-6.128,1.697c-2.342,1.242-3.904,2.813-4.69,4.714
		c-1.006,2.043-1.508,5.154-1.508,9.333v3.135c0,6.27,0.227,9.86,0.683,10.771c0.771,2.436,2.012,4.125,3.725,5.067
		c1.444,0.801,3.117,1.202,5.02,1.202c1.792,0,4.102-0.447,6.93-1.343c0.503,1.038,0.755,1.808,0.755,2.31v0.307
		c0,0.739-0.771,1.281-2.311,1.626c-2.655,1.053-5.17,1.579-7.541,1.579c-6.114,0-9.799-4.179-11.055-12.539
		c-0.252-2.168-0.377-4.29-0.377-6.363c0-4.306,0.494-9.907,1.485-16.805c0.155-1.052,1.027-2.42,2.616-4.101
		C230.628,12.591,235.884,11.271,243.223,11.271z"/>
	<path fill="#FFFFFF" d="M247.277,11.577h0.73c0.66,0,1.115,0.047,1.366,0.141l0.661-0.07c4.115,0,8.083,0.951,11.901,2.852
		c2.985,1.902,4.479,4.266,4.479,7.094v0.754c0,4.148-2.515,7.394-7.542,9.735l-0.825,0.283c4.98,11.675,7.472,18.36,7.472,20.057
		v0.212c-0.252,1.257-1.076,1.886-2.475,1.886h-0.212c-0.205-0.11-1.006-1.807-2.404-5.091l-7.259-15.792l-2.004,0.236l0.142,20.718
		c0,0.299-0.346,0.447-1.038,0.447h-0.306c-1.258,0-2.404-0.172-3.441-0.518l0.071-0.448l0.164-42.118
		C246.82,11.703,246.994,11.577,247.277,11.577z M250.931,16.433l0.165,14.306c0.895,0,2.938-0.778,6.128-2.333
		c2.593-1.728,3.889-3.598,3.889-5.609v-0.518c0-2.97-2.946-4.895-8.839-5.775L250.931,16.433z"/>
	<path fill="#FFFFFF" d="M269.479,11.459c0.77,0,1.79,0.149,3.064,0.447l0.071,10.937v30.475c0,1.147-0.254,1.721-0.755,1.721
		h-0.591c-1.225,0-2.215-0.219-2.969-0.66V11.907C268.443,11.608,268.835,11.459,269.479,11.459z"/>
	<path fill="#FFFFFF" d="M285.601,11.318c5.311,0,8.603,1.218,9.875,3.653c1.038,1.477,1.823,4.038,2.357,7.683
		c0.77,5.484,1.155,9.97,1.155,13.458v1.202c0,8.532-2.562,14.134-7.684,16.805c-1.478,0.613-2.868,0.919-4.172,0.919h-0.472
		c-3.928,0-7.118-3.371-9.568-10.111c-1.729-5.876-2.594-11.58-2.594-17.111c0-8.61,2.766-13.961,8.297-16.051
		C284.053,11.467,284.987,11.318,285.601,11.318z M278.766,26.213c0,5.594,0.958,11.502,2.875,17.725
		c1.382,3.646,3.362,5.468,5.939,5.468c2.608-0.283,4.054-0.738,4.337-1.367c0.755-0.519,1.414-1.736,1.98-3.654
		c0.597-1.995,0.895-4.784,0.895-8.367v-0.141c0-7.479-0.706-13.081-2.12-16.805c-1.306-2.326-3.002-3.488-5.092-3.488h-0.235
		c-2.09,0.188-4.195,1.123-6.316,2.804c-0.975,0.786-1.658,2.153-2.051,4.101C278.837,23.967,278.766,25.208,278.766,26.213z"/>
	<path fill="#FFFFFF" d="M302.005,11.2c1.18,0.094,2.191,0.299,3.041,0.613l-0.236,39.148c7.574-0.613,12.877-0.998,15.909-1.155
		c0.188,0,0.338,0.707,0.448,2.122c-0.032,1.571-0.134,2.357-0.308,2.357l-19.914,0.754l-0.071-0.071V12.096
		C300.874,11.499,301.251,11.2,302.005,11.2z"/>
	<path fill="#FFFFFF" d="M324.184,11.2c1.178,0.094,2.191,0.299,3.04,0.613l-0.235,39.148c7.573-0.613,12.876-0.998,15.909-1.155
		c0.189,0,0.337,0.707,0.448,2.122c-0.033,1.571-0.134,2.357-0.307,2.357l-19.916,0.754l-0.071-0.071V12.096
		C323.052,11.499,323.429,11.2,324.184,11.2z"/>
	<path fill="#FFFFFF" d="M352.47,11.318c5.311,0,8.604,1.218,9.875,3.653c1.038,1.477,1.823,4.038,2.357,7.683
		c0.77,5.484,1.155,9.97,1.155,13.458v1.202c0,8.532-2.562,14.134-7.684,16.805c-1.478,0.613-2.868,0.919-4.172,0.919h-0.471
		c-3.929,0-7.119-3.371-9.569-10.111c-1.729-5.876-2.593-11.58-2.593-17.111c0-8.61,2.765-13.961,8.296-16.051
		C350.922,11.467,351.856,11.318,352.47,11.318z M345.635,26.213c0,5.594,0.959,11.502,2.875,17.725
		c1.383,3.646,3.362,5.468,5.939,5.468c2.608-0.283,4.055-0.738,4.337-1.367c0.755-0.519,1.414-1.736,1.98-3.654
		c0.597-1.995,0.895-4.784,0.895-8.367v-0.141c0-7.479-0.706-13.081-2.12-16.805c-1.306-2.326-3.002-3.488-5.092-3.488h-0.235
		c-2.09,0.188-4.195,1.123-6.316,2.804c-0.975,0.786-1.658,2.153-2.051,4.101C345.706,23.967,345.635,25.208,345.635,26.213z"/>
</g>
</svg>
