<?xml version="1.0" encoding="utf-8"?>
<!-- Generator: Adobe Illustrator 15.0.0, SVG Export Plug-In . SVG Version: 6.00 Build 0)  -->
<!DOCTYPE svg PUBLIC "-//W3C//DTD SVG 1.1//EN" "http://www.w3.org/Graphics/SVG/1.1/DTD/svg11.dtd">
<svg version="1.1" id="Capa_1" xmlns="http://www.w3.org/2000/svg" xmlns:xlink="http://www.w3.org/1999/xlink" x="0px" y="0px"
	 width="60.312px" height="118.562px" viewBox="0 0 60.312 118.562" enable-background="new 0 0 60.312 118.562"
	 xml:space="preserve">
<path fill="#FFFFFF" d="M42.541,9.545c-6.302,1.654-8.493,7.081-8.126,9.348c0.116-0.069,0.228-0.137,0.345-0.209
	c0.553-0.339,1.155-0.661,1.782-0.992c0.622-0.335,1.29-0.643,1.965-0.958c0.339-0.158,0.694-0.298,1.045-0.441l0.532-0.216
	c0.229-0.088,0.368-0.126,0.558-0.192l1.063-0.354c0.369-0.105,0.733-0.208,1.098-0.311c0.734-0.203,1.444-0.382,2.135-0.524
	c1.379-0.314,2.677-0.542,3.795-0.716c2.233-0.34,3.757-0.404,3.757-0.404s-0.349,0.149-0.958,0.409
	c-0.611,0.254-1.487,0.592-2.541,0.997c-0.528,0.193-1.097,0.403-1.7,0.625c-0.605,0.214-1.241,0.439-1.902,0.671
	c-0.65,0.229-1.321,0.469-2.004,0.714c-0.67,0.227-1.367,0.494-2.067,0.763c-0.655,0.243-1.334,0.569-1.998,0.832
	c-0.662,0.302-1.794,0.695-2.433,0.969c-0.773,0.324-1.262,0.5-1.753,0.76c-5.498,3.208-7.933,8.886-9.418,14.896
	c-0.264-5.646-1.448-11.123-5.524-15.162c0.004-0.002,0.01-0.003,0.014-0.007c-0.553-0.517-1.125-1.073-1.716-1.668
	c-0.484-0.5-0.997-0.997-1.495-1.526c-0.512-0.499-1.015-1.057-1.528-1.534c-0.547-0.516-1.086-1.028-1.62-1.495
	c-0.539-0.483-1.066-0.961-1.58-1.423c-0.521-0.467-1.023-0.917-1.499-1.346c-0.472-0.435-0.922-0.847-1.333-1.227
	C8.613,9.05,7.931,8.402,7.464,7.934C7.001,7.46,6.738,7.188,6.738,7.188s1.381,0.642,3.317,1.809
	c0.966,0.586,2.077,1.293,3.234,2.11c0.584,0.397,1.171,0.833,1.772,1.3c0.295,0.235,0.597,0.47,0.895,0.706l0.848,0.734
	c0.148,0.133,0.266,0.22,0.441,0.39l0.41,0.404c0.271,0.267,0.546,0.533,0.798,0.806c0.508,0.547,1.004,1.089,1.453,1.634
	c0.452,0.546,0.885,1.073,1.268,1.598c0.081,0.113,0.156,0.216,0.237,0.326c1.206-1.956,1.252-7.809-3.943-11.744
	C11.812,2.976,3.928,4.897,0.627,3.312C3.96,8.412,3.32,11.816,8.92,17.411c3.742,3.744,7.236,3.976,9.592,3.325
	c4.787,4.609,5.534,11.637,5.537,18.36c-0.49-0.396-1.085-0.707-1.772-0.707c-1.938,0-3.349,1.088-4.025,2.644
	c-4.266-1.452-7.099,1.923-7.344,4.765c-2.03-0.755-4.604,1.582-4.604,3.609c0,2.004,1.583,3.624,3.566,3.708l31.398,0.057
	c0,0,3.347-1.804,3.347-3.767c0-2.056-1.667-3.723-3.724-3.723c-0.284,0-0.556,0.037-0.82,0.098c0.016-0.146-0.36-6.468-5.853-3.929
	c-0.427-1.977-0.986-3.461-4.288-3.461c-1.626,0-2.727,0.59-3.432,1.189c1.375-6.992,3.5-14.299,9.689-17.912
	c0.069-0.039,0.103-0.091,0.154-0.137c1.913,1.536,5.26,2.722,10.223,0.661c7.312-3.037,8.019-6.427,13.046-9.867
	C55.956,12.528,49.405,7.745,42.541,9.545z M25.431,40.755l0.205-0.207c-0.104,0.161-0.166,0.278-0.166,0.278
	S25.448,40.787,25.431,40.755z"/>
<path d="M42.541,69.938c-6.302,1.653-8.493,7.079-8.126,9.347c0.116-0.069,0.228-0.136,0.345-0.21
	c0.553-0.339,1.155-0.66,1.782-0.992c0.622-0.334,1.29-0.643,1.965-0.956c0.339-0.159,0.694-0.298,1.045-0.44l0.532-0.216
	c0.229-0.091,0.368-0.128,0.558-0.193l1.063-0.354c0.369-0.105,0.733-0.21,1.098-0.312c0.734-0.203,1.444-0.382,2.135-0.524
	c1.379-0.314,2.677-0.542,3.795-0.716c2.233-0.34,3.757-0.403,3.757-0.403s-0.349,0.148-0.958,0.407
	c-0.611,0.257-1.487,0.594-2.541,0.998c-0.528,0.193-1.097,0.404-1.7,0.624c-0.605,0.215-1.241,0.439-1.902,0.672
	c-0.65,0.23-1.321,0.47-2.004,0.715c-0.67,0.227-1.367,0.493-2.067,0.763c-0.655,0.243-1.334,0.568-1.998,0.832
	c-0.662,0.302-1.794,0.695-2.433,0.969c-0.773,0.324-1.262,0.5-1.753,0.76c-5.498,3.209-7.933,8.887-9.418,14.896
	c-0.264-5.644-1.448-11.121-5.524-15.16c0.004-0.003,0.01-0.004,0.014-0.008c-0.553-0.515-1.125-1.072-1.716-1.667
	c-0.484-0.501-0.997-0.997-1.495-1.525c-0.512-0.499-1.015-1.06-1.528-1.534c-0.547-0.517-1.086-1.03-1.62-1.497
	c-0.539-0.483-1.066-0.961-1.58-1.422c-0.521-0.468-1.023-0.918-1.499-1.347c-0.472-0.435-0.922-0.847-1.333-1.229
	c-0.819-0.772-1.501-1.419-1.968-1.89c-0.463-0.473-0.726-0.745-0.726-0.745s1.381,0.642,3.317,1.808
	c0.966,0.588,2.077,1.294,3.234,2.11c0.584,0.396,1.171,0.834,1.772,1.3c0.295,0.235,0.597,0.471,0.895,0.706l0.848,0.734
	c0.148,0.133,0.266,0.22,0.441,0.391l0.41,0.402c0.271,0.269,0.546,0.533,0.798,0.807c0.508,0.547,1.004,1.089,1.453,1.634
	c0.452,0.546,0.885,1.072,1.268,1.598c0.081,0.113,0.156,0.216,0.237,0.325c1.206-1.955,1.252-7.809-3.943-11.744
	c-5.656-4.283-13.54-2.36-16.841-3.945C3.96,68.803,3.32,72.209,8.92,77.804c3.742,3.743,7.236,3.976,9.592,3.324
	c4.787,4.609,5.534,11.638,5.537,18.359c-0.49-0.396-1.085-0.707-1.772-0.707c-1.938,0-3.349,1.089-4.025,2.644
	c-4.266-1.452-7.099,1.924-7.344,4.767c-2.03-0.757-4.604,1.58-4.604,3.607c0,2.004,1.583,3.625,3.566,3.708l31.398,0.057
	c0,0,3.347-1.806,3.347-3.766c0-2.057-1.667-3.725-3.724-3.725c-0.284,0-0.556,0.037-0.82,0.098c0.016-0.145-0.36-6.468-5.853-3.928
	c-0.427-1.978-0.986-3.462-4.288-3.462c-1.626,0-2.727,0.59-3.432,1.188c1.375-6.99,3.5-14.298,9.689-17.911
	c0.069-0.039,0.103-0.09,0.154-0.138c1.913,1.538,5.26,2.722,10.223,0.662c7.312-3.037,8.019-6.427,13.046-9.866
	C55.956,72.92,49.405,68.136,42.541,69.938z M25.431,101.146l0.205-0.205c-0.104,0.16-0.166,0.276-0.166,0.276
	S25.448,101.18,25.431,101.146z"/>
</svg>
