<?xml version="1.0" encoding="utf-8"?>
<!-- Generator: Adobe Illustrator 15.0.0, SVG Export Plug-In . SVG Version: 6.00 Build 0)  -->
<!DOCTYPE svg PUBLIC "-//W3C//DTD SVG 1.1//EN" "http://www.w3.org/Graphics/SVG/1.1/DTD/svg11.dtd">
<svg version="1.1" id="Capa_1" xmlns="http://www.w3.org/2000/svg" xmlns:xlink="http://www.w3.org/1999/xlink" x="0px" y="0px"
	 width="60.312px" height="118.562px" viewBox="0 0 60.312 118.562" enable-background="new 0 0 60.312 118.562"
	 xml:space="preserve">
<g>
	<path fill="#FFFFFF" d="M29.686,0.167c-14.753,0-26.803,12.05-26.803,26.803s12.05,26.69,26.803,26.69s26.689-11.937,26.689-26.69
		S44.438,0.167,29.686,0.167z M29.686,48.817c-12.05,0-21.848-9.797-21.848-21.847S17.636,5.123,29.686,5.123
		S51.533,14.92,51.533,26.97S41.735,48.817,29.686,48.817z"/>
	<path fill="#FFFFFF" d="M29.46,10.19c-9.009,0-11.036,6.645-11.036,9.235c0,1.351,1.126,2.364,2.477,2.364
		c1.352,0,2.478-1.013,2.478-2.364c0-1.014,0.563-4.392,6.082-4.392c2.703,0,4.73,0.788,5.968,2.14
		c1.577,1.689,1.464,3.941,1.352,4.842c-0.338,2.59-1.689,3.941-4.279,3.941c-4.504,0-5.518,2.478-5.518,4.505v2.027
		c0,1.352,1.126,2.478,2.478,2.478s2.478-1.125,2.478-2.478v-1.577c0.113,0,0.338-0.113,0.563-0.113c3.941,0,8.446-2.14,9.122-8.221
		c0.338-3.266-0.45-6.419-2.478-8.672C37.681,12.217,34.641,10.19,29.46,10.19z"/>
	<path fill="#FFFFFF" d="M29.46,37.443c-1.689,0-3.041,1.351-3.041,3.04c0,1.69,1.352,3.041,3.041,3.041
		c1.689,0,3.041-1.351,3.041-3.041C32.501,38.794,31.15,37.443,29.46,37.443z"/>
</g>
<g>
	<path d="M29.686,63.799c-14.753,0-26.803,12.05-26.803,26.803s12.05,26.689,26.803,26.689s26.689-11.937,26.689-26.689
		S44.438,63.799,29.686,63.799z M29.686,112.448c-12.05,0-21.848-9.797-21.848-21.847s9.798-21.848,21.848-21.848
		s21.847,9.798,21.847,21.848S41.735,112.448,29.686,112.448z"/>
	<path d="M29.46,73.821c-9.009,0-11.036,6.645-11.036,9.235c0,1.351,1.126,2.364,2.477,2.364c1.352,0,2.478-1.014,2.478-2.364
		c0-1.015,0.563-4.393,6.082-4.393c2.703,0,4.73,0.788,5.968,2.14c1.577,1.689,1.464,3.941,1.352,4.842
		c-0.338,2.591-1.689,3.942-4.279,3.942c-4.504,0-5.518,2.478-5.518,4.504v2.027c0,1.353,1.126,2.478,2.478,2.478
		s2.478-1.125,2.478-2.478v-1.576c0.113,0,0.338-0.112,0.563-0.112c3.941,0,8.446-2.141,9.122-8.222
		c0.338-3.266-0.45-6.419-2.478-8.671C37.681,75.849,34.641,73.821,29.46,73.821z"/>
	<path d="M29.46,101.075c-1.689,0-3.041,1.351-3.041,3.04s1.352,3.041,3.041,3.041c1.689,0,3.041-1.352,3.041-3.041
		S31.15,101.075,29.46,101.075z"/>
</g>
</svg>
