<?xml version="1.0" encoding="utf-8"?>
<!-- Generator: Adobe Illustrator 15.0.0, SVG Export Plug-In . SVG Version: 6.00 Build 0)  -->
<!DOCTYPE svg PUBLIC "-//W3C//DTD SVG 1.1//EN" "http://www.w3.org/Graphics/SVG/1.1/DTD/svg11.dtd">
<svg version="1.1" id="Capa_1" xmlns="http://www.w3.org/2000/svg" xmlns:xlink="http://www.w3.org/1999/xlink" x="0px" y="0px"
	 width="68.75px" height="125.584px" viewBox="-3.938 3.312 68.75 125.584" enable-background="new -3.938 3.312 68.75 125.584"
	 xml:space="preserve">
<path d="M30.646,91.729c2.301,0,4.163,1.866,4.163,4.165c0,2.304-1.861,4.165-4.163,4.165c-2.299,0-4.163-1.861-4.163-4.165
	C26.483,93.596,28.346,91.729,30.646,91.729z"/>
<path d="M30.646,75.042c-20.827,0-33.302,20.853-33.302,20.853s12.425,20.938,33.302,20.938c20.879,0,33.303-20.938,33.303-20.938
	S51.472,75.042,30.646,75.042z M30.646,108.385c-6.898,0-12.488-5.593-12.488-12.49s5.589-12.49,12.488-12.49
	c6.899,0,12.488,5.593,12.488,12.49S37.544,108.385,30.646,108.385z"/>
<path fill="#FFFFFF" d="M30.646,29.729c2.301,0,4.163,1.866,4.163,4.165c0,2.304-1.861,4.165-4.163,4.165
	c-2.299,0-4.163-1.861-4.163-4.165C26.483,31.596,28.346,29.729,30.646,29.729z"/>
<path fill="#FFFFFF" d="M30.646,13.042c-20.827,0-33.302,20.853-33.302,20.853S9.768,54.832,30.646,54.832
	c20.879,0,33.303-20.938,33.303-20.938S51.472,13.042,30.646,13.042z M30.646,46.385c-6.898,0-12.488-5.593-12.488-12.49
	s5.589-12.49,12.488-12.49c6.899,0,12.488,5.593,12.488,12.49S37.544,46.385,30.646,46.385z"/>
</svg>
