<?xml version="1.0" encoding="utf-8"?>
<!-- Generator: Adobe Illustrator 15.0.0, SVG Export Plug-In . SVG Version: 6.00 Build 0)  -->
<!DOCTYPE svg PUBLIC "-//W3C//DTD SVG 1.1//EN" "http://www.w3.org/Graphics/SVG/1.1/DTD/svg11.dtd">
<svg version="1.1" id="Capa_1" xmlns="http://www.w3.org/2000/svg" xmlns:xlink="http://www.w3.org/1999/xlink" x="0px" y="0px"
	 width="60.312px" height="125.125px" viewBox="0 0 60.312 125.125" enable-background="new 0 0 60.312 125.125"
	 xml:space="preserve">
<circle cx="43.746" cy="75.439" r="4.598"/>
<path d="M55.623,78.181c-0.112,0.275-0.238,0.571-0.372,0.873c-0.5,1.123-1.329,2.934-1.761,4.088
	c-1.76,4.719-6.189,15.897-9.243,17.561c0,0-28.068,13.561-30.917,15.311c-2.727,1.672-3.755,1.021-3.755-0.464v-7.079
	c0,0,0.063-2.863,1.432,0.055c0.523,1.115,1.712,1.602,2.802,1.027l15.245-8.037c1.09-0.574,1.078-1.481-0.026-2.027l-5.388-2.658
	c-1.105-0.546-2.957-0.704-4.138-0.355l-13.54,4.004c0,0-1.962,0.512-1.962-0.746s0-7.271,0-8.373c0-0.748,0.976-0.452,1.775,0.615
	c0.738,0.985,1.831,1.664,2.98,1.221l11.358-4.377c0,0,0.605-0.186,1.292-0.152c0.722,0.034,2.138,0.805,3.259,1.312l7.539,3.434
	c1.12,0.508,2.656,0.145,3.393-0.842c1.529-2.043,3.713-5.19,3.041-5.67c-0.207-0.148-0.371-0.267-0.504-0.359
	c-0.277-0.199-1.281-0.988-2.236-1.766c-3.133-2.553-9.549-7.812-10.933-9.196c-1.405-1.405-0.588-4.681,1.276-4.996
	c1.214-0.206,2.795,1.375,3.654,2.257c2.744,2.82,5.608,6.713,7.156,7.297c1.402,0.531,5.446,1.084,8.209,1.672
	c1.205,0.256,2.905-0.072,3.765-0.957c0.58-0.601,1.215-1.308,1.701-1.996c0.711-1.006,0.475-2.967,0.049-4.121
	c-0.971-2.627-2.532-6.84-2.729-7.215c-0.763-1.456,1.197-3.032,2.84-2.716c1.21,0.229,2.063,2.287,2.585,3.402
	c0.756,1.612,1.778,3.903,2.398,5.729C56.261,75.097,56.091,77.04,55.623,78.181z"/>
<circle fill="#FFFFFF" cx="43.746" cy="11.68" r="4.598"/>
<path fill="#FFFFFF" d="M55.623,14.421c-0.112,0.276-0.238,0.572-0.372,0.873c-0.5,1.124-1.329,2.934-1.761,4.088
	c-1.76,4.72-6.189,15.898-9.243,17.561c0,0-28.068,13.561-30.917,15.311c-2.727,1.672-3.755,1.02-3.755-0.464v-7.08
	c0,0,0.063-2.863,1.432,0.055c0.523,1.115,1.712,1.602,2.802,1.028l15.245-8.038c1.09-0.574,1.078-1.481-0.026-2.027l-5.388-2.66
	c-1.105-0.546-2.957-0.704-4.138-0.355l-13.54,4.003c0,0-1.962,0.512-1.962-0.745c0-1.259,0-7.271,0-8.374
	c0-0.747,0.976-0.452,1.775,0.615c0.738,0.986,1.831,1.664,2.98,1.222l11.358-4.377c0,0,0.605-0.186,1.292-0.153
	c0.722,0.034,2.138,0.805,3.259,1.312l7.539,3.433c1.12,0.508,2.656,0.144,3.393-0.842c1.529-2.043,3.713-5.19,3.041-5.67
	c-0.207-0.148-0.371-0.266-0.504-0.359c-0.277-0.199-1.281-0.988-2.236-1.766c-3.133-2.552-9.549-7.812-10.933-9.196
	c-1.405-1.405-0.588-4.68,1.276-4.996c1.214-0.206,2.795,1.375,3.654,2.257c2.744,2.82,5.608,6.713,7.156,7.297
	c1.402,0.531,5.446,1.083,8.209,1.671c1.205,0.256,2.905-0.072,3.765-0.956c0.58-0.601,1.215-1.308,1.701-1.997
	c0.711-1.006,0.475-2.966,0.049-4.121c-0.971-2.627-2.532-6.84-2.729-7.214c-0.763-1.456,1.197-3.033,2.84-2.717
	c1.21,0.23,2.063,2.288,2.585,3.403c0.756,1.613,1.778,3.903,2.398,5.729C56.261,11.338,56.091,13.281,55.623,14.421z"/>
</svg>
