<?xml version="1.0" encoding="utf-8"?>
<!-- Generator: Adobe Illustrator 15.0.0, SVG Export Plug-In . SVG Version: 6.00 Build 0)  -->
<!DOCTYPE svg PUBLIC "-//W3C//DTD SVG 1.1//EN" "http://www.w3.org/Graphics/SVG/1.1/DTD/svg11.dtd">
<svg version="1.1" id="Capa_1" xmlns="http://www.w3.org/2000/svg" xmlns:xlink="http://www.w3.org/1999/xlink" x="0px" y="0px"
	 width="103.625px" height="125.125px" viewBox="-36.459 -31.337 103.625 125.125"
	 enable-background="new -36.459 -31.337 103.625 125.125" xml:space="preserve">
<circle cx="28.537" cy="47.858" r="4.598"/>
<path d="M40.414,50.599c-0.112,0.276-0.238,0.572-0.372,0.873c-0.5,1.124-1.329,2.934-1.761,4.088
	c-1.759,4.72-6.189,15.898-9.243,17.561c0,0-28.068,13.561-30.917,15.311c-2.727,1.672-3.755,1.02-3.755-0.464v-7.08
	c0,0,0.063-2.863,1.432,0.055c0.523,1.115,1.712,1.602,2.802,1.028l15.245-8.038c1.09-0.574,1.078-1.481-0.026-2.027l-5.388-2.658
	c-1.105-0.546-2.957-0.704-4.138-0.355l-13.54,4.003c0,0-1.962,0.512-1.962-0.745c0-1.259,0-7.271,0-8.374
	c0-0.747,0.976-0.452,1.775,0.615c0.738,0.986,1.831,1.664,2.98,1.222l11.358-4.377c0,0,0.605-0.186,1.292-0.153
	c0.722,0.034,2.138,0.805,3.259,1.313l7.539,3.433c1.12,0.508,2.656,0.144,3.393-0.842c1.529-2.043,3.713-5.19,3.041-5.67
	c-0.208-0.148-0.372-0.266-0.504-0.359c-0.278-0.199-1.281-0.988-2.237-1.766c-3.133-2.552-9.549-7.812-10.932-9.196
	c-1.405-1.405-0.588-4.68,1.276-4.996c1.214-0.206,2.795,1.375,3.654,2.257c2.744,2.82,5.608,6.713,7.156,7.297
	c1.402,0.531,5.446,1.083,8.209,1.671c1.205,0.256,2.905-0.072,3.764-0.956c0.581-0.601,1.215-1.308,1.702-1.997
	c0.711-1.006,0.474-2.966,0.048-4.121c-0.97-2.627-2.532-6.84-2.729-7.214c-0.763-1.456,1.197-3.033,2.84-2.717
	c1.21,0.23,2.063,2.288,2.585,3.403c0.756,1.613,1.778,3.903,2.398,5.729C41.052,47.516,40.882,49.459,40.414,50.599z"/>
<circle fill="#FFFFFF" cx="28.537" cy="-15.901" r="4.598"/>
<path fill="#FFFFFF" d="M40.414-13.16c-0.112,0.276-0.238,0.572-0.372,0.873c-0.5,1.124-1.329,2.934-1.761,4.088
	c-1.759,4.72-6.189,15.898-9.243,17.561c0,0-28.068,13.561-30.917,15.311c-2.727,1.672-3.755,1.02-3.755-0.464v-7.08
	c0,0,0.063-2.863,1.432,0.055c0.523,1.115,1.712,1.602,2.802,1.028l15.245-8.038c1.09-0.574,1.078-1.481-0.026-2.027L8.431,5.487
	C7.326,4.941,5.474,4.783,4.293,5.132l-13.54,4.003c0,0-1.962,0.512-1.962-0.745c0-1.259,0-7.271,0-8.374
	c0-0.747,0.976-0.452,1.775,0.615c0.738,0.986,1.831,1.664,2.98,1.222L4.904-2.524c0,0,0.605-0.186,1.292-0.153
	c0.722,0.034,2.138,0.805,3.259,1.313l7.539,3.433c1.12,0.508,2.656,0.144,3.393-0.842c1.529-2.043,3.713-5.19,3.041-5.67
	c-0.208-0.148-0.372-0.266-0.504-0.359c-0.278-0.199-1.281-0.988-2.237-1.766c-3.133-2.552-9.549-7.812-10.932-9.196
	c-1.405-1.405-0.588-4.68,1.276-4.996c1.214-0.206,2.795,1.375,3.654,2.257c2.744,2.82,5.608,6.713,7.156,7.297
	c1.402,0.531,5.446,1.083,8.209,1.671c1.205,0.256,2.905-0.072,3.764-0.956c0.581-0.601,1.215-1.308,1.702-1.997
	c0.711-1.006,0.474-2.966,0.048-4.121c-0.97-2.627-2.532-6.84-2.729-7.214c-0.763-1.456,1.197-3.033,2.84-2.717
	c1.21,0.23,2.063,2.288,2.585,3.403c0.756,1.613,1.778,3.903,2.398,5.729C41.052-16.243,40.882-14.3,40.414-13.16z"/>
</svg>
