<?xml version="1.0" encoding="utf-8"?>
<!-- Generator: Adobe Illustrator 15.0.0, SVG Export Plug-In . SVG Version: 6.00 Build 0)  -->
<!DOCTYPE svg PUBLIC "-//W3C//DTD SVG 1.1//EN" "http://www.w3.org/Graphics/SVG/1.1/DTD/svg11.dtd">
<svg version="1.1" id="Capa_1" xmlns="http://www.w3.org/2000/svg" xmlns:xlink="http://www.w3.org/1999/xlink" x="0px" y="0px"
	 width="60.312px" height="118.562px" viewBox="0 0 60.312 118.562" enable-background="new 0 0 60.312 118.562"
	 xml:space="preserve">
<g id="scorpio">
	<path d="M49.672,60.038c0,0-0.212,5.069,2.958,4.857c3.17-0.21,2.959-5.175,2.959-5.175s2.006,4.226,0.211,8.771
		c-1.796,4.542-3.593,4.227-4.226,4.332c-0.635,0.105-3.593-2.536-3.593-6.553C47.981,62.256,49.672,60.038,49.672,60.038z"/>
	<path d="M50.649,73.883c-1.461,0.132-0.398,0.664-2.125,2.655c-1.727,1.991-2.657,2.127-2.39,2.923
		c0.265,0.796,0.531,0.664,2.655-0.932c2.125-1.592,3.055-2.786,3.188-3.852C52.11,73.616,50.649,73.883,50.649,73.883z"/>
	<path d="M45.47,79.728c-0.93-0.399-1.461-0.399-2.258,0.662c-0.797,1.064-1.195,1.462-1.859,1.594c-0.665,0.132-1.46,1.195,0,1.063
		c1.461-0.133,1.726-0.664,3.32-1.195c1.594-0.532,1.461-2.391,1.461-2.391L45.47,79.728z"/>
	<path d="M39.625,82.251c-1.692-0.771-3.719,0.397-4.516,0.397c-0.797,0-1.727,1.328-0.532,1.46c1.196,0.132,1.992,0.399,2.126,1.33
		c0.133,0.928-0.665,1.458,1.727,2.391c2.39,0.929,3.983,0.396,3.719-0.266c-0.265-0.664-0.665-0.133-1.727-1.063
		c-1.062-0.93-1.461-0.796-2.523-1.062c-1.062-0.269-1.062-1.86-1.461-1.86c-0.398,0,1.728-0.399,2.79-0.134
		C40.289,83.71,41.086,82.914,39.625,82.251z"/>
	<path d="M43.478,86.766c1.417-0.354,3.586-0.397,3.984,0.53c0.398,0.93-0.531,0.93-2.391,1.062
		C43.211,88.493,41.884,87.164,43.478,86.766z"/>
	<path d="M49.321,86.366c0.531-0.928,1.461-1.192,2.125-1.461c0.664-0.265-0.133-1.858,0.664-2.257
		c0.796-0.397,2.789,0.796,1.726,1.726c-1.062,0.929-1.992,0.531-2.124,1.462c-0.133,0.93-0.797,1.728-1.859,1.728
		C48.789,87.563,49.321,86.366,49.321,86.366z"/>
	<path d="M38.43,89.819c0,0,0.929,0.799,2.39,1.46c1.462,0.665,1.462,1.995,0.798,1.995s-0.531-1.462-1.859-1.33
		c-1.328,0.133-2.125,0-2.391-0.665C37.102,90.618,38.43,89.819,38.43,89.819z"/>
	<path d="M44.407,92.077c1.423-0.354,2.789-0.133,3.585-0.133c0.797,0,1.86,0.931,0.267,1.061c-1.594,0.134-3.321-0.264-4.25-0.264
		C43.079,92.741,43.875,92.21,44.407,92.077z"/>
	<path d="M49.454,91.148c1.327-0.147,1.993,0.131,2.39-0.664c0.399-0.798,0.798-1.063,1.462-1.195
		c0.663-0.134,1.859-0.664,1.726-1.46c-0.132-0.798,0.931,0.664,0.399,1.592c-0.531,0.93-1.86,0.664-2.259,1.595
		c-0.397,0.929-0.664,1.46-2.125,1.46C49.587,92.476,48.259,91.279,49.454,91.148z"/>
	<path d="M38.165,93.139c0,0,0.796,0.271,1.062,1.196c0.267,0.931,1.993,0.134,2.125,1.063s-0.132,2.656-0.132,2.656
		s0.265-1.727-1.063-1.727c-1.328,0-2.391-0.532-2.258-1.46C38.033,93.937,38.165,93.139,38.165,93.139z"/>
	<path d="M43.61,96.993c1.328,0,1.328,0.529,3.055,0.264c1.727-0.264,2.124-0.132,2.257,0.399c0.134,0.531,0.533,0.664-2.391,0.797
		c-2.922,0.132-3.984-1.063-3.984-1.063L43.61,96.993z"/>
	<path d="M52.508,96.595c-0.397,0.662-1.459,1.326-1.726,0.398c-0.267-0.933,0-1.329,1.062-1.728
		c1.062-0.397,1.462-0.931,1.859-1.329c0.399-0.396,1.063,0.134,0.665,1.063C53.969,95.929,52.508,96.595,52.508,96.595z"/>
	<path d="M38.165,98.321c1.062,0.264,0.664,0.661,1.46,1.327c0.797,0.664,1.33,0,1.595,1.328c0.265,1.329,0.132,1.858,0.132,1.858
		s-0.532-2.126-1.594-1.993c-1.063,0.135-1.86-0.264-1.86-1.06C37.898,98.982,38.165,98.321,38.165,98.321z"/>
	<path d="M44.141,101.774c1.737,0.193,1.593,0.531,2.923,0.265c1.329-0.265,1.329,0.398,1.062,0.796
		c-0.265,0.4-1.593,0.664-3.718,0.268C42.282,102.704,42.946,101.641,44.141,101.774z"/>
	<path d="M50.25,101.241c1.196-0.399,0.93-0.929,1.86-1.192c0.93-0.267,1.86-0.8,1.992-1.198c0.132-0.397,0.929,0.398,0.397,1.33
		c-0.531,0.928-1.194,0.796-1.992,0.928c-0.796,0.133-0.663,0.267-1.593,1.062C49.985,102.97,50.25,101.241,50.25,101.241z"/>
	<path d="M12.687,59.586c0,0-0.117,5.073-3.267,4.658c-3.15-0.414-2.618-5.356-2.618-5.356s-2.277,4.086-0.778,8.737
		c1.499,4.648,3.312,4.448,3.938,4.597c0.625,0.146,3.748-2.299,4.008-6.305C14.23,61.91,12.687,59.586,12.687,59.586z"/>
	<path d="M10.903,73.194c1.449,0.229,0.354,0.688,1.949,2.789c1.594,2.1,2.512,2.291,2.196,3.068
		c-0.315,0.781-0.573,0.629-2.59-1.099c-2.018-1.728-2.866-2.982-2.931-4.049C9.461,72.835,10.903,73.194,10.903,73.194z"/>
	<path d="M15.694,79.359c0.953-0.337,1.483-0.303,2.209,0.81c0.727,1.112,1.1,1.536,1.753,1.711s1.379,1.288-0.07,1.06
		c-1.448-0.228-1.679-0.772-3.235-1.406s-1.304-2.481-1.304-2.481L15.694,79.359z"/>
	<path d="M21.363,82.257c1.737-0.657,3.685,0.638,4.479,0.69c0.795,0.052,1.637,1.437,0.437,1.492
		c-1.202,0.057-2.015,0.269-2.207,1.187c-0.193,0.919,0.567,1.502-1.878,2.274c-2.444,0.773-4,0.14-3.692-0.505
		c0.307-0.644,0.67-0.093,1.791-0.95c1.12-0.857,1.51-0.698,2.586-0.896c1.078-0.198,1.182-1.786,1.58-1.761
		c0.397,0.025-1.697-0.511-2.775-0.313C20.605,83.672,19.862,82.826,21.363,82.257z"/>
	<path d="M17.227,86.514c-1.392-0.446-3.553-0.628-4.011,0.274c-0.458,0.898,0.47,0.962,2.316,1.214
		C17.38,88.254,18.792,87.015,17.227,86.514z"/>
	<path d="M11.421,85.739c-0.471-0.963-1.381-1.288-2.026-1.596c-0.646-0.307,0.251-1.848-0.519-2.296
		c-0.769-0.449-2.833,0.613-1.833,1.609c1,0.998,1.955,0.659,2.027,1.596c0.072,0.938,0.683,1.775,1.744,1.844
		C11.873,86.965,11.421,85.739,11.421,85.739z"/>
	<path d="M22.065,89.89c0,0-0.979,0.733-2.48,1.302c-1.5,0.569-1.588,1.894-0.925,1.939c0.665,0.04,0.625-1.427,1.941-1.206
		c1.318,0.217,2.121,0.136,2.43-0.511C23.339,90.771,22.065,89.89,22.065,89.89z"/>
	<path d="M15.956,91.755c-1.398-0.445-2.775-0.312-3.57-0.365c-0.795-0.051-1.917,0.809-0.334,1.044
		c1.583,0.235,3.332-0.05,4.258,0.011C17.237,92.504,16.477,91.921,15.956,91.755z"/>
	<path d="M10.979,90.502c-1.314-0.233-1.996,0.002-2.343-0.818c-0.346-0.821-0.727-1.111-1.382-1.286
		c-0.652-0.175-1.812-0.784-1.628-1.57c0.185-0.786-0.971,0.604-0.5,1.565c0.47,0.959,1.813,0.782,2.15,1.736
		c0.338,0.954,0.568,1.5,2.026,1.596C10.76,91.816,12.163,90.711,10.979,90.502z"/>
	<path d="M22.115,93.22c0,0-0.812,0.215-1.137,1.127c-0.325,0.906-1.997,0.001-2.189,0.92c-0.192,0.92-0.04,2.661-0.04,2.661
		s-0.152-1.741,1.172-1.656s2.421-0.376,2.349-1.312C22.196,94.022,22.115,93.22,22.115,93.22z"/>
	<path d="M16.434,96.71c-1.327-0.085-1.36,0.444-3.066,0.067c-1.707-0.375-2.113-0.268-2.279,0.253
		c-0.167,0.522-0.574,0.627,2.333,0.95c2.908,0.321,4.044-0.804,4.044-0.804L16.434,96.71z"/>
	<path d="M7.579,95.736c0.354,0.69,1.371,1.423,1.696,0.511c0.325-0.91,0.086-1.326-0.947-1.792
		c-1.036-0.468-1.398-1.022-1.771-1.443c-0.373-0.428-1.069,0.062-0.732,1.015C6.164,94.98,7.579,95.736,7.579,95.736z"/>
	<path d="M21.78,98.388c-1.078,0.197-0.706,0.621-1.543,1.231c-0.838,0.611-1.326-0.087-1.676,1.222s-0.252,1.848-0.252,1.848
		s0.668-2.086,1.719-1.885s1.872-0.146,1.924-0.941C22.002,99.066,21.78,98.388,21.78,98.388z"/>
	<path d="M15.592,101.448c-1.744,0.079-1.624,0.427-2.932,0.075c-1.308-0.35-1.351,0.312-1.112,0.726
		c0.24,0.416,1.547,0.768,3.694,0.507C17.389,102.496,16.795,101.393,15.592,101.448z"/>
	<path d="M9.531,100.524c-1.167-0.476-0.868-0.989-1.778-1.315c-0.911-0.324-1.805-0.916-1.911-1.321
		c-0.106-0.405-0.954,0.337-0.484,1.298c0.47,0.965,1.142,0.875,1.928,1.058c0.787,0.187,0.646,0.308,1.523,1.163
		C9.684,102.263,9.531,100.524,9.531,100.524z"/>
	<path d="M28.469,73.616c0,0-0.398,4.25,1.46,4.25c1.86,0,2.922-4.382,2.922-4.382s1.328,2.921,0.398,4.382
		c-0.929,1.462-1.195,1.86-0.266,2.79c0.93,0.929,1.328,0.928,0.93,1.857c-0.398,0.931,0.797,1.327,0.93,2.656
		c0.133,1.33-0.133,2.924-3.321,3.323c-3.187,0.397-5.179-0.532-5.71-1.728c-0.531-1.195,0.664-1.463,1.062-2.392
		c0.399-0.93,0.664-2.123-0.398-2.259c-1.062-0.132,0-1.329,0.664-1.858c0.664-0.529,0.798-1.858,0.798-1.858
		S26.211,75.74,28.469,73.616z"/>
	<path d="M24.883,88.493l1.594,0.928c0,0,0.398,1.992,3.453,1.728c3.055-0.266,4.251-2.258,4.251-2.258s1.326-0.665,1.593,0.53
		c0.265,1.197,1.727,1.992-0.797,3.055c-2.523,1.064-4.384,1.595-7.039,1.064c-2.657-0.535-3.455-1.728-3.586-2.524
		C24.219,90.217,24.883,88.493,24.883,88.493z"/>
	<path d="M23.554,92.741c0,0,0.132,1.992,0.532,3.055c0.398,1.063,0.531,2.391,4.118,2.657c3.586,0.266,4.781,0.397,6.242-0.797
		c1.461-1.196,1.859-2.656,1.594-3.452c-0.265-0.797,0-0.268-2.257,0.529c-2.259,0.798-3.321,1.195-6.243,0.532
		C24.618,94.602,23.554,92.741,23.554,92.741z"/>
	<path d="M23.687,98.055c0,0,1.33,1.994,5.049,1.994c3.719,0,5.577-0.134,6.242-0.799s1.593-1.594,1.593-1.594s0,2.524-1.46,4.118
		c-1.461,1.593-2.523,1.725-5.71,1.593c-3.188-0.132-5.313-1.46-5.712-2.391C23.289,100.049,23.687,98.055,23.687,98.055z"/>
	<path d="M31.782,106.552c-1.615,0-2.258-1.196-0.797-1.992c1.461-0.797,2.656-0.797,3.32-1.062
		c0.665-0.267,1.861,0.399,2.259,1.992c0.398,1.595,1.328,2.521,0,2.788c-1.328,0.266-1.593,0.133-2.524,0
		C33.11,108.146,32.446,106.552,31.782,106.552z"/>
	<path d="M36.927,109.409c-1.001,0.356-0.453,0.483-1.536,1.218c-1.084,0.732-2.022,0.768-1.836,1.81
		c0.187,1.047,1.134,1.82,1.909,0.874c0.775-0.947,1.276-1.17,1.943-1.964C38.075,110.555,37.688,109.138,36.927,109.409z"/>
	<path d="M31.695,114.118c-1.223-0.052-2.377,0.288-3.838,0.414c-1.461,0.126-1.891,0.741-1.121,1.28
		c0.77,0.537,0.401,0.738,2.624,0.342c2.224-0.396,3.161-0.43,3.175-1.104C32.55,114.37,31.695,114.118,31.695,114.118z"/>
	<path d="M23.795,114.448c-1.5-0.757-2.718-0.868-3.148-0.248c-0.429,0.615-0.122,0.832,1.064,1.429
		c1.188,0.598,1.994,0.588,2.672,0.604C25.06,116.246,24.981,115.046,23.795,114.448z"/>
	<path d="M18.562,107.277c0,0-2.261,0.944-1.481,2.291c0.78,1.344,0.78,1.344,0.78,1.344s-0.868,0.426-0.159,1.376
		c0.709,0.953,1.826,1.159,1.817,0.354c-0.01-0.812-0.103-1.333-0.103-1.333s0.546,0.036,1.476-0.803
		c0.928-0.841-0.513-2.875-0.513-2.875s0.063,1.875-1.16,1.824C17.998,109.406,18.562,107.277,18.562,107.277z"/>
</g>
<g id="scorpio_1_">
	<path fill="#FFFFFF" d="M49.672,2.563c0,0-0.212,5.069,2.958,4.857c3.17-0.21,2.959-5.175,2.959-5.175s2.006,4.226,0.211,8.77
		c-1.796,4.543-3.593,4.228-4.226,4.333c-0.635,0.105-3.593-2.537-3.593-6.552C47.981,4.782,49.672,2.563,49.672,2.563z"/>
	<path fill="#FFFFFF" d="M50.649,16.409c-1.461,0.132-0.398,0.664-2.125,2.656c-1.727,1.991-2.657,2.126-2.39,2.922
		c0.265,0.796,0.531,0.665,2.655-0.931c2.125-1.592,3.055-2.786,3.188-3.852C52.11,16.142,50.649,16.409,50.649,16.409z"/>
	<path fill="#FFFFFF" d="M45.47,22.253c-0.93-0.4-1.461-0.4-2.258,0.662c-0.797,1.064-1.195,1.462-1.859,1.594
		c-0.665,0.132-1.46,1.195,0,1.063c1.461-0.133,1.726-0.664,3.32-1.195c1.594-0.532,1.461-2.391,1.461-2.391L45.47,22.253z"/>
	<path fill="#FFFFFF" d="M39.625,24.777c-1.692-0.771-3.719,0.397-4.516,0.397c-0.797,0-1.727,1.329-0.532,1.46
		c1.196,0.131,1.992,0.399,2.126,1.329c0.133,0.928-0.665,1.458,1.727,2.391c2.39,0.929,3.983,0.396,3.719-0.266
		c-0.265-0.664-0.665-0.133-1.727-1.064c-1.062-0.93-1.461-0.796-2.523-1.062c-1.062-0.268-1.062-1.859-1.461-1.859
		c-0.398,0,1.728-0.4,2.79-0.134C40.289,26.236,41.086,25.44,39.625,24.777z"/>
	<path fill="#FFFFFF" d="M43.478,29.291c1.417-0.354,3.586-0.397,3.984,0.53c0.398,0.93-0.531,0.93-2.391,1.063
		C43.211,31.019,41.884,29.69,43.478,29.291z"/>
	<path fill="#FFFFFF" d="M49.321,28.892c0.531-0.928,1.461-1.192,2.125-1.46c0.664-0.265-0.133-1.859,0.664-2.257
		c0.796-0.397,2.789,0.796,1.726,1.726c-1.062,0.929-1.992,0.531-2.124,1.461c-0.133,0.93-0.797,1.728-1.859,1.728
		C48.789,30.089,49.321,28.892,49.321,28.892z"/>
	<path fill="#FFFFFF" d="M38.43,32.345c0,0,0.929,0.799,2.39,1.46c1.462,0.666,1.462,1.995,0.798,1.995s-0.531-1.461-1.859-1.329
		c-1.328,0.133-2.125,0-2.391-0.666C37.102,33.145,38.43,32.345,38.43,32.345z"/>
	<path fill="#FFFFFF" d="M44.407,34.604c1.423-0.355,2.789-0.133,3.585-0.133c0.797,0,1.86,0.93,0.267,1.061
		c-1.594,0.134-3.321-0.264-4.25-0.264C43.079,35.268,43.875,34.736,44.407,34.604z"/>
	<path fill="#FFFFFF" d="M49.454,33.675c1.327-0.148,1.993,0.13,2.39-0.665c0.399-0.798,0.798-1.063,1.462-1.195
		c0.663-0.134,1.859-0.664,1.726-1.46c-0.132-0.798,0.931,0.664,0.399,1.592c-0.531,0.93-1.86,0.664-2.259,1.595
		c-0.397,0.929-0.664,1.46-2.125,1.46C49.587,35.002,48.259,33.805,49.454,33.675z"/>
	<path fill="#FFFFFF" d="M38.165,35.665c0,0,0.796,0.27,1.062,1.195c0.267,0.931,1.993,0.134,2.125,1.064
		c0.132,0.93-0.132,2.657-0.132,2.657s0.265-1.727-1.063-1.727c-1.328,0-2.391-0.532-2.258-1.46
		C38.033,36.462,38.165,35.665,38.165,35.665z"/>
	<path fill="#FFFFFF" d="M43.61,39.519c1.328,0,1.328,0.529,3.055,0.264c1.727-0.264,2.124-0.132,2.257,0.399
		c0.134,0.532,0.533,0.665-2.391,0.797c-2.922,0.132-3.984-1.064-3.984-1.064L43.61,39.519z"/>
	<path fill="#FFFFFF" d="M52.508,39.121c-0.397,0.662-1.459,1.326-1.726,0.398c-0.267-0.933,0-1.329,1.062-1.728
		c1.062-0.397,1.462-0.931,1.859-1.33c0.399-0.396,1.063,0.134,0.665,1.064C53.969,38.455,52.508,39.121,52.508,39.121z"/>
	<path fill="#FFFFFF" d="M38.165,40.848c1.062,0.264,0.664,0.661,1.46,1.327c0.797,0.663,1.33,0,1.595,1.327
		c0.265,1.33,0.132,1.859,0.132,1.859s-0.532-2.125-1.594-1.993c-1.063,0.134-1.86-0.265-1.86-1.061
		C37.898,41.508,38.165,40.848,38.165,40.848z"/>
	<path fill="#FFFFFF" d="M44.141,44.3c1.737,0.193,1.593,0.531,2.923,0.265c1.329-0.265,1.329,0.398,1.062,0.796
		c-0.265,0.4-1.593,0.664-3.718,0.268C42.282,45.23,42.946,44.166,44.141,44.3z"/>
	<path fill="#FFFFFF" d="M50.25,43.767c1.196-0.398,0.93-0.929,1.86-1.192c0.93-0.267,1.86-0.799,1.992-1.197
		c0.132-0.397,0.929,0.398,0.397,1.329c-0.531,0.928-1.194,0.796-1.992,0.928c-0.796,0.133-0.663,0.267-1.593,1.062
		C49.985,45.496,50.25,43.767,50.25,43.767z"/>
	<path fill="#FFFFFF" d="M12.687,2.112c0,0-0.117,5.073-3.267,4.659C6.27,6.356,6.802,1.414,6.802,1.414S4.525,5.5,6.024,10.151
		c1.499,4.649,3.312,4.448,3.938,4.597c0.625,0.147,3.748-2.298,4.008-6.305C14.23,4.436,12.687,2.112,12.687,2.112z"/>
	<path fill="#FFFFFF" d="M10.903,15.72c1.449,0.229,0.354,0.688,1.949,2.79c1.594,2.1,2.512,2.291,2.196,3.068
		c-0.315,0.781-0.573,0.629-2.59-1.099c-2.018-1.727-2.866-2.982-2.931-4.049C9.461,15.361,10.903,15.72,10.903,15.72z"/>
	<path fill="#FFFFFF" d="M15.694,21.886c0.953-0.337,1.483-0.303,2.209,0.81c0.727,1.111,1.1,1.536,1.753,1.711
		c0.654,0.174,1.379,1.288-0.07,1.06c-1.448-0.228-1.679-0.773-3.235-1.407c-1.556-0.633-1.304-2.481-1.304-2.481L15.694,21.886z"/>
	<path fill="#FFFFFF" d="M21.363,24.782c1.737-0.657,3.685,0.638,4.479,0.691c0.795,0.052,1.637,1.437,0.437,1.492
		c-1.202,0.058-2.015,0.269-2.207,1.187c-0.193,0.919,0.567,1.502-1.878,2.274c-2.444,0.773-4,0.14-3.692-0.505
		c0.307-0.644,0.67-0.092,1.791-0.95c1.12-0.857,1.51-0.698,2.586-0.896c1.078-0.198,1.182-1.787,1.58-1.761
		c0.397,0.025-1.697-0.51-2.775-0.313C20.605,26.198,19.862,25.352,21.363,24.782z"/>
	<path fill="#FFFFFF" d="M17.227,29.04c-1.392-0.446-3.553-0.628-4.011,0.274c-0.458,0.899,0.47,0.963,2.316,1.215
		C17.38,30.78,18.792,29.541,17.227,29.04z"/>
	<path fill="#FFFFFF" d="M11.421,28.265c-0.471-0.963-1.381-1.288-2.026-1.595c-0.646-0.307,0.251-1.848-0.519-2.296
		c-0.769-0.448-2.833,0.613-1.833,1.61c1,0.998,1.955,0.659,2.027,1.595c0.072,0.938,0.683,1.776,1.744,1.844
		C11.873,29.491,11.421,28.265,11.421,28.265z"/>
	<path fill="#FFFFFF" d="M22.065,32.416c0,0-0.979,0.733-2.48,1.302c-1.5,0.569-1.588,1.894-0.925,1.939
		c0.665,0.04,0.625-1.426,1.941-1.207c1.318,0.217,2.121,0.136,2.43-0.51C23.339,33.296,22.065,32.416,22.065,32.416z"/>
	<path fill="#FFFFFF" d="M15.956,34.28c-1.398-0.445-2.775-0.312-3.57-0.364c-0.795-0.051-1.917,0.809-0.334,1.043
		c1.583,0.236,3.332-0.05,4.258,0.011C17.237,35.029,16.477,34.447,15.956,34.28z"/>
	<path fill="#FFFFFF" d="M10.979,33.027c-1.314-0.232-1.996,0.002-2.343-0.818c-0.346-0.822-0.727-1.112-1.382-1.286
		c-0.652-0.175-1.812-0.784-1.628-1.57c0.185-0.787-0.971,0.604-0.5,1.565c0.47,0.96,1.813,0.782,2.15,1.736
		c0.338,0.955,0.568,1.5,2.026,1.596C10.76,34.342,12.163,33.237,10.979,33.027z"/>
	<path fill="#FFFFFF" d="M22.115,35.746c0,0-0.812,0.215-1.137,1.126c-0.325,0.907-1.997,0.001-2.189,0.92
		c-0.192,0.92-0.04,2.661-0.04,2.661s-0.152-1.74,1.172-1.655s2.421-0.376,2.349-1.312C22.196,36.548,22.115,35.746,22.115,35.746z"
		/>
	<path fill="#FFFFFF" d="M16.434,39.235c-1.327-0.085-1.36,0.444-3.066,0.068c-1.707-0.375-2.113-0.268-2.279,0.253
		c-0.167,0.521-0.574,0.627,2.333,0.95c2.908,0.321,4.044-0.803,4.044-0.803L16.434,39.235z"/>
	<path fill="#FFFFFF" d="M7.579,38.262c0.354,0.69,1.371,1.423,1.696,0.511c0.325-0.911,0.086-1.326-0.947-1.793
		c-1.036-0.467-1.398-1.022-1.771-1.443C6.185,35.11,5.488,35.6,5.825,36.552C6.164,37.506,7.579,38.262,7.579,38.262z"/>
	<path fill="#FFFFFF" d="M21.78,40.914c-1.078,0.198-0.706,0.622-1.543,1.231c-0.838,0.611-1.326-0.087-1.676,1.222
		c-0.351,1.308-0.252,1.847-0.252,1.847s0.668-2.086,1.719-1.884c1.051,0.201,1.872-0.146,1.924-0.942
		C22.002,41.592,21.78,40.914,21.78,40.914z"/>
	<path fill="#FFFFFF" d="M15.592,43.974c-1.744,0.08-1.624,0.427-2.932,0.075c-1.308-0.35-1.351,0.312-1.112,0.726
		c0.24,0.416,1.547,0.768,3.694,0.507C17.389,45.021,16.795,43.918,15.592,43.974z"/>
	<path fill="#FFFFFF" d="M9.531,43.05c-1.167-0.476-0.868-0.989-1.778-1.315c-0.911-0.324-1.805-0.916-1.911-1.321
		c-0.106-0.406-0.954,0.337-0.484,1.297c0.47,0.965,1.142,0.875,1.928,1.058c0.787,0.187,0.646,0.308,1.523,1.164
		C9.684,44.789,9.531,43.05,9.531,43.05z"/>
	<path fill="#FFFFFF" d="M28.469,16.142c0,0-0.398,4.25,1.46,4.25c1.86,0,2.922-4.382,2.922-4.382s1.328,2.921,0.398,4.382
		c-0.929,1.461-1.195,1.859-0.266,2.79c0.93,0.929,1.328,0.928,0.93,1.857c-0.398,0.931,0.797,1.327,0.93,2.657
		c0.133,1.329-0.133,2.923-3.321,3.323c-3.187,0.397-5.179-0.532-5.71-1.728c-0.531-1.195,0.664-1.462,1.062-2.391
		c0.399-0.93,0.664-2.124-0.398-2.259c-1.062-0.132,0-1.33,0.664-1.859c0.664-0.529,0.798-1.858,0.798-1.858
		S26.211,18.266,28.469,16.142z"/>
	<path fill="#FFFFFF" d="M24.883,31.019l1.594,0.928c0,0,0.398,1.993,3.453,1.728c3.055-0.266,4.251-2.258,4.251-2.258
		s1.326-0.665,1.593,0.53c0.265,1.198,1.727,1.993-0.797,3.055c-2.523,1.063-4.384,1.594-7.039,1.063
		c-2.657-0.534-3.455-1.727-3.586-2.523C24.219,32.743,24.883,31.019,24.883,31.019z"/>
	<path fill="#FFFFFF" d="M23.554,35.268c0,0,0.132,1.991,0.532,3.054c0.398,1.063,0.531,2.391,4.118,2.658
		c3.586,0.266,4.781,0.397,6.242-0.797c1.461-1.196,1.859-2.656,1.594-3.452c-0.265-0.797,0-0.268-2.257,0.529
		c-2.259,0.798-3.321,1.196-6.243,0.533C24.618,37.127,23.554,35.268,23.554,35.268z"/>
	<path fill="#FFFFFF" d="M23.687,40.581c0,0,1.33,1.993,5.049,1.993c3.719,0,5.577-0.134,6.242-0.798
		c0.665-0.665,1.593-1.594,1.593-1.594s0,2.524-1.46,4.118c-1.461,1.593-2.523,1.725-5.71,1.593
		c-3.188-0.132-5.313-1.46-5.712-2.391C23.289,42.574,23.687,40.581,23.687,40.581z"/>
	<path fill="#FFFFFF" d="M31.782,49.078c-1.615,0-2.258-1.196-0.797-1.992c1.461-0.797,2.656-0.797,3.32-1.063
		c0.665-0.267,1.861,0.4,2.259,1.993c0.398,1.595,1.328,2.521,0,2.789c-1.328,0.266-1.593,0.133-2.524,0
		C33.11,50.672,32.446,49.078,31.782,49.078z"/>
	<path fill="#FFFFFF" d="M36.927,51.935c-1.001,0.356-0.453,0.484-1.536,1.218c-1.084,0.732-2.022,0.767-1.836,1.81
		c0.187,1.046,1.134,1.82,1.909,0.874s1.276-1.17,1.943-1.964C38.075,53.081,37.688,51.663,36.927,51.935z"/>
	<path fill="#FFFFFF" d="M31.695,56.644c-1.223-0.052-2.377,0.288-3.838,0.414c-1.461,0.125-1.891,0.741-1.121,1.281
		c0.77,0.537,0.401,0.737,2.624,0.341c2.224-0.396,3.161-0.43,3.175-1.104C32.55,56.896,31.695,56.644,31.695,56.644z"/>
	<path fill="#FFFFFF" d="M23.795,56.975c-1.5-0.757-2.718-0.869-3.148-0.249c-0.429,0.615-0.122,0.832,1.064,1.429
		c1.188,0.597,1.994,0.588,2.672,0.604C25.06,58.772,24.981,57.572,23.795,56.975z"/>
	<path fill="#FFFFFF" d="M18.562,49.804c0,0-2.261,0.943-1.481,2.291c0.78,1.343,0.78,1.343,0.78,1.343s-0.868,0.426-0.159,1.376
		c0.709,0.953,1.826,1.159,1.817,0.354c-0.01-0.812-0.103-1.333-0.103-1.333s0.546,0.036,1.476-0.803
		c0.928-0.84-0.513-2.875-0.513-2.875s0.063,1.875-1.16,1.825C17.998,51.932,18.562,49.804,18.562,49.804z"/>
</g>
</svg>
