<?xml version="1.0" encoding="utf-8"?>
<!-- Generator: Adobe Illustrator 15.0.0, SVG Export Plug-In . SVG Version: 6.00 Build 0)  -->
<!DOCTYPE svg PUBLIC "-//W3C//DTD SVG 1.1//EN" "http://www.w3.org/Graphics/SVG/1.1/DTD/svg11.dtd">
<svg version="1.1" id="Capa_1" xmlns="http://www.w3.org/2000/svg" xmlns:xlink="http://www.w3.org/1999/xlink" x="0px" y="0px"
	 width="68.75px" height="140.084px" viewBox="-3.938 -11.188 68.75 140.084" enable-background="new -3.938 -11.188 68.75 140.084"
	 xml:space="preserve">
<path d="M18.708,60.306c0.083-0.311-0.849-0.374-1.592-0.354c-0.207-0.062-0.642-0.393-1.24-0.247
	c-0.6,0.145-1.427,0.351-1.881,0.599s-1.033,0.455-1.446,0.497c-0.414,0.04-2.047,0.867-2.15,0.991
	c-0.037,0.046-0.011,0.063,0.037,0.067c-0.024,0.036-0.032,0.064-0.03,0.085c-0.013,0.008-0.024,0.016-0.032,0.028
	c-0.044,0.065-0.042,0.102-0.016,0.12c-0.031,0.012-0.061,0.025-0.077,0.051c-0.036,0.054-0.041,0.087-0.028,0.108
	c-0.032,0.011-0.062,0.024-0.078,0.05c-0.022,0.034-0.032,0.059-0.034,0.079c-0.035,0.011-0.067,0.026-0.085,0.053
	c-0.008,0.013-0.014,0.023-0.019,0.034c-0.041,0.012-0.079,0.027-0.1,0.059c-0.017,0.025-0.027,0.047-0.031,0.065
	c-0.036,0.011-0.069,0.025-0.087,0.053c-0.002,0.004-0.003,0.008-0.005,0.011c-0.054,0.014-0.113,0.028-0.14,0.069
	c-0.021,0.032-0.031,0.056-0.033,0.075c-0.598,0.434-2.468,1.885-2.796,2.342c-0.02,0.009-0.038,0.022-0.049,0.038
	c-0.044,0.068-0.042,0.104-0.016,0.123c-0.002,0.013-0.004,0.024-0.007,0.036c-0.011,0.009-0.022,0.016-0.03,0.025
	c-0.058,0.088-0.036,0.125,0.015,0.134c0,0.011-0.001,0.022-0.001,0.033c-0.027,0.011-0.051,0.023-0.066,0.046
	c-0.036,0.054-0.041,0.087-0.028,0.108c-0.004,0.004-0.009,0.006-0.012,0.01c-0.042,0.065-0.042,0.102-0.019,0.12
	c-0.018,0.01-0.036,0.021-0.047,0.038c-0.038,0.058-0.041,0.093-0.025,0.112c-0.027,0.012-0.052,0.024-0.067,0.047
	c-0.025,0.037-0.035,0.065-0.034,0.087c-0.041,0.012-0.078,0.028-0.098,0.059c-0.024,0.036-0.034,0.062-0.034,0.084
	c-0.029,0.011-0.056,0.024-0.072,0.048c-0.062,0.095-0.032,0.129,0.028,0.135c-0.626,0.754-1.969,2.359-2.021,2.685
	c-0.062,0.393,1.406-0.538,1.406-0.538l0.124,0.021l-1.282,1.426c0,0,2.542-2.066,3.246-2.335c0.35-0.135,0.653-0.268,0.87-0.368
	c-0.033,0.248-0.064,0.498-0.111,0.74c-0.061,0.312-0.032,0.648-0.047,0.965c-0.007,0.147-0.041,0.315,0.033,0.449
	c0.041,0.075,0.11,0.119,0.166,0.178c0.076,0.081,0.119,0.209,0.217,0.272c0.085,0.055,0.205,0.116,0.303,0.153
	c0.018,0.007,0.037,0.014,0.057,0.021l0.001,0.028l0.07-0.01c0.056,0.013,0.114,0.019,0.17,0.006
	c0.031-0.008,0.058-0.021,0.081-0.037l0.175-0.021c0,0,0.062-1.137,0.207-1.632c0.145-0.497,0.414-0.641,0.414-0.641
	s0.93,0.909,1.116,1.177c0.187,0.27,0.393-0.227,0.393-0.227l-0.703-0.807l0.145-0.206c0,0,0.723,0.682,0.95,1.302
	c0.228,0.62,0.373-0.31,0.373-0.31s-0.517-0.744-0.662-0.91c-0.145-0.165,0.145-0.331,0.145-0.331l0.124,0.125L12.61,67l0.103,0.124
	c0,0,1.075-1.509,1.364-2.191c0.289-0.682,0.703-1.178,0.703-1.178l0.145,0.207c0,0,1.115-1.881,1.88-2.316
	c0.413-0.268,0.496-0.515,0.972-0.454c0.014,0.003,0.027,0.003,0.041,0.005c0.277,0.003,0.588,0.021,0.771-0.172
	c0,0-0.001,0-0.002-0.001c-0.16,0.117-0.646-0.076-0.969-0.219c-0.049-0.015-0.482-0.208-0.502-0.212
	C17.116,60.593,17.779,60.202,18.708,60.306z"/>
<g>
	<path d="M4.442,78.314c-0.159,0.279-0.312,0.56-0.452,0.843C4.123,78.901,4.31,78.608,4.442,78.314z"/>
	<path d="M0.04,68.566c0.114,0.03,0.244,0.062,0.383,0.096C0.295,68.621,0.167,68.584,0.04,68.566z"/>
	<path d="M58.263,76.957c0.001,0.413,0.001,0.827,0.003,1.24C58.29,77.78,58.284,77.362,58.263,76.957z"/>
	<path d="M59.707,74.355c0.027,0.044,0.062,0.1,0.1,0.156c-0.028-0.054-0.057-0.106-0.086-0.16
		C59.721,74.354,59.718,74.355,59.707,74.355z"/>
	<path d="M60.231,76.032c0.103,0.157,0.209,0.309,0.316,0.454c-0.027-0.369-0.124-0.562-0.302-0.82
		C60.229,75.787,60.227,75.909,60.231,76.032z"/>
	<path d="M59.807,74.512c0.057,0.11,0.114,0.22,0.166,0.322C59.948,74.742,59.876,74.621,59.807,74.512z"/>
	<path d="M62.664,73.387v-2.7h-2.259c0.186-0.119,0.365-0.245,0.527-0.387c-0.285,0.093-0.57,0.236-0.835,0.387h-0.195
		c0.318-0.42,0.732-0.766,1.104-1.142c-0.822,0.394-1.655,0.771-2.486,1.142h-0.017c0.528-0.369,1.128-0.621,1.688-0.936
		c-0.342,0.08-0.696,0.149-1.041,0.201c0.015-0.103,0.062-0.164,0.084-0.267c-0.144,0.084-0.252,0.131-0.354,0.196
		c0.235-0.21,0.465-0.427,0.713-0.621c-0.704,0.179-1.658,0.572-2.384,1.062c-0.58-0.253-1.308-0.302-1.918-0.361
		c-1.117-0.109-2.034-0.346-3.007-0.6c-2.206-0.578-4.461-0.449-6.851-0.543c-0.569-0.021-1.079-0.15-1.572-0.287
		c-0.171-0.02-0.342-0.067-0.5-0.116c-0.062-0.02-0.119-0.045-0.173-0.073c-0.007,0.001-0.015,0.002-0.022,0.003
		c-0.277-0.068-0.557-0.125-0.846-0.148c-0.554-0.048-1.138,0.147-1.726,0.313c-0.028-0.003-0.058-0.006-0.084-0.009
		c-0.683-0.093-1.34-0.201-2-0.271c-0.218-0.729-1.463-0.986-2.089-1.098c-0.236-0.042-0.234,0.188-0.483,0.059
		c-0.236-0.123-0.349-0.5-0.501-0.704c-0.514-0.691-1.272-0.593-1.807-1.236c0.366-0.883,0.578-0.039,0.584-1.14
		c0.144-0.027,0.327-0.03,0.419-0.059c0.16-0.049,0.34-0.122,0.463-0.206c0.065-0.044-0.009-0.103,0.106-0.113
		c0.102,0.052,0.186,0.132,0.282,0.187c0.042-0.203-0.017-0.409,0.033-0.608c0.081,0.061,0.196,0.256,0.35,0.223
		c0.138-0.031,0.059-0.35,0.045-0.422c0.052-0.001,0.125-0.012,0.176-0.001c-0.024-0.005-0.05-0.011-0.075-0.014
		c0.105,0.015,0.215,0.014,0.32,0.021c0.006-0.132,0.145-0.278,0.198-0.407c0.094,0.013,0.145-0.012,0.212-0.039
		c0.13-0.055,0.076-0.101,0.194-0.164c-0.017-0.01-0.035-0.023-0.049-0.033c0.04-0.011,0.098-0.056,0.141-0.065
		c-0.041-0.01-0.074-0.039-0.113-0.048c0.038-0.031,0.027-0.046,0.035-0.091c0.016-0.114,0.104-0.203,0.146-0.308
		c0.047-0.12,0.05-0.168,0.196-0.283c-0.145-0.15-0.067-0.214-0.062-0.382c0.005-0.151-0.199-0.303-0.207-0.476
		c-0.059-0.041-0.09-0.105-0.202-0.12c0.018-0.048,0.005-0.088-0.05-0.108c0.082-0.076,0.053-0.197,0.067-0.285
		c-0.036,0.004-0.093-0.013-0.114-0.012c0.158-0.116-0.014-0.207-0.134-0.281c-0.162-0.102-0.343-0.168-0.474-0.271
		c-0.073-0.058-0.125-0.107-0.257-0.142c-0.075-0.021-0.223-0.017-0.291-0.042c-0.045-0.019-0.048-0.062-0.081-0.079
		c-0.102-0.053-0.319-0.126-0.343-0.225c-0.096,0.009-0.134-0.02-0.218-0.035c-0.231-0.042-0.475-0.082-0.707-0.126
		c0.036-0.101-0.17-0.144-0.289-0.168c-0.003-0.015,0-0.021-0.007-0.035c-0.107-0.021-0.213-0.032-0.32-0.038
		c-0.002-0.164,0-0.369,0.009-0.624c0.037-0.963-1.02-2.779-1.02-2.779l-1.076-0.2c0,0-0.742,0.05-2.244-0.175
		c-1.48-0.222-1.502,0.333-1.502,0.35c-0.001,0.065-0.125,0.176-0.165,0.232c-0.12,0.168-0.239,0.336-0.359,0.504
		c-0.105,0.147-0.355,1.838-0.464,1.985c-0.121,0.161-0.196,0.182-0.492,0.147c-0.009,0.016-0.02,0.032-0.026,0.049
		c-0.028-0.002-0.061,0-0.087-0.002c-0.049,0.062-0.221,0.073-0.319,0.103c-0.045,0.013-0.108,0.052-0.167,0.063
		c-0.092,0.017-0.192-0.016-0.282,0.024c-0.03,0.013-0.018,0.052-0.035,0.061c-0.138,0.058-0.225,0.02-0.379,0.057
		c-0.023,0.005-0.019,0.058-0.021,0.058c-0.058,0.018-0.131,0.019-0.194,0.037c-0.084,0.022-0.108,0.068-0.21,0.083
		c-0.009-0.005-0.011-0.01-0.008-0.016c-0.091,0.229-0.625,0.157-0.667,0.367c-0.189,0.042-0.178,0.092-0.237,0.188
		c-0.066,0.109-0.159,0.141-0.337,0.18c-0.009,0.071-0.115,0.079-0.213,0.095c0.011,0.009,0.025,0.027,0.043,0.037
		c0.003,0.005,0.003,0.033,0.023,0.051c-0.102,0.021-0.247,0.047-0.298,0.113c0.054,0.002,0.091,0.031,0.134,0.039
		c-0.072,0.05-0.267,0.167-0.283,0.235c0.024,0,0.045,0,0.071-0.004c-0.156,0.131-0.409,0.254-0.479,0.42
		c0.065,0,0.127,0.013,0.184,0.039c0,0.101-0.107,0.236-0.131,0.336c-0.019,0.075-0.031,0.146-0.03,0.226
		c0.002,0.11-0.03,0.228-0.027,0.336c0.002,0.12,0.057,0.178,0.061,0.314c0.096,0,0.178-0.035,0.272-0.042
		c-0.011,0.015-0.015,0.062-0.026,0.078c0.017,0,0.034,0.001,0.05,0.001c-0.062,0.123-0.215,0.237-0.195,0.378
		c-0.067,0.034-0.148,0.058-0.221,0.083c0.177,0.012,0.361,0,0.54,0.004c-0.008,0.006-0.017,0.01-0.027,0.013
		c0.047,0.002,0.107,0.024,0.159,0.025c-0.01,0.088,0.072,0.156,0.096,0.237c0.019,0.06-0.051,0.439,0.191,0.278
		c0.03,0.166,0.113,0.184,0.334,0.061c-0.014,0.029-0.008,0.076-0.028,0.108c0.051-0.016,0.121-0.021,0.169-0.046
		c0.001,0.048-0.043,0.105-0.053,0.157c0.016,0,0.032-0.002,0.047-0.008c-0.006,0.012-0.004,0.055-0.013,0.073
		c0.06,0.017,0.126,0.015,0.188-0.002c-0.035,0.039-0.047,0.082-0.037,0.127c0.056-0.026,0.118-0.056,0.181-0.062
		c-0.005,0.042,0.002,0.088,0.02,0.124c0.107,0,0.189-0.047,0.28-0.077c0.001,0.171-0.002,0.429,0.369,0.271
		c0,0.055-0.077,0.139-0.012,0.182c0.092,0.061,0.259-0.021,0.325-0.062c-0.015,0.144,0.076,0.182,0.28,0.111
		c-0.02,0.048-0.042,0.099-0.034,0.148c0.014,0.008,0.054,0.007,0.071,0.008c0.032,0.108,0.256,0.023,0.32-0.041
		c0.05,0.077,0.116,0.197,0.212,0.257c0.014,0.546,0.137-0.785,0.244-0.245l-0.076-0.027c0.054,0.264,0.121,0.519,0.199,0.766
		c0.055,0.457,0.054,0.915-0.081,1.376c-0.051,0.175,0.046,0.365-0.074,0.52c-0.166,0.211-0.672,0.212-0.867,0.402
		c-0.244,0.238-0.747,0.236-0.791,0.568c-0.08,0.594-0.297,0.149-1,0.055c-0.175-0.024-0.133,0.319-0.183,0.558
		c-0.27,0.047-0.545,0.108-0.848,0.15c-0.638,0.09-2.575-0.163-4.184-0.256c0,0.02-0.896-0.009-1.298,0.099
		c-1.338,0.358-2.079,0.348-3.519,0.478c-2.043,0.184-2.019,1.113-4.113,1.132c-1.116,0.01-2.324,0.23-3.471,0.382
		c-0.708,0.094-1.669,0.16-2.386,0.072c-0.796-0.442-2.082-1.232-2.925-1.437c0.198,0.063,0.394,0.142,0.578,0.207
		c-0.093,0.061-0.154,0.163-0.331,0.241c0.328,0.192,0.702,0.325,1.082,0.386c-0.324,0.044-0.625,0.081-0.951,0.065
		c0.212,0.048,0.405,0.142,0.612,0.193c-0.059,0.006-0.285,0.048-0.407,0.053c0.269,0.09,0.537,0.18,0.806,0.27
		c-0.343-0.042-0.687-0.115-1.028-0.177c0.334,0.124,0.689,0.195,1.044,0.181c0.123,0.042,0.247,0.083,0.37,0.125
		c-0.082-0.004-0.165-0.012-0.247-0.021c-0.46,0.089-0.923,0.148-1.381,0.244c0.404,0.172,0.908,0.108,1.354,0.105
		c-0.035,0.021-0.074,0.036-0.111,0.054h-3.545v2.7h3.234c-0.223,0.121-0.456,0.231-0.674,0.345c0.485-0.04,0.967-0.174,1.433-0.345
		h0.366c-0.29,0.243-0.608,0.462-0.913,0.687c0.203-0.149,0.409-0.272,0.617-0.406c-0.378,0.525-0.97,0.853-1.379,1.318
		c0.413-0.243,0.843-0.585,1.271-0.698c-0.382,0.569-0.889,1.019-1.375,1.497c0.379-0.184,0.715-0.503,1.002-0.836
		c-0.245,0.457-0.514,0.906-0.561,1.416c0.46-0.308,0.829-0.711,1.204-1.117c-0.138,0.52-0.471,0.966-0.728,1.439
		c0.371-0.29,0.745-0.763,1.121-1.116c-0.04,0.551-0.254,1.082-0.496,1.59c0.459-0.318,0.818-0.738,1.199-1.148
		c-0.211,0.709-0.513,1.379-0.846,2.035c0.407-0.291,0.712-0.712,1.048-1.083c-0.107,0.607-0.508,1.275-0.404,1.867
		c0.494-0.275,0.766-0.812,1.206-1.187c0.05,0.235-0.027,0.502-0.148,0.769c0.309-0.545,0.637-1.085,0.936-1.627
		c-0.039,0.104-0.088,0.204-0.149,0.298c0.209-0.274,0.401-0.565,0.579-0.867c0.614-0.375,1.327-0.939,1.972-0.917
		c0.433,0.016,0.858,1.175,1.286,1.106c0.467-0.073,1.114-0.445,1.627-0.633c1.294-0.476,2.22-0.775,3.64-0.705
		c1.001,0.052,2.494-0.216,3.396,0.054c0.955,0.285,1.092,1.405,2.129,1.686c0.392,0.106,0.753,0.077,1.138,0.089
		c0.491,0.216,0.966,0.411,1.201,0.615c1.028,0.895,1.383,2.375,1.501,3.698c-0.058-0.653,0.094-2.9,0.076,0.216
		c-0.214,0.169-0.134-1.431-0.206-1.122c-0.006,0.141-0.076,0.208-0.091,0.35c-0.001,0.013,0.053,0.144,0.052,0.155
		c0.016,0.263-0.146,0.449-0.023,0.645c-0.04,0.172-0.08,0.345-0.12,0.521c-0.137,0.602-0.359,0.992-0.61,1.374
		c-0.148,0.646-0.417,1.268-0.689,1.88c-0.047,0.108-0.096,0.218-0.144,0.326c0.006,0.017,0.011,0.035,0.018,0.052
		c-0.042,0.067-0.085,0.134-0.127,0.202c-0.224,0.536-0.412,1.09-0.409,1.644c0.195,0.126,0.343,0.245,0.474,0.354
		c-0.285,0.456-0.606,0.9-0.939,1.381c0.184-0.135,0.451-0.253,0.605-0.37c-0.196,0.445-0.83,0.848-0.69,1.45
		c0.557-0.548,1.013-1.205,1.455-1.851c-0.109,0.232-0.189,0.536-0.34,0.786c0.139-0.165,0.292-0.316,0.429-0.482
		c-0.005,0.482-0.338,0.854-0.588,1.271c0.374-0.344,0.67-0.762,1.012-1.14c0.005,0.132,0.114,0.381,0.114,0.575
		c0.091-0.082,0.172-0.172,0.248-0.265c-0.045,2.241-0.076,1.377,0.063,2.466c0.229,1.789-0.114,2.74-0.228,3.16
		c-0.114,0.418-0.267,1.485-0.228,2.207c0.038,0.724,0.419-1.182,0.571-0.496c0.152,0.686,0.077,0.419-0.038,0.99
		c-0.052,0.26-0.072,0.787-0.064,1.33c0.047,0.065,0.079,0.146,0.082,0.247c0.004,0.104,0.006,0.2,0,0.293
		c0.033,0.099,0.049,0.203,0.046,0.312c0.02,0.03,0.036,0.065,0.049,0.104c0.096,0.288,0.112-0.352,0.011-0.073
		c-0.004,0.139-0.02,0.277-0.068,0.418c-0.042,0.117-0.1,0.23-0.17,0.337c-0.004,0.449-0.057,0.903-0.056,1.355
		c0.002,0.541,0.12,1.123,0.13,1.684c0.045,0.075,0.086,0.152,0.116,0.235c0.046,0.129,0.056-1.614,0.039-1.487
		c0.006,0.659-0.196,1.755-0.293,2.241c0.007,0.012,0.015,0.022,0.021,0.033c-0.657,0.324-1.306,0.878-1.454,1.54
		c0.303-0.048,0.599-0.024,0.897-0.19c-0.097,0.178-0.158,0.421-0.26,0.581c0.187-0.133,0.579-0.338,0.785-0.554
		c-0.599,0.569-1.298,1.163-1.637,1.908c0.307-0.371,0.702-0.69,0.921-1.166c0.013-0.001,0.016,0.205,0.021,0.244
		c0.101-0.122,0.247-0.29,0.396-0.351c-0.026,0.167,0.026,0.363-0.005,0.542c0.132-0.093,0.347-0.314,0.444-0.449
		c-0.02,0.01-0.058,0.223,0.058,0.152c0.11-0.265,0.303-0.438,0.439-0.664c-0.009,0.181,0.058,0.344,0.108,0.488
		c-0.095,0.489-0.253,1.125-0.472,1.382c-0.376,0.443-1.131,0.953-1.219,1.087c-0.089,0.132-0.643,0.464-0.443,1.528
		c-0.222,0.089-0.443,0.155-0.31,0.422c0.133,0.265,0,1.042,0,1.042s3.834,1.218,5.275,0.088c0.133-0.665,0.089-0.798,0.199-0.931
		c0.111-0.133,0.2-0.421,0.178-0.555c-0.022-0.134,0.088-0.134,0.088-0.134s0.399,0.156,0.466,0.134
		c0.032-0.011,0.412-0.163,0.811-0.361v4.803c-0.374,0.038-0.729,0.211-1.008,0.544c-0.798-0.374-1.7-0.248-1.781,0.787
		c0.471-0.064,0.899-0.205,1.357,0.006c-0.003-0.269,0.088-0.438,0.236-0.521c-0.088,0.151-0.164,0.327-0.225,0.527
		c0.078,0.035,0.157,0.083,0.236,0.143c-1.115,0.094-2.138-0.166-2.458,1.136c0.496-0.878,1.787-1.077,2.604-0.43
		c-0.635-0.21-1.819,0.026-1.786,0.866c1.49-0.359,1.495-1.254,2.823-0.298v0.093c-0.682,0.001-1.363-0.12-1.673,0.605
		c0.577,0.038,1.17,0.021,1.754,0.021l3.01-0.207c1.315,0.019,1.708-0.878,2.921,0.068c-0.162-0.477-0.616-0.921-1.141-0.73
		c0-0.041,0-0.222-0.014-0.251c0.78-0.233,2.176-0.473,2.474,0.209c-0.304-0.726-1.691-1.443-2.334-0.761
		c0.485-0.729,1.38-0.533,1.946-0.021c-0.199-0.811-1.864-0.846-2.384-0.305c0.084-0.707,1.157-0.678,1.75-0.497
		c-0.701-0.595-2.024-0.731-2.893-0.581c-0.016,0.055-0.055,0.142-0.094,0.229v-0.344c0.038-0.065,0.083-0.123,0.137-0.172
		c-0.048,0.019-0.093,0.037-0.137,0.059v-8.762c0.04-0.037,0.079-0.071,0.114-0.105c-0.013,0.068,0.025,0.326-0.019,0.495
		c0.162-0.037,0.382-0.103,0.571-0.164c-0.009,0.355,0.022,0.669,0.034,0.765c0.022,0.178-0.154,0.244-0.154,0.244
		s-0.089,1.308,0.066,1.684c0.154,0.377,1.684,0.998,1.751,1.02c0.066,0.022,0.465-0.132,0.465-0.132s0.111,0,0.088,0.132
		c-0.022,0.134,0.067,0.423,0.178,0.556c0.111,0.132,0.066,0.266,0.2,0.93c1.44,1.131,5.275-0.089,5.275-0.089s-0.133-0.775,0-1.042
		c0.133-0.265-0.089-0.331-0.31-0.42c0.2-1.063-0.355-1.396-0.443-1.53c-0.089-0.132-0.843-0.643-1.219-1.086
		c-0.246-0.289-0.416-1.06-0.505-1.56c0.371,0.293,0.716,0.502,1.27,0.371c-0.318-0.18-0.628-0.39-0.915-0.614
		c0.252,0.121,0.553,0.196,0.803,0.299c-0.079-0.051-0.162-0.095-0.249-0.132c0.133,0.057,0.307,0.094,0.455,0.136
		c-0.073-0.068-0.151-0.129-0.236-0.182c0.066-0.022,0.173,0.022,0.236-0.028c-0.324-0.295-0.743-0.461-1.11-0.706
		c0.078-0.019,0.155-0.015,0.233-0.01c0.417,0.218,0.762,0.45,1.18,0.299c-0.239-0.26-0.547-0.463-0.861-0.608
		c0.051,0,0.072-0.026,0.063-0.079c-0.15-0.092-0.304-0.177-0.46-0.256c0.049-0.137,0.092-0.275,0.133-0.413
		c-0.109-0.585-0.259-1.504-0.234-2.044c0.01-0.006,0.017-0.015,0.026-0.022c0.021-0.29,0.151,1.332,0.166,1.022
		c0.016-0.337,0.104-0.672,0.11-1.007c0.015-0.821-0.273-1.529-0.345-2.321c-0.066-0.723,0.073-0.446,0.181-1.155
		c0.063-0.421-0.026-0.826-0.039-1.238c-0.106-0.48-0.169-0.267-0.023-0.922c0.152-0.686,0.533,1.221,0.571,0.497
		c0.038-0.724-0.114-1.79-0.228-2.208c-0.115-0.419-0.458-1.37-0.229-3.16c0.124-0.976,0.113,0.396,0.077-1.741
		c0.176,0.43,0.414,0.845,0.737,1.166c0.153-0.596-0.036-1.402-0.354-1.924c-0.002,0.103-0.01,0.211-0.017,0.319
		c-0.001-0.184-0.003-0.394-0.007-0.583c0.046,0.062,0.104,0.116,0.175,0.158c0-0.093,0.039-0.207,0.076-0.308
		c-0.082-0.059-0.163-0.115-0.246-0.171c0.091,0.023,0.187,0.044,0.283,0.066c0.008-0.023,0.016-0.046,0.021-0.065
		c0.035,0.03,0.092,0.072,0.151,0.114c0.012,0.005,0.024,0.008,0.035,0.013c-0.023-0.159-0.213-0.44-0.459-0.726
		c0.168,0,0.318-0.017,0.418-0.072c0.361-0.201,0.535-0.598,0.581-1.04c-0.141-0.938-1.045-2.882-1-4.084
		c-0.045-0.076-0.089-0.154-0.136-0.231c-0.019-0.14-0.04-0.276-0.06-0.413c-0.078-0.173-0.145-0.351-0.207-0.528
		c-0.005-0.2-0.045-0.411-0.064-0.599c-0.011-0.112-0.016-0.221-0.047-0.327c-0.067-0.222-0.134-0.384-0.134-0.616
		c0-0.113,0.029-0.276-0.013-0.377c0,0-0.003-0.002-0.003-0.002c0-0.002,0-0.004,0.001-0.007c-0.071-0.054-0.146,1.773-0.226,1.742
		c-0.028-0.162-0.045-0.34-0.047-0.539c-0.017-1.877-0.365-0.755,0.387-2.486c0.077-0.179,0.17-0.383,0.263-0.603
		c0.118-0.016,0.248-0.06,0.39-0.141c0.305-0.177,0.362-0.855,0.641-1.104c0.186-0.166,0.616-0.136,0.846-0.3
		c0.394-0.279,0.703-0.727,1.155-1.037c0.508-0.35,0.985-0.506,1.461-0.594c0.05,0.001,0.101,0.001,0.15,0.003
		c0.277,0.01,0.511,0.086,0.702,0.206c1.379,0.027,2.781-0.059,4.109,0.1c1.662,0.198,3.016-0.597,4.587-0.515
		c0.013,0.001,0.024,0.004,0.036,0.004c0.195,0.128,0.394,0.263,0.636,0.354c0.181,0.068,0.37,0.098,0.564,0.128
		c1.05,0.757,1.877,2.142,2.994,2.278c-0.027,0.406-0.12,0.845-0.135,1.105c0.12-0.338,0.417-0.547,0.635-0.801
		c0.452,0.728,0.439,1.738,0.522,2.598c0.188-0.432,0.294-0.894,0.354-1.367c0.004,0.028,0.008,0.057,0.01,0.084
		c0-0.049,0-0.098,0-0.147c0.002-0.019,0.006-0.037,0.008-0.057c-0.003-0.028-0.006-0.057-0.009-0.085
		c0-0.127-0.001-0.255-0.001-0.382c-0.005,0.065-0.012,0.133-0.017,0.197c-0.055-0.583-0.081-1.175-0.033-1.752
		c0.074,0.39,0.186,0.824,0.377,1.093c0.086-0.549,0.164-1.146,0.312-1.652c0.017,0.516,0.047,1.035,0.13,1.544
		c0.034-0.562,0.141-1.12,0.232-1.678c0.155,0.489,0.181,1.066,0.176,1.592c0.064-0.455,0.115-0.916,0.104-1.376
		c0.032,0.351,0.094,0.708,0.185,1.042c0.042-0.193,0.085-0.376,0.11-0.564c0.022,0.062,0.043,0.123,0.069,0.184
		c-0.016-0.24-0.047-0.466-0.094-0.713c0.009,0.136,0.002,0.265-0.013,0.39c-0.086-0.299-0.138-0.61-0.161-0.924
		c0.243,0.38,0.52,0.768,0.729,1.178c0.055,0.164,0.12,0.324,0.197,0.479c-0.047-0.16-0.112-0.314-0.186-0.469
		c-0.063-0.208-0.104-0.422-0.113-0.637c-0.355-0.544-0.663-1.154-0.726-1.789c-0.162-0.07-0.366-0.147-0.429-0.161
		c0.119-0.031,0.239-0.054,0.361-0.066c-0.259-0.02-0.536-0.086-0.788-0.1c0.268,0.001,0.536-0.014,0.803-0.044
		c-0.001,0.091,0.002,0.182,0.012,0.271c0.105,0.046,0.194,0.087,0.214,0.104c-0.068-0.128-0.138-0.256-0.204-0.379
		c0.34-0.042,0.677-0.113,1.002-0.224c-0.193-0.082-0.714-0.172-0.998-0.168c0.118-0.075,0.259-0.136,0.408-0.188H62.664z
		 M31.836,99.806c0.202,0.858,0.347,0.657,0.232,0.999c-0.267,0.799-0.305,2.741,0,2.894c0.221,0.11-0.099-1.21-0.232-0.828V99.806z
		 M31.836,106.031v-2.763c0.13,0.327,0.339,1.45,0.326,2.141C32.045,105.615,31.933,105.829,31.836,106.031z M38.766,88.778
		c0.011,0.031,0.022,0.063,0.037,0.094c-0.014,0.076-0.027,0.153-0.037,0.227C38.767,88.99,38.766,88.886,38.766,88.778z"/>
	<path d="M31.932,115.121c0.207-0.08,0.45-0.137,0.744-0.169C32.371,114.881,32.111,114.955,31.932,115.121z"/>
	<path d="M40.794,90.271c-0.002-0.003-0.006-0.006-0.009-0.01C40.789,90.278,40.792,90.284,40.794,90.271z"/>
	<path d="M39.112,88.818c0.597,0.434,1.132,0.943,1.673,1.443c-0.01-0.042-0.024-0.168-0.034-0.273
		c-0.456-0.285-0.967-0.669-1.215-1.125c0.007,0.024,0.015,0.049,0.024,0.07c-0.019-0.019-0.133-0.095-0.238-0.171
		c-0.057-0.018-0.114-0.034-0.172-0.049C39.138,88.746,39.125,88.78,39.112,88.818z"/>
	<path d="M39.536,88.863c-0.036-0.108-0.066-0.247-0.138-0.375C39.421,88.618,39.47,88.744,39.536,88.863z"/>
	<path d="M40.742,89.856c-0.009-0.081-0.003,0.013,0.008,0.132c0.025,0.015,0.051,0.031,0.076,0.047
		C40.861,89.957,40.833,89.896,40.742,89.856z"/>
</g>
<path fill="#FFFFFF" d="M18.708-5.907c0.083-0.311-0.849-0.375-1.592-0.354c-0.207-0.062-0.642-0.393-1.24-0.248
	c-0.6,0.145-1.427,0.351-1.881,0.599c-0.455,0.249-1.033,0.455-1.446,0.497c-0.414,0.041-2.047,0.867-2.15,0.992
	c-0.037,0.046-0.011,0.063,0.037,0.068c-0.024,0.036-0.032,0.064-0.03,0.084c-0.013,0.008-0.024,0.016-0.032,0.028
	c-0.044,0.066-0.042,0.102-0.016,0.121c-0.031,0.012-0.061,0.025-0.077,0.051c-0.036,0.053-0.041,0.086-0.028,0.108
	c-0.032,0.011-0.062,0.024-0.078,0.05c-0.022,0.034-0.032,0.059-0.034,0.079c-0.035,0.011-0.067,0.027-0.085,0.053
	c-0.008,0.013-0.014,0.024-0.019,0.034c-0.041,0.012-0.079,0.027-0.1,0.059C9.919-3.662,9.91-3.64,9.905-3.622
	C9.87-3.611,9.836-3.596,9.818-3.569c-0.002,0.004-0.003,0.007-0.005,0.01C9.759-3.545,9.7-3.53,9.673-3.489
	C9.652-3.457,9.642-3.434,9.64-3.413C9.042-2.98,7.171-1.529,6.843-1.072C6.823-1.062,6.806-1.05,6.794-1.033
	C6.75-0.966,6.752-0.929,6.778-0.911C6.776-0.898,6.773-0.886,6.771-0.875C6.76-0.866,6.749-0.859,6.741-0.849
	C6.683-0.761,6.705-0.725,6.756-0.715c0,0.011-0.001,0.022-0.001,0.033C6.728-0.671,6.703-0.659,6.688-0.637
	C6.653-0.583,6.647-0.549,6.66-0.528c-0.004,0.003-0.009,0.005-0.012,0.01c-0.042,0.065-0.042,0.102-0.019,0.12
	C6.611-0.388,6.594-0.376,6.583-0.36C6.545-0.302,6.542-0.268,6.557-0.248C6.53-0.236,6.505-0.224,6.49-0.201
	C6.465-0.164,6.455-0.135,6.456-0.114C6.416-0.102,6.378-0.085,6.358-0.056C6.334-0.019,6.324,0.007,6.324,0.029
	C6.295,0.04,6.268,0.053,6.252,0.076C6.19,0.171,6.221,0.206,6.28,0.211C5.654,0.965,4.311,2.57,4.26,2.896
	C4.197,3.289,5.666,2.358,5.666,2.358l0.124,0.021L4.507,3.805c0,0,2.542-2.066,3.246-2.335c0.35-0.134,0.653-0.268,0.87-0.368
	C8.59,1.35,8.559,1.6,8.512,1.842C8.452,2.153,8.48,2.491,8.465,2.807C8.458,2.954,8.424,3.122,8.498,3.256
	c0.041,0.075,0.11,0.119,0.166,0.178C8.74,3.515,8.782,3.643,8.88,3.706C8.965,3.761,9.085,3.822,9.183,3.86
	C9.201,3.866,9.22,3.874,9.24,3.88l0.001,0.028l0.07-0.009c0.056,0.013,0.114,0.019,0.17,0.006c0.031-0.007,0.058-0.021,0.081-0.037
	l0.175-0.022c0,0,0.062-1.137,0.207-1.632c0.145-0.497,0.414-0.641,0.414-0.641s0.93,0.909,1.116,1.177
	c0.187,0.27,0.393-0.227,0.393-0.227l-0.703-0.806l0.145-0.207c0,0,0.723,0.682,0.95,1.303c0.228,0.62,0.373-0.31,0.373-0.31
	s-0.517-0.745-0.662-0.91s0.145-0.331,0.145-0.331l0.124,0.125l0.373-0.6l0.103,0.125c0,0,1.075-1.509,1.364-2.192
	c0.289-0.682,0.703-1.177,0.703-1.177l0.145,0.207c0,0,1.115-1.881,1.88-2.316c0.413-0.268,0.496-0.515,0.972-0.454
	c0.014,0.003,0.027,0.003,0.041,0.005c0.277,0.002,0.588,0.02,0.771-0.172c0,0-0.001,0-0.002-0.001
	c-0.16,0.117-0.646-0.076-0.969-0.219c-0.049-0.014-0.482-0.208-0.502-0.212C17.116-5.62,17.779-6.011,18.708-5.907z"/>
<g>
	<path fill="#FFFFFF" d="M4.442,12.102c-0.159,0.28-0.312,0.56-0.452,0.843C4.123,12.689,4.31,12.396,4.442,12.102z"/>
	<path fill="#FFFFFF" d="M0.04,2.354c0.114,0.03,0.244,0.063,0.383,0.096C0.295,2.409,0.167,2.372,0.04,2.354z"/>
	<path fill="#FFFFFF" d="M58.263,10.745c0.001,0.413,0.001,0.827,0.003,1.24C58.29,11.568,58.284,11.15,58.263,10.745z"/>
	<path fill="#FFFFFF" d="M59.707,8.143c0.027,0.044,0.062,0.1,0.1,0.156c-0.028-0.053-0.057-0.106-0.086-0.16
		C59.721,8.142,59.718,8.144,59.707,8.143z"/>
	<path fill="#FFFFFF" d="M60.231,9.819c0.103,0.157,0.209,0.309,0.316,0.455c-0.027-0.37-0.124-0.562-0.302-0.821
		C60.229,9.575,60.227,9.697,60.231,9.819z"/>
	<path fill="#FFFFFF" d="M59.807,8.299c0.057,0.11,0.114,0.22,0.166,0.323C59.948,8.53,59.876,8.408,59.807,8.299z"/>
	<path fill="#FFFFFF" d="M62.664,7.174v-2.7h-2.259c0.186-0.119,0.365-0.245,0.527-0.387c-0.285,0.092-0.57,0.236-0.835,0.387
		h-0.195c0.318-0.419,0.732-0.766,1.104-1.142c-0.822,0.394-1.655,0.771-2.486,1.142h-0.017c0.528-0.37,1.128-0.622,1.688-0.936
		c-0.342,0.081-0.696,0.15-1.041,0.202c0.015-0.104,0.062-0.165,0.084-0.267c-0.144,0.084-0.252,0.131-0.354,0.197
		c0.235-0.21,0.465-0.427,0.713-0.622c-0.704,0.179-1.658,0.572-2.384,1.061c-0.58-0.252-1.308-0.302-1.918-0.361
		c-1.117-0.109-2.034-0.345-3.007-0.599c-2.206-0.578-4.461-0.45-6.851-0.543c-0.569-0.022-1.079-0.151-1.572-0.287
		c-0.171-0.02-0.342-0.067-0.5-0.116c-0.062-0.02-0.119-0.044-0.173-0.073c-0.007,0.001-0.015,0.001-0.022,0.002
		c-0.277-0.068-0.557-0.125-0.846-0.149c-0.554-0.047-1.138,0.148-1.726,0.313c-0.028-0.002-0.058-0.005-0.084-0.008
		c-0.683-0.093-1.34-0.201-2-0.271c-0.218-0.73-1.463-0.987-2.089-1.098c-0.236-0.042-0.234,0.188-0.483,0.059
		c-0.236-0.124-0.349-0.5-0.501-0.705c-0.514-0.691-1.272-0.592-1.807-1.236c0.366-0.883,0.578-0.039,0.584-1.14
		c0.144-0.027,0.327-0.03,0.419-0.058c0.16-0.049,0.34-0.123,0.463-0.207c0.065-0.044-0.009-0.103,0.106-0.114
		c0.102,0.052,0.186,0.132,0.282,0.187c0.042-0.203-0.017-0.408,0.033-0.608c0.081,0.061,0.196,0.256,0.35,0.223
		c0.138-0.031,0.059-0.349,0.045-0.422c0.052-0.001,0.125-0.011,0.176-0.001c-0.024-0.005-0.05-0.01-0.075-0.014
		c0.105,0.015,0.215,0.014,0.32,0.022c0.006-0.132,0.145-0.278,0.198-0.408c0.094,0.013,0.145-0.011,0.212-0.039
		c0.13-0.055,0.076-0.101,0.194-0.165c-0.017-0.009-0.035-0.023-0.049-0.033c0.04-0.011,0.098-0.056,0.141-0.066
		c-0.041-0.009-0.074-0.038-0.113-0.047c0.038-0.031,0.027-0.046,0.035-0.091c0.016-0.113,0.104-0.203,0.146-0.307
		c0.047-0.121,0.05-0.168,0.196-0.283c-0.145-0.15-0.067-0.214-0.062-0.382c0.005-0.151-0.199-0.302-0.207-0.475
		c-0.059-0.041-0.09-0.106-0.202-0.12c0.018-0.049,0.005-0.089-0.05-0.109c0.082-0.077,0.053-0.197,0.067-0.285
		c-0.036,0.003-0.093-0.013-0.114-0.012c0.158-0.116-0.014-0.207-0.134-0.282c-0.162-0.102-0.343-0.167-0.474-0.271
		c-0.073-0.058-0.125-0.107-0.257-0.142c-0.075-0.02-0.223-0.017-0.291-0.042c-0.045-0.019-0.048-0.062-0.081-0.079
		c-0.102-0.053-0.319-0.126-0.343-0.225c-0.096,0.009-0.134-0.019-0.218-0.035c-0.231-0.042-0.475-0.082-0.707-0.126
		c0.036-0.101-0.17-0.144-0.289-0.168c-0.003-0.015,0-0.021-0.007-0.035c-0.107-0.022-0.213-0.033-0.32-0.039
		c-0.002-0.165,0-0.369,0.009-0.624c0.037-0.963-1.02-2.779-1.02-2.779l-1.076-0.2c0,0-0.742,0.05-2.244-0.176
		c-1.48-0.222-1.502,0.333-1.502,0.35c-0.001,0.065-0.125,0.176-0.165,0.232c-0.12,0.168-0.239,0.336-0.359,0.504
		c-0.105,0.147-0.355,1.838-0.464,1.984c-0.121,0.162-0.196,0.182-0.492,0.148c-0.009,0.015-0.02,0.032-0.026,0.048
		c-0.028-0.002-0.061,0-0.087-0.002c-0.049,0.062-0.221,0.073-0.319,0.103c-0.045,0.013-0.108,0.052-0.167,0.063
		C25.601-7.687,25.5-7.72,25.411-7.68c-0.03,0.013-0.018,0.052-0.035,0.061c-0.138,0.059-0.225,0.02-0.379,0.057
		c-0.023,0.005-0.019,0.058-0.021,0.059c-0.058,0.017-0.131,0.018-0.194,0.037c-0.084,0.022-0.108,0.068-0.21,0.083
		c-0.009-0.004-0.011-0.01-0.008-0.016c-0.091,0.229-0.625,0.157-0.667,0.368c-0.189,0.042-0.178,0.091-0.237,0.188
		c-0.066,0.109-0.159,0.141-0.337,0.179c-0.009,0.071-0.115,0.08-0.213,0.095c0.011,0.009,0.025,0.027,0.043,0.037
		c0.003,0.005,0.003,0.033,0.023,0.05c-0.102,0.022-0.247,0.048-0.298,0.113c0.054,0.002,0.091,0.031,0.134,0.04
		c-0.072,0.049-0.267,0.167-0.283,0.235c0.024,0,0.045,0,0.071-0.004c-0.156,0.131-0.409,0.254-0.479,0.42
		c0.065,0,0.127,0.013,0.184,0.039c0,0.101-0.107,0.237-0.131,0.336c-0.019,0.075-0.031,0.146-0.03,0.226
		c0.002,0.111-0.03,0.228-0.027,0.335c0.002,0.121,0.057,0.178,0.061,0.314c0.096,0,0.178-0.035,0.272-0.042
		c-0.011,0.015-0.015,0.062-0.026,0.079c0.017,0,0.034,0.001,0.05,0.001c-0.062,0.123-0.215,0.237-0.195,0.377
		c-0.067,0.035-0.148,0.059-0.221,0.083c0.177,0.012,0.361,0,0.54,0.004c-0.008,0.006-0.017,0.009-0.027,0.013
		c0.047,0.001,0.107,0.023,0.159,0.024C22.918-3.8,23-3.731,23.024-3.65c0.019,0.059-0.051,0.439,0.191,0.279
		c0.03,0.165,0.113,0.183,0.334,0.06c-0.014,0.029-0.008,0.076-0.028,0.108c0.051-0.016,0.121-0.02,0.169-0.046
		c0.001,0.048-0.043,0.106-0.053,0.157c0.016,0,0.032-0.001,0.047-0.007c-0.006,0.011-0.004,0.054-0.013,0.073
		c0.06,0.017,0.126,0.015,0.188-0.002c-0.035,0.039-0.047,0.082-0.037,0.126c0.056-0.026,0.118-0.055,0.181-0.062
		C24-2.921,24.006-2.876,24.024-2.839c0.107,0,0.189-0.046,0.28-0.078c0.001,0.171-0.002,0.429,0.369,0.271
		c0,0.055-0.077,0.139-0.012,0.182c0.092,0.061,0.259-0.021,0.325-0.062c-0.015,0.144,0.076,0.182,0.28,0.112
		c-0.02,0.047-0.042,0.098-0.034,0.148c0.014,0.007,0.054,0.006,0.071,0.007c0.032,0.108,0.256,0.023,0.32-0.041
		c0.05,0.077,0.116,0.198,0.212,0.257c0.014,0.546,0.137-0.785,0.244-0.246l-0.076-0.026c0.054,0.263,0.121,0.518,0.199,0.765
		c0.055,0.457,0.054,0.915-0.081,1.376C26.071,0,26.167,0.191,26.047,0.345c-0.166,0.211-0.672,0.212-0.867,0.402
		c-0.244,0.238-0.747,0.236-0.791,0.568c-0.08,0.594-0.297,0.15-1,0.055c-0.175-0.023-0.133,0.32-0.183,0.558
		c-0.27,0.047-0.545,0.109-0.848,0.151c-0.638,0.089-2.575-0.163-4.184-0.256c0,0.019-0.896-0.009-1.298,0.099
		C15.541,2.28,14.8,2.269,13.359,2.398c-2.043,0.184-2.019,1.114-4.113,1.132c-1.116,0.01-2.324,0.23-3.471,0.382
		C5.067,4.006,4.106,4.073,3.39,3.985C2.593,3.542,1.308,2.752,0.464,2.548C0.663,2.611,0.858,2.69,1.042,2.755
		C0.949,2.816,0.888,2.918,0.711,2.996c0.328,0.193,0.702,0.325,1.082,0.386C1.469,3.426,1.168,3.463,0.842,3.448
		c0.212,0.047,0.405,0.142,0.612,0.193C1.395,3.647,1.169,3.689,1.047,3.693c0.269,0.09,0.537,0.18,0.806,0.27
		C1.51,3.921,1.167,3.848,0.825,3.787C1.16,3.91,1.515,3.982,1.869,3.968c0.123,0.041,0.247,0.082,0.37,0.124
		C2.157,4.088,2.074,4.08,1.992,4.071C1.532,4.16,1.069,4.219,0.611,4.315C1.015,4.487,1.519,4.423,1.965,4.42
		C1.93,4.441,1.891,4.457,1.854,4.474h-3.545v2.7h3.234C1.32,7.295,1.087,7.406,0.869,7.519c0.485-0.04,0.967-0.173,1.433-0.345
		h0.366C2.377,7.417,2.06,7.636,1.754,7.861c0.203-0.15,0.409-0.272,0.617-0.407C1.993,7.98,1.401,8.307,0.992,8.773
		C1.405,8.53,1.834,8.188,2.263,8.075C1.881,8.644,1.375,9.093,0.888,9.572C1.267,9.388,1.603,9.068,1.89,8.736
		c-0.245,0.457-0.514,0.906-0.561,1.416c0.46-0.307,0.829-0.71,1.204-1.117C2.395,9.554,2.062,10,1.805,10.474
		c0.371-0.29,0.745-0.762,1.121-1.116c-0.04,0.55-0.254,1.082-0.496,1.589c0.459-0.318,0.818-0.738,1.199-1.148
		c-0.211,0.709-0.513,1.378-0.846,2.036c0.407-0.292,0.712-0.712,1.048-1.083c-0.107,0.606-0.508,1.275-0.404,1.867
		c0.494-0.276,0.766-0.812,1.206-1.188c0.05,0.236-0.027,0.502-0.148,0.769c0.309-0.544,0.637-1.084,0.936-1.626
		c-0.039,0.104-0.088,0.204-0.149,0.298c0.209-0.274,0.401-0.566,0.579-0.868c0.614-0.375,1.327-0.939,1.972-0.917
		c0.433,0.016,0.858,1.174,1.286,1.106c0.467-0.073,1.114-0.445,1.627-0.632c1.294-0.476,2.22-0.775,3.64-0.705
		c1.001,0.051,2.494-0.217,3.396,0.053c0.955,0.285,1.092,1.406,2.129,1.687c0.392,0.106,0.753,0.077,1.138,0.088
		c0.491,0.216,0.966,0.411,1.201,0.615c1.028,0.895,1.383,2.375,1.501,3.698c-0.058-0.653,0.094-2.9,0.076,0.216
		c-0.214,0.168-0.134-1.431-0.206-1.122c-0.006,0.141-0.076,0.208-0.091,0.349c-0.001,0.013,0.053,0.144,0.052,0.155
		c0.016,0.263-0.146,0.45-0.023,0.646c-0.04,0.171-0.08,0.344-0.12,0.521c-0.137,0.602-0.359,0.993-0.61,1.375
		c-0.148,0.646-0.417,1.267-0.689,1.88c-0.047,0.108-0.096,0.217-0.144,0.325c0.006,0.018,0.011,0.036,0.018,0.052
		c-0.042,0.067-0.085,0.133-0.127,0.202c-0.224,0.537-0.412,1.09-0.409,1.645c0.195,0.125,0.343,0.245,0.474,0.353
		c-0.285,0.456-0.606,0.9-0.939,1.381c0.184-0.134,0.451-0.253,0.605-0.37c-0.196,0.446-0.83,0.848-0.69,1.451
		c0.557-0.548,1.013-1.206,1.455-1.851c-0.109,0.232-0.189,0.537-0.34,0.786c0.139-0.165,0.292-0.316,0.429-0.482
		c-0.005,0.482-0.338,0.854-0.588,1.271c0.374-0.344,0.67-0.762,1.012-1.14c0.005,0.132,0.114,0.38,0.114,0.575
		c0.091-0.083,0.172-0.172,0.248-0.265c-0.045,2.242-0.076,1.377,0.063,2.466c0.229,1.79-0.114,2.741-0.228,3.16
		c-0.114,0.418-0.267,1.485-0.228,2.207c0.038,0.724,0.419-1.182,0.571-0.496c0.152,0.686,0.077,0.419-0.038,0.991
		c-0.052,0.26-0.072,0.787-0.064,1.33c0.047,0.066,0.079,0.146,0.082,0.248c0.004,0.104,0.006,0.2,0,0.292
		c0.033,0.099,0.049,0.203,0.046,0.312c0.02,0.03,0.036,0.065,0.049,0.103c0.096,0.288,0.112-0.351,0.011-0.073
		c-0.004,0.139-0.02,0.278-0.068,0.417c-0.042,0.118-0.1,0.23-0.17,0.337c-0.004,0.449-0.057,0.903-0.056,1.355
		c0.002,0.542,0.12,1.124,0.13,1.684c0.045,0.075,0.086,0.153,0.116,0.236c0.046,0.129,0.056-1.614,0.039-1.488
		c0.006,0.66-0.196,1.756-0.293,2.242c0.007,0.011,0.015,0.022,0.021,0.033c-0.657,0.324-1.306,0.878-1.454,1.54
		c0.303-0.048,0.599-0.025,0.897-0.19c-0.097,0.177-0.158,0.42-0.26,0.582c0.187-0.134,0.579-0.338,0.785-0.554
		c-0.599,0.569-1.298,1.163-1.637,1.908c0.307-0.371,0.702-0.69,0.921-1.166c0.013-0.001,0.016,0.205,0.021,0.244
		c0.101-0.123,0.247-0.29,0.396-0.351c-0.026,0.167,0.026,0.364-0.005,0.542c0.132-0.092,0.347-0.314,0.444-0.449
		c-0.02,0.009-0.058,0.222,0.058,0.152c0.11-0.264,0.303-0.437,0.439-0.664c-0.009,0.181,0.058,0.344,0.108,0.488
		c-0.095,0.489-0.253,1.125-0.472,1.382c-0.376,0.443-1.131,0.953-1.219,1.086c-0.089,0.132-0.643,0.464-0.443,1.529
		c-0.222,0.089-0.443,0.155-0.31,0.421c0.133,0.265,0,1.042,0,1.042s3.834,1.218,5.275,0.088c0.133-0.665,0.089-0.797,0.199-0.931
		c0.111-0.132,0.2-0.42,0.178-0.555c-0.022-0.133,0.088-0.133,0.088-0.133s0.399,0.156,0.466,0.133
		c0.032-0.01,0.412-0.163,0.811-0.361v4.803c-0.374,0.038-0.729,0.211-1.008,0.544c-0.798-0.374-1.7-0.248-1.781,0.787
		c0.471-0.064,0.899-0.205,1.357,0.006c-0.003-0.269,0.088-0.438,0.236-0.522c-0.088,0.152-0.164,0.328-0.225,0.527
		c0.078,0.036,0.157,0.083,0.236,0.143c-1.115,0.094-2.138-0.165-2.458,1.136c0.496-0.878,1.787-1.078,2.604-0.43
		c-0.635-0.21-1.819,0.027-1.786,0.866c1.49-0.359,1.495-1.253,2.823-0.297v0.093c-0.682,0-1.363-0.12-1.673,0.605
		c0.577,0.038,1.17,0.021,1.754,0.021l3.01-0.208c1.315,0.019,1.708-0.877,2.921,0.068c-0.162-0.476-0.616-0.92-1.141-0.73
		c0-0.042,0-0.221-0.014-0.251c0.78-0.233,2.176-0.473,2.474,0.209c-0.304-0.726-1.691-1.443-2.334-0.761
		c0.485-0.729,1.38-0.534,1.946-0.021c-0.199-0.811-1.864-0.845-2.384-0.304c0.084-0.708,1.157-0.678,1.75-0.497
		c-0.701-0.595-2.024-0.731-2.893-0.582c-0.016,0.055-0.055,0.142-0.094,0.229v-0.344c0.038-0.064,0.083-0.122,0.137-0.171
		c-0.048,0.018-0.093,0.037-0.137,0.058v-8.762c0.04-0.037,0.079-0.071,0.114-0.105c-0.013,0.068,0.025,0.326-0.019,0.495
		c0.162-0.037,0.382-0.103,0.571-0.165c-0.009,0.355,0.022,0.669,0.034,0.765c0.022,0.177-0.154,0.244-0.154,0.244
		s-0.089,1.308,0.066,1.683c0.154,0.378,1.684,0.998,1.751,1.02c0.066,0.022,0.465-0.132,0.465-0.132s0.111,0,0.088,0.132
		c-0.022,0.134,0.067,0.422,0.178,0.556c0.111,0.132,0.066,0.265,0.2,0.93c1.44,1.13,5.275-0.089,5.275-0.089s-0.133-0.776,0-1.042
		c0.133-0.265-0.089-0.332-0.31-0.42c0.2-1.064-0.355-1.396-0.443-1.53c-0.089-0.132-0.843-0.643-1.219-1.085
		c-0.246-0.29-0.416-1.061-0.505-1.56c0.371,0.293,0.716,0.501,1.27,0.371c-0.318-0.18-0.628-0.39-0.915-0.614
		c0.252,0.122,0.553,0.196,0.803,0.299c-0.079-0.051-0.162-0.095-0.249-0.132c0.133,0.057,0.307,0.093,0.455,0.135
		c-0.073-0.068-0.151-0.129-0.236-0.182c0.066-0.022,0.173,0.023,0.236-0.027c-0.324-0.295-0.743-0.462-1.11-0.707
		c0.078-0.019,0.155-0.015,0.233-0.01c0.417,0.219,0.762,0.451,1.18,0.299c-0.239-0.259-0.547-0.462-0.861-0.607
		c0.051,0,0.072-0.027,0.063-0.08c-0.15-0.091-0.304-0.177-0.46-0.256c0.049-0.137,0.092-0.275,0.133-0.413
		c-0.109-0.585-0.259-1.504-0.234-2.044c0.01-0.006,0.017-0.015,0.026-0.022c0.021-0.29,0.151,1.332,0.166,1.022
		c0.016-0.337,0.104-0.672,0.11-1.007c0.015-0.82-0.273-1.529-0.345-2.321c-0.066-0.723,0.073-0.446,0.181-1.155
		c0.063-0.42-0.026-0.826-0.039-1.238c-0.106-0.479-0.169-0.266-0.023-0.921c0.152-0.686,0.533,1.22,0.571,0.497
		c0.038-0.723-0.114-1.79-0.228-2.207c-0.115-0.42-0.458-1.371-0.229-3.161c0.124-0.976,0.113,0.396,0.077-1.741
		c0.176,0.429,0.414,0.844,0.737,1.165c0.153-0.595-0.036-1.402-0.354-1.924c-0.002,0.103-0.01,0.211-0.017,0.32
		c-0.001-0.184-0.003-0.394-0.007-0.583c0.046,0.062,0.104,0.116,0.175,0.158c0-0.093,0.039-0.207,0.076-0.308
		c-0.082-0.059-0.163-0.115-0.246-0.171c0.091,0.024,0.187,0.044,0.283,0.067c0.008-0.024,0.016-0.046,0.021-0.065
		c0.035,0.03,0.092,0.072,0.151,0.114c0.012,0.004,0.024,0.007,0.035,0.012c-0.023-0.159-0.213-0.44-0.459-0.726
		c0.168,0.001,0.318-0.017,0.418-0.072c0.361-0.201,0.535-0.598,0.581-1.04c-0.141-0.938-1.045-2.882-1-4.083
		c-0.045-0.077-0.089-0.154-0.136-0.231c-0.019-0.14-0.04-0.277-0.06-0.413c-0.078-0.173-0.145-0.351-0.207-0.529
		c-0.005-0.199-0.045-0.411-0.064-0.599c-0.011-0.112-0.016-0.22-0.047-0.326c-0.067-0.222-0.134-0.384-0.134-0.617
		c0-0.113,0.029-0.276-0.013-0.376c0,0-0.003-0.002-0.003-0.002c0-0.002,0-0.004,0.001-0.007c-0.071-0.053-0.146,1.774-0.226,1.743
		c-0.028-0.163-0.045-0.34-0.047-0.54c-0.017-1.877-0.365-0.755,0.387-2.487c0.077-0.178,0.17-0.383,0.263-0.602
		c0.118-0.016,0.248-0.06,0.39-0.141c0.305-0.177,0.362-0.855,0.641-1.104c0.186-0.167,0.616-0.136,0.846-0.3
		c0.394-0.28,0.703-0.728,1.155-1.038c0.508-0.35,0.985-0.506,1.461-0.594c0.05,0,0.101,0,0.15,0.002
		c0.277,0.01,0.511,0.086,0.702,0.207c1.379,0.027,2.781-0.059,4.109,0.1c1.662,0.198,3.016-0.597,4.587-0.515
		c0.013,0.001,0.024,0.004,0.036,0.004c0.195,0.128,0.394,0.262,0.636,0.354c0.181,0.069,0.37,0.098,0.564,0.128
		c1.05,0.757,1.877,2.142,2.994,2.279c-0.027,0.406-0.12,0.844-0.135,1.104c0.12-0.338,0.417-0.546,0.635-0.8
		c0.452,0.728,0.439,1.738,0.522,2.597c0.188-0.431,0.294-0.894,0.354-1.367c0.004,0.028,0.008,0.057,0.01,0.084
		c0-0.048,0-0.098,0-0.147c0.002-0.018,0.006-0.038,0.008-0.057c-0.003-0.028-0.006-0.057-0.009-0.085
		c0-0.127-0.001-0.255-0.001-0.382c-0.005,0.065-0.012,0.132-0.017,0.197c-0.055-0.583-0.081-1.174-0.033-1.752
		c0.074,0.389,0.186,0.824,0.377,1.093c0.086-0.549,0.164-1.146,0.312-1.652c0.017,0.516,0.047,1.035,0.13,1.544
		c0.034-0.562,0.141-1.121,0.232-1.678c0.155,0.49,0.181,1.066,0.176,1.592c0.064-0.456,0.115-0.916,0.104-1.375
		c0.032,0.35,0.094,0.707,0.185,1.042c0.042-0.193,0.085-0.376,0.11-0.564c0.022,0.061,0.043,0.123,0.069,0.184
		c-0.016-0.24-0.047-0.466-0.094-0.713c0.009,0.135,0.002,0.264-0.013,0.389c-0.086-0.299-0.138-0.61-0.161-0.924
		c0.243,0.38,0.52,0.768,0.729,1.178c0.055,0.165,0.12,0.324,0.197,0.479c-0.047-0.161-0.112-0.315-0.186-0.469
		c-0.063-0.208-0.104-0.422-0.113-0.637c-0.355-0.544-0.663-1.154-0.726-1.79c-0.162-0.069-0.366-0.147-0.429-0.161
		c0.119-0.031,0.239-0.054,0.361-0.066c-0.259-0.02-0.536-0.085-0.788-0.1c0.268,0.001,0.536-0.013,0.803-0.044
		c-0.001,0.091,0.002,0.182,0.012,0.272c0.105,0.045,0.194,0.086,0.214,0.104c-0.068-0.128-0.138-0.256-0.204-0.379
		c0.34-0.042,0.677-0.113,1.002-0.224c-0.193-0.082-0.714-0.172-0.998-0.167c0.118-0.075,0.259-0.136,0.408-0.189H62.664z
		 M31.836,33.593c0.202,0.859,0.347,0.658,0.232,1c-0.267,0.798-0.305,2.741,0,2.893c0.221,0.11-0.099-1.21-0.232-0.829V33.593z
		 M31.836,39.818v-2.763c0.13,0.327,0.339,1.45,0.326,2.141C32.045,39.403,31.933,39.616,31.836,39.818z M38.766,22.566
		c0.011,0.031,0.022,0.063,0.037,0.093c-0.014,0.076-0.027,0.154-0.037,0.227C38.767,22.778,38.766,22.673,38.766,22.566z"/>
	<path fill="#FFFFFF" d="M31.932,48.908c0.207-0.079,0.45-0.136,0.744-0.169C32.371,48.668,32.111,48.742,31.932,48.908z"/>
	<path fill="#FFFFFF" d="M40.794,24.059c-0.002-0.003-0.006-0.005-0.009-0.009C40.789,24.066,40.792,24.071,40.794,24.059z"/>
	<path fill="#FFFFFF" d="M39.112,22.605c0.597,0.434,1.132,0.944,1.673,1.444c-0.01-0.042-0.024-0.168-0.034-0.274
		c-0.456-0.285-0.967-0.668-1.215-1.124c0.007,0.023,0.015,0.048,0.024,0.069c-0.019-0.019-0.133-0.094-0.238-0.17
		c-0.057-0.019-0.114-0.035-0.172-0.049C39.138,22.533,39.125,22.568,39.112,22.605z"/>
	<path fill="#FFFFFF" d="M39.536,22.651c-0.036-0.109-0.066-0.248-0.138-0.376C39.421,22.405,39.47,22.531,39.536,22.651z"/>
	<path fill="#FFFFFF" d="M40.742,23.644c-0.009-0.08-0.003,0.013,0.008,0.132c0.025,0.016,0.051,0.032,0.076,0.047
		C40.861,23.744,40.833,23.684,40.742,23.644z"/>
</g>
</svg>
