<?xml version="1.0" encoding="utf-8"?>
<!-- Generator: Adobe Illustrator 15.0.0, SVG Export Plug-In . SVG Version: 6.00 Build 0)  -->
<!DOCTYPE svg PUBLIC "-//W3C//DTD SVG 1.1//EN" "http://www.w3.org/Graphics/SVG/1.1/DTD/svg11.dtd">
<svg version="1.1" id="Capa_1" xmlns="http://www.w3.org/2000/svg" xmlns:xlink="http://www.w3.org/1999/xlink" x="0px" y="0px"
	 width="68.75px" height="132.584px" viewBox="-3.938 -3.688 68.75 132.584" enable-background="new -3.938 -3.688 68.75 132.584"
	 xml:space="preserve">
<g>
	<path d="M0.99,80.71c13.626,0.026,33.236,0.629,46.857,0.368c-1.467,1.48-2.917,2.979-4.324,4.521
		c-3.709,4.066,2.325,10.134,6.05,6.049c4.116-4.513,8.525-8.73,13.046-12.832c2.133-1.936,1.506-4.496-0.158-5.986
		c-0.287-0.424-0.658-0.817-1.135-1.16c-4.203-3.022-8.23-6.254-12.182-9.599c-4.182-3.542-10.265,2.479-6.049,6.05
		c1.757,1.488,3.536,2.946,5.331,4.387c-13.816,0.288-33.62-0.326-47.437-0.353C-4.528,72.145-4.527,80.699,0.99,80.71z"/>
	<path d="M59.842,97.822c-13.818,0.025-33.622,0.64-47.437,0.352c1.794-1.439,3.574-2.898,5.33-4.386
		c4.216-3.571-1.868-9.593-6.049-6.05c-3.95,3.344-7.979,6.576-12.182,9.598c-0.477,0.344-0.849,0.738-1.135,1.16
		c-1.664,1.49-2.292,4.051-0.159,5.986c4.522,4.103,8.932,8.319,13.047,12.832c3.725,4.086,9.758-1.982,6.049-6.049
		c-1.406-1.543-2.857-3.039-4.325-4.521c13.623,0.262,33.233-0.342,46.859-0.367C65.359,106.367,65.36,97.812,59.842,97.822z"/>
</g>
<g>
	<path fill="#FFFFFF" d="M0.99,19.21c13.626,0.026,33.236,0.629,46.857,0.368c-1.467,1.48-2.917,2.979-4.324,4.521
		c-3.709,4.066,2.325,10.134,6.05,6.049c4.116-4.513,8.525-8.73,13.046-12.832c2.133-1.936,1.506-4.496-0.158-5.986
		c-0.287-0.424-0.658-0.817-1.135-1.16c-4.203-3.022-8.23-6.254-12.182-9.599c-4.182-3.542-10.265,2.479-6.049,6.05
		c1.757,1.488,3.536,2.946,5.331,4.387c-13.816,0.288-33.62-0.326-47.437-0.353C-4.528,10.645-4.527,19.199,0.99,19.21z"/>
	<path fill="#FFFFFF" d="M59.842,36.322c-13.818,0.025-33.622,0.64-47.437,0.352c1.794-1.439,3.574-2.898,5.33-4.386
		c4.216-3.571-1.868-9.593-6.049-6.05c-3.95,3.344-7.979,6.576-12.182,9.598c-0.477,0.344-0.849,0.738-1.135,1.16
		c-1.664,1.49-2.292,4.051-0.159,5.986c4.522,4.103,8.932,8.319,13.047,12.832c3.725,4.086,9.758-1.982,6.049-6.049
		c-1.406-1.543-2.857-3.039-4.325-4.521c13.623,0.262,33.233-0.342,46.859-0.367C65.359,44.867,65.36,36.312,59.842,36.322z"/>
</g>
</svg>
