<?xml version="1.0" encoding="utf-8"?>
<!-- Generator: Adobe Illustrator 15.0.0, SVG Export Plug-In . SVG Version: 6.00 Build 0)  -->
<!DOCTYPE svg PUBLIC "-//W3C//DTD SVG 1.1//EN" "http://www.w3.org/Graphics/SVG/1.1/DTD/svg11.dtd">
<svg version="1.1" id="Capa_1" xmlns="http://www.w3.org/2000/svg" xmlns:xlink="http://www.w3.org/1999/xlink" x="0px" y="0px"
	 width="68.75px" height="125.584px" viewBox="-3.938 3.312 68.75 125.584" enable-background="new -3.938 3.312 68.75 125.584"
	 xml:space="preserve">
<g>
	<path d="M38.158,68.106C21.839,64.072,5.281,74.065,1.245,90.383c-4.036,16.319,5.957,32.878,22.274,36.911
		c16.318,4.036,32.877-5.958,36.913-22.277C64.465,88.7,54.474,72.142,38.158,68.106z M50.886,112.703
		c-0.043,0.047-0.088,0.098-0.131,0.147C50.797,112.802,50.843,112.749,50.886,112.703c8.278-9.494,3.811-22.184,2.277-25.688
		c-4.088-9.326-10.901-11.879-14.552-12.578c-1.518-0.289-2.492-0.261-2.492-0.261c-0.717-0.04-1.396-0.044-2.039-0.014
		c-8.358,0.379-10.606,6.151-11.057,7.684c-0.07,0.235-0.097,0.372-0.097,0.372c-0.427,1.584-0.609,3.004-0.599,4.283
		c0.075,8.957,9.658,10.947,12.043,12.906s5.041,4.69,4.844,9.492c-0.029,0.687-0.115,1.416-0.268,2.191
		c-0.049,0.236-0.097,0.467-0.153,0.693c-0.032,0.129-0.07,0.25-0.104,0.374c-1.083,4.016-3.132,6.363-5.343,7.706
		c-2.314,1.407-4.8,1.725-6.52,1.729c-1.149,0.005-1.956-0.127-2.144-0.167c0.466,0.117,0.937,0.229,1.406,0.339
		c-0.382-0.077-0.765-0.142-1.148-0.236c-2.438-0.601-4.7-1.555-6.746-2.788c-7.608-4.576-12.251-13.033-11.89-22.017
		c0.065-1.629,0.294-3.274,0.702-4.916c0.608-2.465,1.572-4.749,2.823-6.813c4.584-7.569,13.025-12.186,21.983-11.827
		c1.628,0.065,3.274,0.296,4.916,0.7c0.644,0.16,1.264,0.363,1.881,0.569c3.651,0.697,10.463,3.252,14.552,12.578
		C54.699,90.52,59.164,103.209,50.886,112.703z M33.158,81.409c0.13,0.002,0.259,0.023,0.39,0.038
		c0.126,0.015,0.252,0.027,0.374,0.054c0.023,0.005,0.046,0.005,0.068,0.01c0.087,0.022,0.163,0.06,0.247,0.088
		c0.131,0.044,0.265,0.082,0.389,0.139c0.11,0.05,0.211,0.112,0.313,0.173c0.105,0.062,0.211,0.116,0.311,0.187
		c0.104,0.072,0.197,0.157,0.29,0.24c0.087,0.074,0.173,0.147,0.252,0.229c0.084,0.092,0.16,0.188,0.236,0.286
		c0.072,0.091,0.145,0.182,0.207,0.278c0.066,0.104,0.119,0.211,0.175,0.319c0.053,0.104,0.109,0.21,0.152,0.319
		c0.048,0.12,0.08,0.242,0.114,0.367c0.03,0.106,0.065,0.213,0.084,0.324c0.027,0.141,0.034,0.284,0.043,0.428
		c0.008,0.104,0.02,0.208,0.02,0.313c-0.003,0.129-0.024,0.258-0.039,0.388c-0.015,0.125-0.027,0.252-0.053,0.375
		c-0.005,0.021-0.005,0.046-0.01,0.068c-0.022,0.087-0.06,0.161-0.088,0.245c-0.042,0.132-0.082,0.265-0.139,0.389
		c-0.049,0.109-0.11,0.21-0.169,0.312c-0.061,0.106-0.119,0.213-0.189,0.312c-0.071,0.102-0.155,0.192-0.237,0.286
		c-0.077,0.087-0.15,0.176-0.234,0.256c-0.086,0.082-0.183,0.155-0.277,0.229c-0.095,0.074-0.188,0.149-0.29,0.215
		c-0.098,0.062-0.201,0.114-0.304,0.164c-0.11,0.059-0.218,0.117-0.334,0.163c-0.114,0.043-0.232,0.074-0.35,0.108
		c-0.113,0.032-0.224,0.068-0.343,0.09c-0.136,0.024-0.275,0.031-0.414,0.042c-0.108,0.007-0.215,0.021-0.325,0.019
		c-0.128-0.003-0.256-0.022-0.385-0.039c-0.125-0.014-0.251-0.026-0.375-0.054c-0.021-0.004-0.046-0.003-0.068-0.009
		c-0.087-0.021-0.163-0.061-0.247-0.089c-0.131-0.042-0.263-0.08-0.388-0.139c-0.111-0.049-0.21-0.111-0.314-0.17
		c-0.104-0.061-0.211-0.117-0.311-0.187c-0.102-0.073-0.194-0.157-0.287-0.238c-0.087-0.077-0.175-0.148-0.254-0.231
		c-0.084-0.088-0.158-0.186-0.231-0.282c-0.074-0.095-0.148-0.185-0.212-0.283c-0.064-0.103-0.116-0.207-0.169-0.312
		c-0.056-0.107-0.111-0.214-0.157-0.328c-0.045-0.115-0.077-0.236-0.111-0.358c-0.031-0.11-0.065-0.218-0.086-0.331
		c-0.026-0.139-0.034-0.281-0.042-0.424c-0.008-0.106-0.02-0.212-0.019-0.318c0.002-0.129,0.023-0.258,0.04-0.391
		c0.015-0.124,0.026-0.25,0.052-0.369c0.005-0.024,0.003-0.047,0.01-0.07c0.022-0.09,0.062-0.168,0.091-0.254
		c0.042-0.128,0.081-0.257,0.135-0.379c0.051-0.112,0.114-0.217,0.175-0.322c0.059-0.102,0.114-0.206,0.181-0.301
		c0.075-0.106,0.161-0.201,0.245-0.298c0.073-0.082,0.143-0.168,0.224-0.244c0.092-0.088,0.191-0.163,0.292-0.242
		c0.09-0.07,0.178-0.143,0.275-0.204c0.102-0.065,0.213-0.118,0.322-0.175c0.105-0.053,0.206-0.108,0.317-0.152
		c0.118-0.049,0.244-0.079,0.368-0.114c0.108-0.03,0.213-0.065,0.323-0.084c0.142-0.027,0.286-0.034,0.43-0.044
		C32.95,81.422,33.054,81.406,33.158,81.409z"/>
	<path d="M23.586,110.7c0.021,0.118,0.058,0.232,0.091,0.347c0.033,0.115,0.063,0.234,0.106,0.346
		c0.046,0.116,0.106,0.23,0.165,0.342c0.053,0.099,0.101,0.201,0.16,0.296c0.067,0.106,0.146,0.203,0.225,0.301
		c0.071,0.092,0.141,0.181,0.219,0.266c0.084,0.09,0.178,0.167,0.271,0.248c0.088,0.076,0.175,0.155,0.271,0.224
		c0.105,0.074,0.22,0.137,0.334,0.201c0.096,0.054,0.187,0.111,0.288,0.157c0.133,0.061,0.277,0.105,0.421,0.149
		c0.093,0.03,0.185,0.064,0.281,0.087c0.138,0.029,0.273,0.043,0.41,0.058c0.117,0.014,0.232,0.033,0.352,0.035
		c0.024,0,0.048,0.01,0.072,0.01c0.095,0,0.184-0.021,0.275-0.029c0.132-0.01,0.265-0.016,0.394-0.038
		c0.121-0.023,0.235-0.058,0.352-0.092c0.115-0.034,0.232-0.062,0.342-0.106c0.115-0.046,0.224-0.104,0.334-0.163
		c0.104-0.053,0.209-0.104,0.308-0.164c0.099-0.063,0.189-0.139,0.282-0.211c0.098-0.077,0.197-0.149,0.287-0.235
		c0.079-0.077,0.15-0.161,0.223-0.245c0.086-0.099,0.172-0.195,0.248-0.302c0.065-0.092,0.119-0.191,0.176-0.29
		c0.063-0.111,0.129-0.218,0.183-0.336c0.05-0.113,0.088-0.236,0.127-0.358c0.039-0.113,0.081-0.226,0.108-0.345
		c0.026-0.115,0.035-0.23,0.049-0.346c0.018-0.138,0.041-0.274,0.043-0.418c0-0.02,0.006-0.037,0.006-0.061
		c0-0.078-0.018-0.151-0.023-0.229c-0.01-0.151-0.018-0.303-0.044-0.448c-0.02-0.104-0.052-0.205-0.081-0.31
		c-0.036-0.128-0.069-0.259-0.119-0.381c-0.042-0.106-0.095-0.205-0.146-0.308c-0.057-0.111-0.112-0.227-0.181-0.333
		c-0.058-0.092-0.129-0.177-0.196-0.264c-0.081-0.105-0.16-0.209-0.25-0.304c-0.071-0.076-0.152-0.141-0.231-0.21
		c-0.102-0.09-0.202-0.181-0.312-0.259c-0.089-0.063-0.188-0.114-0.281-0.17c-0.112-0.066-0.224-0.134-0.342-0.187
		c-0.113-0.051-0.235-0.087-0.355-0.126c-0.115-0.039-0.229-0.083-0.35-0.108c-0.111-0.025-0.222-0.034-0.335-0.049
		c-0.141-0.018-0.281-0.041-0.427-0.044c-0.021,0-0.039-0.006-0.059-0.006c-0.074,0-0.145,0.018-0.219,0.023
		c-0.156,0.009-0.312,0.019-0.463,0.046c-0.102,0.02-0.198,0.051-0.297,0.078c-0.133,0.035-0.267,0.071-0.394,0.123
		c-0.103,0.039-0.2,0.093-0.299,0.143c-0.116,0.059-0.23,0.113-0.338,0.184c-0.093,0.06-0.179,0.129-0.266,0.196
		c-0.103,0.079-0.206,0.157-0.299,0.247c-0.079,0.077-0.149,0.159-0.222,0.243c-0.085,0.098-0.171,0.194-0.247,0.299
		c-0.068,0.098-0.125,0.202-0.183,0.306c-0.06,0.104-0.123,0.207-0.172,0.317c-0.056,0.123-0.096,0.257-0.139,0.387
		c-0.033,0.104-0.073,0.206-0.098,0.315c-0.028,0.127-0.039,0.252-0.053,0.379c-0.015,0.126-0.036,0.251-0.039,0.381
		c0,0.025-0.006,0.045-0.006,0.067c0,0.09,0.02,0.175,0.025,0.26C23.555,110.427,23.563,110.566,23.586,110.7z"/>
</g>
<g>
	<path fill="#FFFFFF" d="M38.158,5.15C21.839,1.116,5.281,11.109,1.245,27.427c-4.036,16.318,5.957,32.877,22.274,36.912
		c16.318,4.035,32.877-5.959,36.913-22.278C64.465,25.744,54.474,9.186,38.158,5.15z M50.886,49.747
		c-0.043,0.047-0.088,0.099-0.131,0.148C50.797,49.846,50.843,49.792,50.886,49.747c8.278-9.495,3.811-22.183,2.277-25.688
		c-4.088-9.325-10.901-11.878-14.552-12.577c-1.518-0.289-2.492-0.261-2.492-0.261c-0.717-0.04-1.396-0.044-2.039-0.014
		c-8.358,0.38-10.606,6.152-11.057,7.686c-0.07,0.235-0.097,0.371-0.097,0.371c-0.427,1.584-0.609,3.004-0.599,4.284
		c0.075,8.956,9.658,10.947,12.043,12.906s5.041,4.69,4.844,9.493c-0.029,0.687-0.115,1.416-0.268,2.191
		c-0.049,0.235-0.097,0.467-0.153,0.694c-0.032,0.129-0.07,0.249-0.104,0.374c-1.083,4.015-3.132,6.363-5.343,7.706
		c-2.314,1.407-4.8,1.724-6.52,1.729c-1.149,0.005-1.956-0.128-2.144-0.167c0.466,0.117,0.937,0.228,1.406,0.338
		c-0.382-0.076-0.765-0.141-1.148-0.235c-2.438-0.602-4.7-1.555-6.746-2.789c-7.608-4.576-12.251-13.034-11.89-22.018
		c0.065-1.628,0.294-3.273,0.702-4.916c0.608-2.464,1.572-4.749,2.823-6.813c4.584-7.569,13.025-12.185,21.983-11.827
		c1.628,0.066,3.274,0.295,4.916,0.701c0.644,0.159,1.264,0.362,1.881,0.568c3.651,0.697,10.463,3.252,14.552,12.577
		C54.699,27.563,59.164,40.252,50.886,49.747z M33.158,18.453c0.13,0.002,0.259,0.023,0.39,0.038
		c0.126,0.015,0.252,0.027,0.374,0.053c0.023,0.005,0.046,0.005,0.068,0.011c0.087,0.021,0.163,0.06,0.247,0.088
		c0.131,0.043,0.265,0.082,0.389,0.139c0.11,0.049,0.211,0.111,0.313,0.171c0.105,0.062,0.211,0.117,0.311,0.187
		c0.104,0.073,0.197,0.158,0.29,0.24c0.087,0.075,0.173,0.148,0.252,0.229c0.084,0.091,0.16,0.188,0.236,0.287
		c0.072,0.09,0.145,0.18,0.207,0.278c0.066,0.103,0.119,0.21,0.175,0.319c0.053,0.104,0.109,0.209,0.152,0.32
		c0.048,0.119,0.08,0.241,0.114,0.366c0.03,0.106,0.065,0.213,0.084,0.324c0.027,0.141,0.034,0.285,0.043,0.427
		c0.008,0.104,0.02,0.209,0.02,0.313c-0.003,0.129-0.024,0.258-0.039,0.388c-0.015,0.125-0.027,0.251-0.053,0.375
		c-0.005,0.021-0.005,0.046-0.01,0.068c-0.022,0.087-0.06,0.162-0.088,0.245c-0.042,0.133-0.082,0.265-0.139,0.389
		c-0.049,0.109-0.11,0.21-0.169,0.312c-0.061,0.106-0.119,0.213-0.189,0.312c-0.071,0.102-0.155,0.192-0.237,0.286
		c-0.077,0.087-0.15,0.177-0.234,0.256c-0.086,0.083-0.183,0.155-0.277,0.228c-0.095,0.075-0.188,0.15-0.29,0.215
		c-0.098,0.063-0.201,0.114-0.304,0.165c-0.11,0.058-0.218,0.117-0.334,0.163c-0.114,0.043-0.232,0.075-0.35,0.109
		c-0.113,0.032-0.224,0.068-0.343,0.09c-0.136,0.024-0.275,0.032-0.414,0.041c-0.108,0.008-0.215,0.021-0.325,0.02
		c-0.128-0.002-0.256-0.022-0.385-0.039c-0.125-0.014-0.251-0.026-0.375-0.053c-0.021-0.005-0.046-0.003-0.068-0.01
		c-0.087-0.021-0.163-0.061-0.247-0.087c-0.131-0.043-0.263-0.082-0.388-0.14c-0.111-0.048-0.21-0.112-0.314-0.17
		c-0.104-0.06-0.211-0.117-0.311-0.186c-0.102-0.074-0.194-0.157-0.287-0.238c-0.087-0.077-0.175-0.149-0.254-0.231
		c-0.084-0.088-0.158-0.186-0.231-0.282c-0.074-0.095-0.148-0.185-0.212-0.284c-0.064-0.102-0.116-0.207-0.169-0.312
		c-0.056-0.107-0.111-0.213-0.157-0.327c-0.045-0.116-0.077-0.238-0.111-0.358c-0.031-0.11-0.065-0.218-0.086-0.332
		c-0.026-0.14-0.034-0.282-0.042-0.424c-0.008-0.106-0.02-0.211-0.019-0.318c0.002-0.129,0.023-0.259,0.04-0.391
		c0.015-0.124,0.026-0.25,0.052-0.369c0.005-0.024,0.003-0.047,0.01-0.07c0.022-0.089,0.062-0.168,0.091-0.254
		c0.042-0.128,0.081-0.256,0.135-0.379c0.051-0.112,0.114-0.217,0.175-0.321c0.059-0.102,0.114-0.207,0.181-0.303
		c0.075-0.106,0.161-0.201,0.245-0.297c0.073-0.082,0.143-0.168,0.224-0.245c0.092-0.087,0.191-0.162,0.292-0.241
		c0.09-0.071,0.178-0.142,0.275-0.204c0.102-0.066,0.213-0.119,0.322-0.175c0.105-0.053,0.206-0.108,0.317-0.152
		c0.118-0.048,0.244-0.079,0.368-0.114c0.108-0.03,0.213-0.065,0.323-0.084c0.142-0.027,0.286-0.035,0.43-0.044
		C32.95,18.465,33.054,18.45,33.158,18.453z"/>
	<path fill="#FFFFFF" d="M23.586,47.744c0.021,0.118,0.058,0.233,0.091,0.347c0.033,0.116,0.063,0.234,0.106,0.345
		c0.046,0.117,0.106,0.23,0.165,0.342c0.053,0.099,0.101,0.201,0.16,0.295c0.067,0.107,0.146,0.204,0.225,0.302
		c0.071,0.091,0.141,0.18,0.219,0.265c0.084,0.09,0.178,0.167,0.271,0.248c0.088,0.077,0.175,0.155,0.271,0.224
		c0.105,0.075,0.22,0.137,0.334,0.201c0.096,0.053,0.187,0.111,0.288,0.157c0.133,0.062,0.277,0.105,0.421,0.15
		c0.093,0.03,0.185,0.063,0.281,0.087c0.138,0.03,0.273,0.042,0.41,0.058c0.117,0.013,0.232,0.032,0.352,0.035
		c0.024,0,0.048,0.009,0.072,0.009c0.095,0,0.184-0.021,0.275-0.028c0.132-0.011,0.265-0.016,0.394-0.04
		c0.121-0.022,0.235-0.058,0.352-0.092c0.115-0.033,0.232-0.062,0.342-0.106c0.115-0.046,0.224-0.104,0.334-0.163
		c0.104-0.053,0.209-0.104,0.308-0.165c0.099-0.064,0.189-0.137,0.282-0.21c0.098-0.077,0.197-0.15,0.287-0.236
		c0.079-0.077,0.15-0.162,0.223-0.245c0.086-0.098,0.172-0.194,0.248-0.301c0.065-0.092,0.119-0.191,0.176-0.291
		c0.063-0.111,0.129-0.218,0.183-0.335c0.05-0.114,0.088-0.236,0.127-0.358c0.039-0.114,0.081-0.226,0.108-0.345
		c0.026-0.116,0.035-0.23,0.049-0.345c0.018-0.138,0.041-0.275,0.043-0.418c0-0.02,0.006-0.038,0.006-0.061
		c0-0.079-0.018-0.153-0.023-0.23c-0.01-0.15-0.018-0.302-0.044-0.447c-0.02-0.104-0.052-0.206-0.081-0.31
		c-0.036-0.128-0.069-0.259-0.119-0.381c-0.042-0.105-0.095-0.205-0.146-0.307c-0.057-0.112-0.112-0.227-0.181-0.334
		c-0.058-0.091-0.129-0.176-0.196-0.264c-0.081-0.105-0.16-0.208-0.25-0.303c-0.071-0.077-0.152-0.141-0.231-0.21
		c-0.102-0.09-0.202-0.18-0.312-0.259c-0.089-0.064-0.188-0.115-0.281-0.17c-0.112-0.065-0.224-0.133-0.342-0.187
		c-0.113-0.05-0.235-0.086-0.355-0.125c-0.115-0.039-0.229-0.083-0.35-0.108c-0.111-0.024-0.222-0.034-0.335-0.049
		c-0.141-0.018-0.281-0.042-0.427-0.044c-0.021,0-0.039-0.005-0.059-0.005c-0.074,0-0.145,0.018-0.219,0.023
		c-0.156,0.008-0.312,0.018-0.463,0.046c-0.102,0.019-0.198,0.051-0.297,0.077c-0.133,0.036-0.267,0.072-0.394,0.124
		c-0.103,0.04-0.2,0.093-0.299,0.142c-0.116,0.06-0.23,0.115-0.338,0.185c-0.093,0.06-0.179,0.129-0.266,0.197
		c-0.103,0.079-0.206,0.156-0.299,0.247c-0.079,0.077-0.149,0.16-0.222,0.243c-0.085,0.097-0.171,0.194-0.247,0.299
		c-0.068,0.097-0.125,0.202-0.183,0.306c-0.06,0.104-0.123,0.207-0.172,0.317c-0.056,0.124-0.096,0.256-0.139,0.387
		c-0.033,0.104-0.073,0.206-0.098,0.315c-0.028,0.127-0.039,0.252-0.053,0.378c-0.015,0.126-0.036,0.251-0.039,0.381
		c0,0.024-0.006,0.045-0.006,0.068c0,0.089,0.02,0.174,0.025,0.26C23.555,47.471,23.563,47.611,23.586,47.744z"/>
</g>
</svg>
